G04 Layer_Color=65535*
%FSLAX25Y25*%
%MOIN*%
G70*
G01*
G75*
%ADD10C,0.01000*%
%ADD17C,0.00800*%
D10*
X-100615Y75572D02*
G03*
X-100615Y75572I-15748J0D01*
G01*
X-71088D02*
G03*
X-71088Y75572I-45276J0D01*
G01*
X-49261Y75891D02*
G03*
X-49261Y75891I-66831J0D01*
G01*
X-53100Y76031D02*
G03*
X-53100Y76031I-62992J0D01*
G01*
X-116363Y20553D02*
X-111442Y25474D01*
X-121285D02*
X-116363Y20553D01*
X-121285Y25474D02*
X-111442D01*
X-62230Y80493D02*
X-57308Y75572D01*
X-62230Y70651D02*
X-57308Y75572D01*
X-62230Y70651D02*
Y80493D01*
X-175517Y75474D02*
X-170596Y70553D01*
X-175517Y75474D02*
X-170596Y80395D01*
Y70553D02*
Y80395D01*
X-121285Y129706D02*
X-111442D01*
X-116363Y134627D02*
X-111442Y129706D01*
X-121285D02*
X-116363Y134627D01*
D17*
X-177598Y123205D02*
X-178264Y123871D01*
X-179597D01*
X-180263Y123205D01*
Y122538D01*
X-179597Y121872D01*
X-178264D01*
X-177598Y121205D01*
Y120539D01*
X-178264Y119872D01*
X-179597D01*
X-180263Y120539D01*
X-176265Y119872D02*
X-174932D01*
X-175598D01*
Y123871D01*
X-176265Y123205D01*
M02*
