M48
;Layer_Color=9474304
;FILE_FORMAT=2:5
INCH,LZ
;TYPE=PLATED
T1F00S00C0.02800
T2F00S00C0.06299
;TYPE=NON_PLATED
T3F00S00C0.06299
T4F00S00C0.12000
T5F00S00C0.15748
%
T01
X-0108Y00255
X-00221Y00165
X-018Y0038
X-0108Y00585
X-00903Y00787
X-00808Y00716
X-00807Y01023
X-0069Y0097
X-0064148Y0110148
X-0045Y01355
X-00366Y00902
X-00294Y00944
X-00216Y00786
X-00365Y00707
X-0045Y0063
X-00295Y00513
X-01115Y00955
T02
X-0128898Y0012697
X-0085608Y0016595
X-0179704Y0061833
X-0120477Y0071646
X-0091385Y0051324
X-0090341Y0101781
X-005248Y0090228
X-0140799Y0100738
X-0146575Y0135467
T03
X-012862Y0088558
X-0103565Y0063503
T04
X-0012963Y0013172
X-0187963
Y0138172
X-0012963
T05
X-0074334Y0034272
X-015785
Y0117789
X-0074334
M30
