G04 Layer_Physical_Order=1*
G04 Layer_Color=255*
%FSLAX25Y25*%
%MOIN*%
G70*
G01*
G75*
%ADD10C,0.01000*%
%ADD11C,0.09843*%
%ADD12C,0.05000*%
G36*
X-1585Y1314D02*
X-199342D01*
Y149551D01*
X-1585D01*
Y1314D01*
D02*
G37*
%LPC*%
G36*
X-179704Y67402D02*
X-181145Y67212D01*
X-182488Y66656D01*
X-183642Y65771D01*
X-184527Y64617D01*
X-185083Y63274D01*
X-185273Y61833D01*
X-185083Y60391D01*
X-184527Y59048D01*
X-183642Y57895D01*
X-182488Y57010D01*
X-181145Y56454D01*
X-180825Y56411D01*
Y41014D01*
X-181563Y40708D01*
X-182211Y40211D01*
X-182708Y39563D01*
X-183020Y38809D01*
X-183127Y38000D01*
X-183020Y37191D01*
X-182708Y36437D01*
X-182211Y35789D01*
X-181563Y35292D01*
X-180809Y34980D01*
X-180000Y34873D01*
X-179191Y34980D01*
X-178437Y35292D01*
X-177789Y35789D01*
X-177292Y36437D01*
X-176980Y37191D01*
X-176873Y38000D01*
X-176980Y38809D01*
X-177292Y39563D01*
X-177789Y40211D01*
X-178437Y40708D01*
X-178582Y40768D01*
Y56411D01*
X-178262Y56454D01*
X-176919Y57010D01*
X-175766Y57895D01*
X-174881Y59048D01*
X-174325Y60391D01*
X-174135Y61833D01*
X-174325Y63274D01*
X-174881Y64617D01*
X-175766Y65771D01*
X-176919Y66656D01*
X-178262Y67212D01*
X-179704Y67402D01*
D02*
G37*
G36*
X-74334Y42787D02*
X-75995Y42624D01*
X-77592Y42139D01*
X-79064Y41352D01*
X-80355Y40293D01*
X-81414Y39003D01*
X-82200Y37531D01*
X-82685Y35934D01*
X-82849Y34272D01*
X-82685Y32611D01*
X-82200Y31014D01*
X-81414Y29542D01*
X-80355Y28251D01*
X-79064Y27192D01*
X-77592Y26406D01*
X-75995Y25921D01*
X-74334Y25757D01*
X-72672Y25921D01*
X-71075Y26406D01*
X-69603Y27192D01*
X-68313Y28251D01*
X-67254Y29542D01*
X-66467Y31014D01*
X-65982Y32611D01*
X-65819Y34272D01*
X-65982Y35934D01*
X-66467Y37531D01*
X-67254Y39003D01*
X-68313Y40293D01*
X-69603Y41352D01*
X-71075Y42139D01*
X-72672Y42624D01*
X-74334Y42787D01*
D02*
G37*
G36*
X-157850D02*
X-159511Y42624D01*
X-161109Y42139D01*
X-162581Y41352D01*
X-163871Y40293D01*
X-164930Y39003D01*
X-165717Y37531D01*
X-166202Y35934D01*
X-166365Y34272D01*
X-166202Y32611D01*
X-165717Y31014D01*
X-164930Y29542D01*
X-163871Y28251D01*
X-162581Y27192D01*
X-161109Y26406D01*
X-159511Y25921D01*
X-157850Y25757D01*
X-156189Y25921D01*
X-154592Y26406D01*
X-153120Y27192D01*
X-151829Y28251D01*
X-150770Y29542D01*
X-149983Y31014D01*
X-149499Y32611D01*
X-149335Y34272D01*
X-149499Y35934D01*
X-149983Y37531D01*
X-150770Y39003D01*
X-151829Y40293D01*
X-153120Y41352D01*
X-154592Y42139D01*
X-156189Y42624D01*
X-157850Y42787D01*
D02*
G37*
G36*
X-91385Y56893D02*
X-92826Y56703D01*
X-94169Y56146D01*
X-95323Y55261D01*
X-96208Y54108D01*
X-96764Y52765D01*
X-96954Y51324D01*
X-96764Y49882D01*
X-96208Y48539D01*
X-95323Y47386D01*
X-94169Y46501D01*
X-92826Y45944D01*
X-91385Y45755D01*
X-89944Y45944D01*
X-88600Y46501D01*
X-87447Y47386D01*
X-86562Y48539D01*
X-86006Y49882D01*
X-85816Y51324D01*
X-86006Y52765D01*
X-86562Y54108D01*
X-87447Y55261D01*
X-88600Y56146D01*
X-89944Y56703D01*
X-91385Y56893D01*
D02*
G37*
G36*
X-45000Y138627D02*
X-45809Y138520D01*
X-46563Y138208D01*
X-47211Y137711D01*
X-47708Y137063D01*
X-48020Y136309D01*
X-48127Y135500D01*
X-48020Y134691D01*
X-47708Y133937D01*
X-47211Y133289D01*
X-46563Y132792D01*
X-46122Y132609D01*
Y65891D01*
X-46563Y65708D01*
X-47211Y65211D01*
X-47708Y64563D01*
X-48020Y63809D01*
X-48127Y63000D01*
X-48020Y62191D01*
X-47708Y61437D01*
X-47211Y60789D01*
X-46563Y60292D01*
X-45809Y59980D01*
X-45000Y59873D01*
X-44191Y59980D01*
X-43437Y60292D01*
X-42789Y60789D01*
X-42292Y61437D01*
X-41980Y62191D01*
X-41873Y63000D01*
X-41980Y63809D01*
X-42292Y64563D01*
X-42789Y65211D01*
X-43437Y65708D01*
X-43878Y65891D01*
Y132609D01*
X-43437Y132792D01*
X-42789Y133289D01*
X-42292Y133937D01*
X-41980Y134691D01*
X-41873Y135500D01*
X-41980Y136309D01*
X-42292Y137063D01*
X-42789Y137711D01*
X-43437Y138208D01*
X-44191Y138520D01*
X-45000Y138627D01*
D02*
G37*
G36*
X-111500Y98627D02*
X-112309Y98520D01*
X-113063Y98208D01*
X-113711Y97711D01*
X-114208Y97063D01*
X-114520Y96309D01*
X-114627Y95500D01*
X-114520Y94691D01*
X-114208Y93937D01*
X-113711Y93289D01*
X-113063Y92792D01*
X-112622Y92609D01*
Y62000D01*
X-112622Y62000D01*
X-112536Y61571D01*
X-112293Y61207D01*
X-110837Y59751D01*
X-111020Y59309D01*
X-111127Y58500D01*
X-111020Y57691D01*
X-110708Y56937D01*
X-110211Y56289D01*
X-109563Y55792D01*
X-109122Y55609D01*
Y28391D01*
X-109563Y28208D01*
X-110211Y27711D01*
X-110708Y27063D01*
X-111020Y26309D01*
X-111127Y25500D01*
X-111020Y24691D01*
X-110708Y23937D01*
X-110211Y23289D01*
X-109563Y22792D01*
X-108809Y22480D01*
X-108000Y22373D01*
X-107191Y22480D01*
X-106437Y22792D01*
X-105789Y23289D01*
X-105292Y23937D01*
X-104980Y24691D01*
X-104873Y25500D01*
X-104980Y26309D01*
X-105292Y27063D01*
X-105789Y27711D01*
X-106437Y28208D01*
X-106878Y28391D01*
Y55609D01*
X-106437Y55792D01*
X-105789Y56289D01*
X-105292Y56937D01*
X-104980Y57691D01*
X-104873Y58500D01*
X-104980Y59309D01*
X-105070Y59527D01*
X-104687Y59910D01*
X-104543Y59850D01*
X-103565Y59721D01*
X-102586Y59850D01*
X-101673Y60228D01*
X-100890Y60829D01*
X-100289Y61612D01*
X-99911Y62524D01*
X-99783Y63503D01*
X-99911Y64482D01*
X-100289Y65394D01*
X-100890Y66177D01*
X-101673Y66778D01*
X-102586Y67156D01*
X-103565Y67285D01*
X-104543Y67156D01*
X-105456Y66778D01*
X-106239Y66177D01*
X-106840Y65394D01*
X-107218Y64482D01*
X-107346Y63503D01*
X-107218Y62524D01*
X-106992Y61979D01*
X-107050Y61846D01*
X-107352Y61541D01*
X-108000Y61627D01*
X-108809Y61520D01*
X-109251Y61337D01*
X-110378Y62465D01*
Y92609D01*
X-109937Y92792D01*
X-109289Y93289D01*
X-108792Y93937D01*
X-108480Y94691D01*
X-108373Y95500D01*
X-108480Y96309D01*
X-108792Y97063D01*
X-109289Y97711D01*
X-109937Y98208D01*
X-110691Y98520D01*
X-111500Y98627D01*
D02*
G37*
G36*
X-29400Y97527D02*
X-30209Y97420D01*
X-30963Y97108D01*
X-31611Y96611D01*
X-32108Y95963D01*
X-32420Y95209D01*
X-32527Y94400D01*
X-32420Y93591D01*
X-32108Y92837D01*
X-31611Y92189D01*
X-30963Y91692D01*
X-30622Y91551D01*
Y54191D01*
X-31063Y54008D01*
X-31711Y53511D01*
X-32208Y52863D01*
X-32520Y52109D01*
X-32627Y51300D01*
X-32520Y50491D01*
X-32208Y49737D01*
X-31711Y49089D01*
X-31063Y48592D01*
X-30309Y48280D01*
X-29500Y48173D01*
X-28691Y48280D01*
X-27937Y48592D01*
X-27289Y49089D01*
X-26792Y49737D01*
X-26480Y50491D01*
X-26373Y51300D01*
X-26480Y52109D01*
X-26792Y52863D01*
X-27289Y53511D01*
X-27937Y54008D01*
X-28378Y54191D01*
Y91468D01*
X-27837Y91692D01*
X-27189Y92189D01*
X-26692Y92837D01*
X-26380Y93591D01*
X-26273Y94400D01*
X-26380Y95209D01*
X-26692Y95963D01*
X-27189Y96611D01*
X-27837Y97108D01*
X-28591Y97420D01*
X-29400Y97527D01*
D02*
G37*
G36*
X-128898Y11990D02*
X-132717Y8171D01*
X-132203Y7750D01*
X-131175Y7200D01*
X-130059Y6862D01*
X-128898Y6747D01*
X-127737Y6862D01*
X-126621Y7200D01*
X-125592Y7750D01*
X-125079Y8171D01*
X-128898Y11990D01*
D02*
G37*
G36*
X-21600Y81727D02*
X-22409Y81620D01*
X-23163Y81308D01*
X-23811Y80811D01*
X-24308Y80163D01*
X-24620Y79409D01*
X-24727Y78600D01*
X-24620Y77791D01*
X-24308Y77037D01*
X-23811Y76389D01*
X-23163Y75892D01*
X-22722Y75709D01*
Y19545D01*
X-22909Y19520D01*
X-23663Y19208D01*
X-24311Y18711D01*
X-24808Y18063D01*
X-25120Y17309D01*
X-25227Y16500D01*
X-25120Y15691D01*
X-24808Y14937D01*
X-24311Y14289D01*
X-23663Y13792D01*
X-22909Y13480D01*
X-22100Y13373D01*
X-21291Y13480D01*
X-20537Y13792D01*
X-19996Y14207D01*
X-19623Y14062D01*
X-19517Y13971D01*
X-19595Y13172D01*
X-19468Y11878D01*
X-19091Y10634D01*
X-18478Y9488D01*
X-17653Y8483D01*
X-16648Y7658D01*
X-15501Y7045D01*
X-14257Y6668D01*
X-12963Y6540D01*
X-11670Y6668D01*
X-10425Y7045D01*
X-9279Y7658D01*
X-8274Y8483D01*
X-7449Y9488D01*
X-6836Y10634D01*
X-6459Y11878D01*
X-6331Y13172D01*
X-6459Y14466D01*
X-6836Y15710D01*
X-7449Y16857D01*
X-8274Y17862D01*
X-9279Y18687D01*
X-10425Y19299D01*
X-11670Y19677D01*
X-12963Y19804D01*
X-14257Y19677D01*
X-15501Y19299D01*
X-16648Y18687D01*
X-17653Y17862D01*
X-18478Y16857D01*
X-18508Y16799D01*
X-19025Y16893D01*
X-19080Y17309D01*
X-19392Y18063D01*
X-19889Y18711D01*
X-20479Y19163D01*
Y75709D01*
X-20037Y75892D01*
X-19389Y76389D01*
X-18892Y77037D01*
X-18580Y77791D01*
X-18473Y78600D01*
X-18580Y79409D01*
X-18892Y80163D01*
X-19389Y80811D01*
X-20037Y81308D01*
X-20791Y81620D01*
X-21600Y81727D01*
D02*
G37*
G36*
X-187963Y19804D02*
X-189257Y19677D01*
X-190501Y19299D01*
X-191648Y18687D01*
X-192653Y17862D01*
X-193478Y16857D01*
X-194090Y15710D01*
X-194468Y14466D01*
X-194595Y13172D01*
X-194468Y11878D01*
X-194090Y10634D01*
X-193478Y9488D01*
X-192653Y8483D01*
X-191648Y7658D01*
X-190501Y7045D01*
X-189257Y6668D01*
X-187963Y6540D01*
X-186670Y6668D01*
X-185425Y7045D01*
X-184279Y7658D01*
X-183274Y8483D01*
X-182449Y9488D01*
X-181836Y10634D01*
X-181459Y11878D01*
X-181331Y13172D01*
X-181459Y14466D01*
X-181836Y15710D01*
X-182449Y16857D01*
X-183274Y17862D01*
X-184279Y18687D01*
X-185425Y19299D01*
X-186670Y19677D01*
X-187963Y19804D01*
D02*
G37*
G36*
X-133424Y16516D02*
X-133845Y16003D01*
X-134395Y14974D01*
X-134733Y13858D01*
X-134848Y12697D01*
X-134733Y11536D01*
X-134395Y10420D01*
X-133845Y9392D01*
X-133424Y8878D01*
X-129605Y12697D01*
X-133424Y16516D01*
D02*
G37*
G36*
X-128898Y18647D02*
X-130059Y18533D01*
X-131175Y18194D01*
X-132203Y17644D01*
X-132717Y17223D01*
X-128898Y13404D01*
X-125079Y17223D01*
X-125592Y17644D01*
X-126621Y18194D01*
X-127737Y18533D01*
X-128898Y18647D01*
D02*
G37*
G36*
X-85608Y22164D02*
X-87050Y21974D01*
X-88393Y21418D01*
X-89546Y20533D01*
X-90431Y19379D01*
X-90988Y18036D01*
X-91177Y16595D01*
X-90988Y15153D01*
X-90431Y13810D01*
X-89546Y12657D01*
X-88393Y11772D01*
X-87050Y11215D01*
X-85608Y11026D01*
X-84167Y11215D01*
X-82824Y11772D01*
X-81671Y12657D01*
X-80786Y13810D01*
X-80229Y15153D01*
X-80040Y16595D01*
X-80229Y18036D01*
X-80786Y19379D01*
X-81671Y20533D01*
X-82824Y21418D01*
X-84167Y21974D01*
X-85608Y22164D01*
D02*
G37*
G36*
X-124372Y16516D02*
X-128191Y12697D01*
X-124372Y8878D01*
X-123951Y9392D01*
X-123401Y10420D01*
X-123062Y11536D01*
X-122948Y12697D01*
X-123062Y13858D01*
X-123401Y14974D01*
X-123951Y16003D01*
X-124372Y16516D01*
D02*
G37*
G36*
X-120477Y77215D02*
X-121918Y77025D01*
X-123261Y76469D01*
X-124414Y75584D01*
X-125299Y74430D01*
X-125856Y73087D01*
X-126046Y71646D01*
X-125856Y70205D01*
X-125299Y68862D01*
X-124414Y67708D01*
X-123261Y66823D01*
X-121918Y66267D01*
X-120477Y66077D01*
X-119035Y66267D01*
X-117692Y66823D01*
X-116539Y67708D01*
X-115654Y68862D01*
X-115097Y70205D01*
X-114908Y71646D01*
X-115097Y73087D01*
X-115654Y74430D01*
X-116539Y75584D01*
X-117692Y76469D01*
X-119035Y77025D01*
X-120477Y77215D01*
D02*
G37*
G36*
X-157850Y126304D02*
X-159511Y126140D01*
X-161109Y125656D01*
X-162581Y124869D01*
X-163871Y123810D01*
X-164930Y122520D01*
X-165717Y121047D01*
X-166202Y119450D01*
X-166365Y117789D01*
X-166202Y116128D01*
X-165717Y114530D01*
X-164930Y113058D01*
X-163871Y111768D01*
X-162581Y110709D01*
X-161109Y109922D01*
X-159511Y109438D01*
X-157850Y109274D01*
X-156189Y109438D01*
X-154592Y109922D01*
X-153120Y110709D01*
X-151829Y111768D01*
X-150770Y113058D01*
X-149983Y114530D01*
X-149499Y116128D01*
X-149335Y117789D01*
X-149499Y119450D01*
X-149983Y121047D01*
X-150770Y122520D01*
X-151829Y123810D01*
X-153120Y124869D01*
X-154592Y125656D01*
X-156189Y126140D01*
X-157850Y126304D01*
D02*
G37*
G36*
X-140799Y106687D02*
X-141960Y106573D01*
X-143076Y106235D01*
X-144105Y105685D01*
X-144618Y105263D01*
X-140799Y101445D01*
X-136980Y105263D01*
X-137493Y105685D01*
X-138522Y106235D01*
X-139638Y106573D01*
X-140799Y106687D01*
D02*
G37*
G36*
X-64148Y113275D02*
X-64957Y113168D01*
X-65711Y112856D01*
X-66359Y112359D01*
X-66856Y111711D01*
X-67168Y110957D01*
X-67275Y110148D01*
X-67168Y109339D01*
X-66856Y108585D01*
X-66359Y107937D01*
X-65711Y107440D01*
X-65270Y107257D01*
Y102316D01*
X-67749Y99837D01*
X-68191Y100020D01*
X-69000Y100127D01*
X-69809Y100020D01*
X-70563Y99708D01*
X-71211Y99211D01*
X-71708Y98563D01*
X-72020Y97809D01*
X-72127Y97000D01*
X-72020Y96191D01*
X-71708Y95437D01*
X-71211Y94789D01*
X-70563Y94292D01*
X-69809Y93980D01*
X-69000Y93873D01*
X-68191Y93980D01*
X-67437Y94292D01*
X-66789Y94789D01*
X-66292Y95437D01*
X-65980Y96191D01*
X-65873Y97000D01*
X-65980Y97809D01*
X-66163Y98251D01*
X-63355Y101059D01*
X-63355Y101059D01*
X-63112Y101423D01*
X-63026Y101852D01*
Y107257D01*
X-62585Y107440D01*
X-61937Y107937D01*
X-61440Y108585D01*
X-61128Y109339D01*
X-61021Y110148D01*
X-61128Y110957D01*
X-61440Y111711D01*
X-61937Y112359D01*
X-62585Y112856D01*
X-63339Y113168D01*
X-64148Y113275D01*
D02*
G37*
G36*
X-74334Y126304D02*
X-75995Y126140D01*
X-77592Y125656D01*
X-79064Y124869D01*
X-80355Y123810D01*
X-81414Y122520D01*
X-82200Y121047D01*
X-82685Y119450D01*
X-82849Y117789D01*
X-82685Y116128D01*
X-82200Y114530D01*
X-81414Y113058D01*
X-80355Y111768D01*
X-79064Y110709D01*
X-77592Y109922D01*
X-75995Y109438D01*
X-74334Y109274D01*
X-72672Y109438D01*
X-71075Y109922D01*
X-69603Y110709D01*
X-68313Y111768D01*
X-67254Y113058D01*
X-66467Y114530D01*
X-65982Y116128D01*
X-65819Y117789D01*
X-65982Y119450D01*
X-66467Y121047D01*
X-67254Y122520D01*
X-68313Y123810D01*
X-69603Y124869D01*
X-71075Y125656D01*
X-72672Y126140D01*
X-74334Y126304D01*
D02*
G37*
G36*
X-12963Y144804D02*
X-14257Y144677D01*
X-15501Y144299D01*
X-16648Y143686D01*
X-17653Y142862D01*
X-18478Y141857D01*
X-19091Y140710D01*
X-19468Y139466D01*
X-19595Y138172D01*
X-19468Y136878D01*
X-19091Y135634D01*
X-18478Y134488D01*
X-17653Y133483D01*
X-16648Y132658D01*
X-15501Y132045D01*
X-14257Y131668D01*
X-12963Y131540D01*
X-11670Y131668D01*
X-10425Y132045D01*
X-9279Y132658D01*
X-8274Y133483D01*
X-7449Y134488D01*
X-6836Y135634D01*
X-6459Y136878D01*
X-6331Y138172D01*
X-6459Y139466D01*
X-6836Y140710D01*
X-7449Y141857D01*
X-8274Y142862D01*
X-9279Y143686D01*
X-10425Y144299D01*
X-11670Y144677D01*
X-12963Y144804D01*
D02*
G37*
G36*
X-187963D02*
X-189257Y144677D01*
X-190501Y144299D01*
X-191648Y143686D01*
X-192653Y142862D01*
X-193478Y141857D01*
X-194090Y140710D01*
X-194468Y139466D01*
X-194595Y138172D01*
X-194468Y136878D01*
X-194090Y135634D01*
X-193478Y134488D01*
X-192653Y133483D01*
X-191648Y132658D01*
X-190501Y132045D01*
X-189257Y131668D01*
X-187963Y131540D01*
X-186670Y131668D01*
X-185425Y132045D01*
X-184279Y132658D01*
X-183274Y133483D01*
X-182449Y134488D01*
X-181836Y135634D01*
X-181459Y136878D01*
X-181331Y138172D01*
X-181459Y139466D01*
X-181836Y140710D01*
X-182449Y141857D01*
X-183274Y142862D01*
X-184279Y143686D01*
X-185425Y144299D01*
X-186670Y144677D01*
X-187963Y144804D01*
D02*
G37*
G36*
X-146575Y141035D02*
X-148017Y140846D01*
X-149360Y140289D01*
X-150513Y139404D01*
X-151398Y138251D01*
X-151955Y136908D01*
X-152144Y135467D01*
X-151955Y134025D01*
X-151398Y132682D01*
X-150513Y131529D01*
X-149360Y130644D01*
X-148017Y130087D01*
X-146575Y129898D01*
X-145134Y130087D01*
X-143791Y130644D01*
X-142638Y131529D01*
X-141753Y132682D01*
X-141196Y134025D01*
X-141007Y135467D01*
X-141196Y136908D01*
X-141753Y138251D01*
X-142638Y139404D01*
X-143791Y140289D01*
X-145134Y140846D01*
X-146575Y141035D01*
D02*
G37*
G36*
X-136273Y104556D02*
X-140092Y100738D01*
X-136273Y96919D01*
X-135852Y97432D01*
X-135302Y98461D01*
X-134963Y99577D01*
X-134849Y100738D01*
X-134963Y101898D01*
X-135302Y103015D01*
X-135852Y104043D01*
X-136273Y104556D01*
D02*
G37*
G36*
X-90341Y107350D02*
X-91782Y107161D01*
X-93125Y106604D01*
X-94279Y105719D01*
X-95164Y104566D01*
X-95720Y103223D01*
X-95910Y101781D01*
X-95720Y100340D01*
X-95164Y98997D01*
X-94279Y97844D01*
X-93125Y96959D01*
X-91782Y96402D01*
X-91463Y96360D01*
Y81574D01*
X-91863Y81408D01*
X-92511Y80911D01*
X-93008Y80263D01*
X-93320Y79509D01*
X-93427Y78700D01*
X-93320Y77891D01*
X-93008Y77137D01*
X-92511Y76489D01*
X-91863Y75992D01*
X-91109Y75680D01*
X-90300Y75573D01*
X-89491Y75680D01*
X-88737Y75992D01*
X-88089Y76489D01*
X-87592Y77137D01*
X-87280Y77891D01*
X-87173Y78700D01*
X-87280Y79509D01*
X-87592Y80263D01*
X-88089Y80911D01*
X-88737Y81408D01*
X-89219Y81608D01*
Y96360D01*
X-88900Y96402D01*
X-87557Y96959D01*
X-86403Y97844D01*
X-85518Y98997D01*
X-84962Y100340D01*
X-84772Y101781D01*
X-84962Y103223D01*
X-85518Y104566D01*
X-86403Y105719D01*
X-87557Y106604D01*
X-88900Y107161D01*
X-90341Y107350D01*
D02*
G37*
G36*
X-80700Y105427D02*
X-81509Y105320D01*
X-82263Y105008D01*
X-82911Y104511D01*
X-83408Y103863D01*
X-83720Y103109D01*
X-83827Y102300D01*
X-83720Y101491D01*
X-83408Y100737D01*
X-82911Y100089D01*
X-82263Y99592D01*
X-81822Y99409D01*
Y74532D01*
X-82363Y74308D01*
X-83011Y73811D01*
X-83508Y73163D01*
X-83820Y72409D01*
X-83927Y71600D01*
X-83820Y70791D01*
X-83508Y70037D01*
X-83011Y69389D01*
X-82363Y68892D01*
X-81609Y68580D01*
X-80800Y68473D01*
X-79991Y68580D01*
X-79237Y68892D01*
X-78589Y69389D01*
X-78092Y70037D01*
X-77780Y70791D01*
X-77673Y71600D01*
X-77780Y72409D01*
X-78092Y73163D01*
X-78589Y73811D01*
X-79237Y74308D01*
X-79578Y74449D01*
Y99409D01*
X-79137Y99592D01*
X-78489Y100089D01*
X-77992Y100737D01*
X-77680Y101491D01*
X-77573Y102300D01*
X-77680Y103109D01*
X-77992Y103863D01*
X-78489Y104511D01*
X-79137Y105008D01*
X-79891Y105320D01*
X-80700Y105427D01*
D02*
G37*
G36*
X-36600Y93327D02*
X-37409Y93220D01*
X-38163Y92908D01*
X-38811Y92411D01*
X-39308Y91763D01*
X-39620Y91009D01*
X-39727Y90200D01*
X-39620Y89391D01*
X-39308Y88637D01*
X-38811Y87989D01*
X-38163Y87492D01*
X-37722Y87309D01*
Y73549D01*
X-38063Y73408D01*
X-38711Y72911D01*
X-39208Y72263D01*
X-39520Y71509D01*
X-39627Y70700D01*
X-39520Y69891D01*
X-39208Y69137D01*
X-38711Y68489D01*
X-38063Y67992D01*
X-37309Y67680D01*
X-36500Y67573D01*
X-35691Y67680D01*
X-34937Y67992D01*
X-34289Y68489D01*
X-33792Y69137D01*
X-33480Y69891D01*
X-33373Y70700D01*
X-33480Y71509D01*
X-33792Y72263D01*
X-34289Y72911D01*
X-34937Y73408D01*
X-35478Y73632D01*
Y87309D01*
X-35037Y87492D01*
X-34389Y87989D01*
X-33892Y88637D01*
X-33580Y89391D01*
X-33473Y90200D01*
X-33580Y91009D01*
X-33892Y91763D01*
X-34389Y92411D01*
X-35037Y92908D01*
X-35791Y93220D01*
X-36600Y93327D01*
D02*
G37*
G36*
X-52480Y95797D02*
X-53922Y95608D01*
X-55265Y95051D01*
X-56418Y94166D01*
X-57303Y93013D01*
X-57859Y91670D01*
X-58049Y90228D01*
X-57859Y88787D01*
X-57303Y87444D01*
X-56418Y86291D01*
X-55265Y85406D01*
X-53922Y84849D01*
X-52480Y84659D01*
X-51039Y84849D01*
X-49696Y85406D01*
X-48542Y86291D01*
X-47657Y87444D01*
X-47101Y88787D01*
X-46911Y90228D01*
X-47101Y91670D01*
X-47657Y93013D01*
X-48542Y94166D01*
X-49696Y95051D01*
X-51039Y95608D01*
X-52480Y95797D01*
D02*
G37*
G36*
X-145325Y104556D02*
X-145746Y104043D01*
X-146296Y103015D01*
X-146634Y101898D01*
X-146749Y100738D01*
X-146634Y99577D01*
X-146296Y98461D01*
X-145746Y97432D01*
X-145325Y96919D01*
X-141506Y100738D01*
X-145325Y104556D01*
D02*
G37*
G36*
X-140799Y100031D02*
X-144618Y96212D01*
X-144105Y95790D01*
X-143076Y95241D01*
X-141960Y94902D01*
X-140799Y94788D01*
X-139638Y94902D01*
X-138522Y95241D01*
X-137493Y95790D01*
X-136980Y96212D01*
X-140799Y100031D01*
D02*
G37*
G36*
X-128620Y92340D02*
X-129598Y92211D01*
X-130510Y91833D01*
X-131294Y91232D01*
X-131895Y90449D01*
X-132273Y89537D01*
X-132401Y88558D01*
X-132273Y87579D01*
X-131895Y86667D01*
X-131294Y85884D01*
X-130510Y85283D01*
X-129598Y84905D01*
X-128620Y84776D01*
X-127641Y84905D01*
X-126728Y85283D01*
X-125945Y85884D01*
X-125344Y86667D01*
X-124966Y87579D01*
X-124838Y88558D01*
X-124966Y89537D01*
X-125344Y90449D01*
X-125945Y91232D01*
X-126728Y91833D01*
X-127641Y92211D01*
X-128620Y92340D01*
D02*
G37*
%LPD*%
D10*
X-29500Y51300D02*
Y94300D01*
X-29400Y94400D01*
X-36600Y70800D02*
Y90200D01*
Y70800D02*
X-36500Y70700D01*
X-80700Y71700D02*
Y102300D01*
X-80800Y71600D02*
X-80700Y71700D01*
X-90341Y78741D02*
Y101781D01*
Y78741D02*
X-90300Y78700D01*
X-22100Y16500D02*
X-21600D01*
Y78600D01*
X-179704Y38296D02*
Y61833D01*
X-180000Y38000D02*
X-179704Y38296D01*
X-45000Y63000D02*
Y135500D01*
X-64148Y101852D02*
Y110148D01*
X-69000Y97000D02*
X-64148Y101852D01*
X-108000Y25500D02*
Y58500D01*
X-111500Y62000D02*
Y95500D01*
Y62000D02*
X-108000Y58500D01*
D11*
X-85608Y16595D02*
D03*
X-146575Y135467D02*
D03*
X-120477Y71646D02*
D03*
X-91385Y51324D02*
D03*
X-140799Y100738D02*
D03*
X-90341Y101781D02*
D03*
X-128898Y12697D02*
D03*
X-52480Y90228D02*
D03*
X-179704Y61833D02*
D03*
D12*
X-29500Y51300D02*
D03*
X-29400Y94400D02*
D03*
X-36600Y90200D02*
D03*
X-36500Y70700D02*
D03*
X-80700Y102300D02*
D03*
X-80800Y71600D02*
D03*
X-90300Y78700D02*
D03*
X-22100Y16500D02*
D03*
X-21600Y78600D02*
D03*
X-180000Y38000D02*
D03*
X-45000Y135500D02*
D03*
Y63000D02*
D03*
X-64148Y110148D02*
D03*
X-69000Y97000D02*
D03*
X-108000Y25500D02*
D03*
Y58500D02*
D03*
X-111500Y95500D02*
D03*
M02*
