G04 Layer_Color=2752767*
%FSLAX25Y25*%
%MOIN*%
G70*
G01*
G75*
%ADD60C,0.00500*%
%ADD107C,0.00667*%
D60*
X35600Y204500D02*
Y208500D01*
X39600D01*
Y204500D01*
X35600D01*
X215600D02*
Y208500D01*
X219600D01*
Y204500D01*
X215600D01*
X28500Y74000D02*
X26500Y78000D01*
X30500D01*
X28500Y74000D01*
Y54000D02*
X26500Y58000D01*
X30500D01*
X28500Y54000D01*
Y64000D02*
X26500Y68000D01*
X30500D01*
X28500Y64000D01*
Y44000D02*
X26500Y48000D01*
X30500D01*
X28500Y44000D01*
X201300Y14085D02*
X199300Y18085D01*
X203300D01*
X201300Y14085D01*
X206300Y51022D02*
X207300Y52022D01*
X208300D01*
X207300Y53022D01*
X208300Y54022D01*
X207300D01*
X206300Y55022D01*
X205300Y54022D01*
X204300D01*
X205300Y53022D01*
X204300Y52022D01*
X205300D01*
X206300Y51022D01*
X204300Y27400D02*
X205300Y29400D01*
X204300Y31400D01*
X206300Y30400D01*
X208300Y31400D01*
X207300Y29400D01*
X208300Y27400D01*
X206300Y28400D01*
X204300Y27400D01*
X211300Y14085D02*
X209300Y18085D01*
X213300D01*
X211300Y14085D01*
X222804Y39211D02*
X223804Y41211D01*
X222804Y43211D01*
X224804Y42211D01*
X226804Y43211D01*
X225804Y41211D01*
X226804Y39211D01*
X224804Y40211D01*
X222804Y39211D01*
X243500Y54126D02*
Y53126D01*
X245500D01*
Y54126D01*
X246500D01*
Y56126D01*
X245500D01*
Y57126D01*
X243500D01*
Y56126D01*
X242500D01*
Y54126D01*
X243500D01*
Y62000D02*
Y61000D01*
X245500D01*
Y62000D01*
X246500D01*
Y64000D01*
X245500D01*
Y65000D01*
X243500D01*
Y64000D01*
X242500D01*
Y62000D01*
X243500D01*
X11327Y204557D02*
X12327D01*
X13327Y205557D01*
X14327Y204557D01*
X15327D01*
Y205557D01*
X14327Y206557D01*
X15327Y207557D01*
Y208557D01*
X14327D01*
X13327Y207557D01*
X12327Y208557D01*
X11327D01*
Y207557D01*
X12327Y206557D01*
X11327Y205557D01*
Y204557D01*
X239673D02*
X240673D01*
X241673Y205557D01*
X242673Y204557D01*
X243673D01*
Y205557D01*
X242673Y206557D01*
X243673Y207557D01*
Y208557D01*
X242673D01*
X241673Y207557D01*
X240673Y208557D01*
X239673D01*
Y207557D01*
X240673Y206557D01*
X239673Y205557D01*
Y204557D01*
Y11643D02*
X240673D01*
X241673Y12643D01*
X242673Y11643D01*
X243673D01*
Y12643D01*
X242673Y13643D01*
X243673Y14643D01*
Y15643D01*
X242673D01*
X241673Y14643D01*
X240673Y15643D01*
X239673D01*
Y14643D01*
X240673Y13643D01*
X239673Y12643D01*
Y11643D01*
X11327D02*
X12327D01*
X13327Y12643D01*
X14327Y11643D01*
X15327D01*
Y12643D01*
X14327Y13643D01*
X15327Y14643D01*
Y15643D01*
X14327D01*
X13327Y14643D01*
X12327Y15643D01*
X11327D01*
Y14643D01*
X12327Y13643D01*
X11327Y12643D01*
Y11643D01*
X135500Y217500D02*
X137500Y219500D01*
X139500Y217500D01*
X137500Y215500D01*
X135500Y217500D01*
Y206500D02*
X137500Y208500D01*
X139500Y206500D01*
X137500Y204500D01*
X135500Y206500D01*
X115500Y209000D02*
X117500Y211000D01*
X119500Y209000D01*
X117500Y207000D01*
X115500Y209000D01*
Y217500D02*
X117500Y219500D01*
X119500Y217500D01*
X117500Y215500D01*
X115500Y217500D01*
X54000Y208000D02*
X56000Y210000D01*
X58000Y208000D01*
X56000Y206000D01*
X54000Y208000D01*
X57000Y206500D02*
X59000Y208500D01*
X61000Y206500D01*
X59000Y204500D01*
X57000Y206500D01*
X203000Y99500D02*
X205000Y101500D01*
X207000Y99500D01*
X205000Y97500D01*
X203000Y99500D01*
X62500Y111500D02*
X64500Y113500D01*
X66500Y111500D01*
X64500Y109500D01*
X62500Y111500D01*
X197500Y110000D02*
X199500Y112000D01*
X201500Y110000D01*
X199500Y108000D01*
X197500Y110000D01*
X198500Y205500D02*
X200500Y207500D01*
X202500Y205500D01*
X200500Y203500D01*
X198500Y205500D01*
X205500Y206500D02*
X207500Y208500D01*
X209500Y206500D01*
X207500Y204500D01*
X205500Y206500D01*
X58000Y98000D02*
X60000Y100000D01*
X62000Y98000D01*
X60000Y96000D01*
X58000Y98000D01*
X53000Y95500D02*
X55000Y97500D01*
X57000Y95500D01*
X55000Y93500D01*
X53000Y95500D01*
X210500Y190000D02*
X212500Y192000D01*
X214500Y190000D01*
X212500Y188000D01*
X210500Y190000D01*
X176000Y213000D02*
X178000Y215000D01*
X180000Y213000D01*
X178000Y211000D01*
X176000Y213000D01*
X196000Y217500D02*
X198000Y219500D01*
X200000Y217500D01*
X198000Y215500D01*
X196000Y217500D01*
X185000D02*
X187000Y219500D01*
X189000Y217500D01*
X187000Y215500D01*
X185000Y217500D01*
X145500D02*
X147500Y219500D01*
X149500Y217500D01*
X147500Y215500D01*
X145500Y217500D01*
X105000D02*
X107000Y219500D01*
X109000Y217500D01*
X107000Y215500D01*
X105000Y217500D01*
X85000D02*
X87000Y219500D01*
X89000Y217500D01*
X87000Y215500D01*
X85000Y217500D01*
X74500D02*
X76500Y219500D01*
X78500Y217500D01*
X76500Y215500D01*
X74500Y217500D01*
X65500D02*
X67500Y219500D01*
X69500Y217500D01*
X67500Y215500D01*
X65500Y217500D01*
X100000Y190500D02*
X102000Y192500D01*
X104000Y190500D01*
X102000Y188500D01*
X100000Y190500D01*
X103000D02*
X105000Y192500D01*
X107000Y190500D01*
X105000Y188500D01*
X103000Y190500D01*
X100500Y178000D02*
X102500Y180000D01*
X104500Y178000D01*
X102500Y176000D01*
X100500Y178000D01*
X48000Y180500D02*
X50000Y182500D01*
X52000Y180500D01*
X50000Y178500D01*
X48000Y180500D01*
X105500D02*
X107500Y182500D01*
X109500Y180500D01*
X107500Y178500D01*
X105500Y180500D01*
X16500Y177500D02*
Y181500D01*
X20500D01*
Y177500D01*
X16500D01*
X17300Y178300D02*
Y180700D01*
X19700D01*
Y178300D01*
X17300D01*
X30500Y190000D02*
X32500Y192000D01*
X34500Y190000D01*
X32500Y188000D01*
X30500Y190000D01*
X101500Y145000D02*
X103500Y147000D01*
X105500Y145000D01*
X103500Y143000D01*
X101500Y145000D01*
X60500D02*
X62500Y147000D01*
X64500Y145000D01*
X62500Y143000D01*
X60500Y145000D01*
Y187500D02*
X62500Y189500D01*
X64500Y187500D01*
X62500Y185500D01*
X60500Y187500D01*
X103500Y142500D02*
X105500Y144500D01*
X107500Y142500D01*
X105500Y140500D01*
X103500Y142500D01*
X170500D02*
X172500Y144500D01*
X174500Y142500D01*
X172500Y140500D01*
X170500Y142500D01*
Y190000D02*
X172500Y192000D01*
X174500Y190000D01*
X172500Y188000D01*
X170500Y190000D01*
X105500Y139500D02*
X107500Y141500D01*
X109500Y139500D01*
X107500Y137500D01*
X105500Y139500D01*
X180500D02*
X182500Y141500D01*
X184500Y139500D01*
X182500Y137500D01*
X180500Y139500D01*
Y190000D02*
X182500Y192000D01*
X184500Y190000D01*
X182500Y188000D01*
X180500Y190000D01*
X108000Y135000D02*
X110000Y137000D01*
X112000Y135000D01*
X110000Y133000D01*
X108000Y135000D01*
X175500D02*
X177500Y137000D01*
X179500Y135000D01*
X177500Y133000D01*
X175500Y135000D01*
X111500Y132500D02*
X113500Y134500D01*
X115500Y132500D01*
X113500Y130500D01*
X111500Y132500D01*
X168000Y132000D02*
X170000Y134000D01*
X172000Y132000D01*
X170000Y130000D01*
X168000Y132000D01*
Y185000D02*
X170000Y187000D01*
X172000Y185000D01*
X170000Y183000D01*
X168000Y185000D01*
X145500D02*
X147500Y187000D01*
X149500Y185000D01*
X147500Y183000D01*
X145500Y185000D01*
X113500Y130000D02*
X115500Y132000D01*
X117500Y130000D01*
X115500Y128000D01*
X113500Y130000D01*
X83000Y130500D02*
X85000Y132500D01*
X87000Y130500D01*
X85000Y128500D01*
X83000Y130500D01*
X130500Y190000D02*
X132500Y192000D01*
X134500Y190000D01*
X132500Y188000D01*
X130500Y190000D01*
X115500Y127500D02*
X117500Y129500D01*
X119500Y127500D01*
X117500Y125500D01*
X115500Y127500D01*
X78000D02*
X80000Y129500D01*
X82000Y127500D01*
X80000Y125500D01*
X78000Y127500D01*
Y188000D02*
X80000Y190000D01*
X82000Y188000D01*
X80000Y186000D01*
X78000Y188000D01*
X117500Y122500D02*
X119500Y124500D01*
X121500Y122500D01*
X119500Y120500D01*
X117500Y122500D01*
X73000D02*
X75000Y124500D01*
X77000Y122500D01*
X75000Y120500D01*
X73000Y122500D01*
Y185000D02*
X75000Y187000D01*
X77000Y185000D01*
X75000Y183000D01*
X73000Y185000D01*
X83000Y183000D02*
X85000Y185000D01*
X87000Y183000D01*
X85000Y181000D01*
X83000Y183000D01*
X130500Y183500D02*
X132500Y185500D01*
X134500Y183500D01*
X132500Y181500D01*
X130500Y183500D01*
X121500Y119500D02*
X123500Y121500D01*
X125500Y119500D01*
X123500Y117500D01*
X121500Y119500D01*
X185500D02*
X187500Y121500D01*
X189500Y119500D01*
X187500Y117500D01*
X185500Y119500D01*
X124000Y122500D02*
X126000Y124500D01*
X128000Y122500D01*
X126000Y120500D01*
X124000Y122500D01*
X190500D02*
X192500Y124500D01*
X194500Y122500D01*
X192500Y120500D01*
X190500Y122500D01*
Y190000D02*
X192500Y192000D01*
X194500Y190000D01*
X192500Y188000D01*
X190500Y190000D01*
X126000Y125000D02*
X128000Y127000D01*
X130000Y125000D01*
X128000Y123000D01*
X126000Y125000D01*
X65500D02*
X67500Y127000D01*
X69500Y125000D01*
X67500Y123000D01*
X65500Y125000D01*
X128000Y117000D02*
X130000Y119000D01*
X132000Y117000D01*
X130000Y115000D01*
X128000Y117000D01*
X69000D02*
X71000Y119000D01*
X73000Y117000D01*
X71000Y115000D01*
X69000Y117000D01*
X131500Y115000D02*
X133500Y117000D01*
X135500Y115000D01*
X133500Y113000D01*
X131500Y115000D01*
X195500Y115500D02*
X197500Y117500D01*
X199500Y115500D01*
X197500Y113500D01*
X195500Y115500D01*
X133500Y110000D02*
X135500Y112000D01*
X137500Y110000D01*
X135500Y108000D01*
X133500Y110000D01*
X80500D02*
X82500Y112000D01*
X84500Y110000D01*
X82500Y108000D01*
X80500Y110000D01*
Y190500D02*
X82500Y192500D01*
X84500Y190500D01*
X82500Y188500D01*
X80500Y190500D01*
X135500Y107500D02*
X137500Y109500D01*
X139500Y107500D01*
X137500Y105500D01*
X135500Y107500D01*
X75500Y107000D02*
X77500Y109000D01*
X79500Y107000D01*
X77500Y105000D01*
X75500Y107000D01*
X137500Y105000D02*
X139500Y107000D01*
X141500Y105000D01*
X139500Y103000D01*
X137500Y105000D01*
X200500D02*
X202500Y107000D01*
X204500Y105000D01*
X202500Y103000D01*
X200500Y105000D01*
Y190000D02*
X202500Y192000D01*
X204500Y190000D01*
X202500Y188000D01*
X200500Y190000D01*
X149000Y124500D02*
X151000Y126500D01*
X153000Y124500D01*
X151000Y122500D01*
X149000Y124500D01*
X160500D02*
X162500Y126500D01*
X164500Y124500D01*
X162500Y122500D01*
X160500Y124500D01*
Y190000D02*
X162500Y192000D01*
X164500Y190000D01*
X162500Y188000D01*
X160500Y190000D01*
X155500Y217500D02*
X157500Y219500D01*
X159500Y217500D01*
X157500Y215500D01*
X155500Y217500D01*
Y162000D02*
X157500Y164000D01*
X159500Y162000D01*
X157500Y160000D01*
X155500Y162000D01*
X156000Y158500D02*
X158000Y160500D01*
X160000Y158500D01*
X158000Y156500D01*
X156000Y158500D01*
X143000Y157500D02*
X145000Y159500D01*
X147000Y157500D01*
X145000Y155500D01*
X143000Y157500D01*
X97500D02*
X99500Y159500D01*
X101500Y157500D01*
X99500Y155500D01*
X97500Y157500D01*
X237800Y158500D02*
X239800Y160500D01*
X241800Y158500D01*
X239800Y156500D01*
X237800Y158500D01*
X216500Y162000D02*
X218500Y164000D01*
X220500Y162000D01*
X218500Y160000D01*
X216500Y162000D01*
X190700Y107400D02*
X192700Y109400D01*
X194700Y107400D01*
X192700Y105400D01*
X190700Y107400D01*
X90500Y190500D02*
X92500Y192500D01*
X94500Y190500D01*
X92500Y188500D01*
X90500Y190500D01*
X190700Y102900D02*
X192700Y104900D01*
X194700Y102900D01*
X192700Y100900D01*
X190700Y102900D01*
X85500Y103100D02*
X87500Y105100D01*
X89500Y103100D01*
X87500Y101100D01*
X85500Y103100D01*
X205500Y95000D02*
X207500Y97000D01*
X209500Y95000D01*
X207500Y93000D01*
X205500Y95000D01*
X234200Y107400D02*
X236200Y109400D01*
X238200Y107400D01*
X236200Y105400D01*
X234200Y107400D01*
X51000Y177500D02*
X53000Y179500D01*
X55000Y177500D01*
X53000Y175500D01*
X51000Y177500D01*
X145500Y52000D02*
X147500Y54000D01*
X149500Y52000D01*
X147500Y50000D01*
X145500Y52000D01*
X141500D02*
X143500Y54000D01*
X145500Y52000D01*
X143500Y50000D01*
X141500Y52000D01*
X149500D02*
X151500Y54000D01*
X153500Y52000D01*
X151500Y50000D01*
X149500Y52000D01*
X153500D02*
X155500Y54000D01*
X157500Y52000D01*
X155500Y50000D01*
X153500Y52000D01*
X157500D02*
X159500Y54000D01*
X161500Y52000D01*
X159500Y50000D01*
X157500Y52000D01*
X161500D02*
X163500Y54000D01*
X165500Y52000D01*
X163500Y50000D01*
X161500Y52000D01*
X165500D02*
X167500Y54000D01*
X169500Y52000D01*
X167500Y50000D01*
X165500Y52000D01*
X141500Y48000D02*
X143500Y50000D01*
X145500Y48000D01*
X143500Y46000D01*
X141500Y48000D01*
X145500D02*
X147500Y50000D01*
X149500Y48000D01*
X147500Y46000D01*
X145500Y48000D01*
X149500D02*
X151500Y50000D01*
X153500Y48000D01*
X151500Y46000D01*
X149500Y48000D01*
X153500D02*
X155500Y50000D01*
X157500Y48000D01*
X155500Y46000D01*
X153500Y48000D01*
X157500D02*
X159500Y50000D01*
X161500Y48000D01*
X159500Y46000D01*
X157500Y48000D01*
X161500D02*
X163500Y50000D01*
X165500Y48000D01*
X163500Y46000D01*
X161500Y48000D01*
X165500D02*
X167500Y50000D01*
X169500Y48000D01*
X167500Y46000D01*
X165500Y48000D01*
X141500Y44000D02*
X143500Y46000D01*
X145500Y44000D01*
X143500Y42000D01*
X141500Y44000D01*
X145500D02*
X147500Y46000D01*
X149500Y44000D01*
X147500Y42000D01*
X145500Y44000D01*
X149500D02*
X151500Y46000D01*
X153500Y44000D01*
X151500Y42000D01*
X149500Y44000D01*
X141500Y28000D02*
X143500Y30000D01*
X145500Y28000D01*
X143500Y26000D01*
X141500Y28000D01*
X145500D02*
X147500Y30000D01*
X149500Y28000D01*
X147500Y26000D01*
X145500Y28000D01*
X149500D02*
X151500Y30000D01*
X153500Y28000D01*
X151500Y26000D01*
X149500Y28000D01*
X131500Y24000D02*
X133500Y26000D01*
X135500Y24000D01*
X133500Y22000D01*
X131500Y24000D01*
X135500D02*
X137500Y26000D01*
X139500Y24000D01*
X137500Y22000D01*
X135500Y24000D01*
X139500D02*
X141500Y26000D01*
X143500Y24000D01*
X141500Y22000D01*
X139500Y24000D01*
X143500D02*
X145500Y26000D01*
X147500Y24000D01*
X145500Y22000D01*
X143500Y24000D01*
X147500D02*
X149500Y26000D01*
X151500Y24000D01*
X149500Y22000D01*
X147500Y24000D01*
X151500D02*
X153500Y26000D01*
X155500Y24000D01*
X153500Y22000D01*
X151500Y24000D01*
X155500D02*
X157500Y26000D01*
X159500Y24000D01*
X157500Y22000D01*
X155500Y24000D01*
X16500Y172000D02*
Y176000D01*
X20500D01*
Y172000D01*
X16500D01*
X17300Y172800D02*
Y175200D01*
X19700D01*
Y172800D01*
X17300D01*
X38000Y166000D02*
X40000Y168000D01*
X42000Y166000D01*
X40000Y164000D01*
X38000Y166000D01*
D107*
X151706Y41506D02*
G03*
X151706Y41506I-2000J0D01*
G01*
X149206D02*
G03*
X149206Y41506I-2000J0D01*
G01*
X151706Y39007D02*
G03*
X151706Y39007I-2000J0D01*
G01*
X149206D02*
G03*
X149206Y39007I-2000J0D01*
G01*
X151706Y36507D02*
G03*
X151706Y36507I-2000J0D01*
G01*
X149206D02*
G03*
X149206Y36507I-2000J0D01*
G01*
X151706Y34007D02*
G03*
X151706Y34007I-2000J0D01*
G01*
X149206D02*
G03*
X149206Y34007I-2000J0D01*
G01*
X151706Y31506D02*
G03*
X151706Y31506I-2000J0D01*
G01*
X149206D02*
G03*
X149206Y31506I-2000J0D01*
G01*
X146706Y41506D02*
G03*
X146706Y41506I-2000J0D01*
G01*
Y36507D02*
G03*
X146706Y36507I-2000J0D01*
G01*
Y39007D02*
G03*
X146706Y39007I-2000J0D01*
G01*
Y31506D02*
G03*
X146706Y31506I-2000J0D01*
G01*
Y34007D02*
G03*
X146706Y34007I-2000J0D01*
G01*
M02*
