G04 Layer_Color=8388736*
%FSLAX25Y25*%
%MOIN*%
G70*
G01*
G75*
G04:AMPARAMS|DCode=69|XSize=39.5mil|YSize=39.5mil|CornerRadius=7.94mil|HoleSize=0mil|Usage=FLASHONLY|Rotation=90.000|XOffset=0mil|YOffset=0mil|HoleType=Round|Shape=RoundedRectangle|*
%AMROUNDEDRECTD69*
21,1,0.03950,0.02362,0,0,90.0*
21,1,0.02362,0.03950,0,0,90.0*
1,1,0.01587,0.01181,0.01181*
1,1,0.01587,0.01181,-0.01181*
1,1,0.01587,-0.01181,-0.01181*
1,1,0.01587,-0.01181,0.01181*
%
%ADD69ROUNDEDRECTD69*%
%ADD70R,0.09500X0.03200*%
%ADD71R,0.08674X0.12611*%
G04:AMPARAMS|DCode=72|XSize=145.79mil|YSize=63.12mil|CornerRadius=10.89mil|HoleSize=0mil|Usage=FLASHONLY|Rotation=90.000|XOffset=0mil|YOffset=0mil|HoleType=Round|Shape=RoundedRectangle|*
%AMROUNDEDRECTD72*
21,1,0.14579,0.04134,0,0,90.0*
21,1,0.12402,0.06312,0,0,90.0*
1,1,0.02178,0.02067,0.06201*
1,1,0.02178,0.02067,-0.06201*
1,1,0.02178,-0.02067,-0.06201*
1,1,0.02178,-0.02067,0.06201*
%
%ADD72ROUNDEDRECTD72*%
%ADD73R,0.20091X0.09068*%
G04:AMPARAMS|DCode=74|XSize=104.46mil|YSize=108.39mil|CornerRadius=13.65mil|HoleSize=0mil|Usage=FLASHONLY|Rotation=180.000|XOffset=0mil|YOffset=0mil|HoleType=Round|Shape=RoundedRectangle|*
%AMROUNDEDRECTD74*
21,1,0.10446,0.08110,0,0,180.0*
21,1,0.07717,0.10839,0,0,180.0*
1,1,0.02729,-0.03858,0.04055*
1,1,0.02729,0.03858,0.04055*
1,1,0.02729,0.03858,-0.04055*
1,1,0.02729,-0.03858,-0.04055*
%
%ADD74ROUNDEDRECTD74*%
%ADD75R,0.11036X0.13398*%
%ADD76R,0.08674X0.08674*%
G04:AMPARAMS|DCode=77|XSize=106.42mil|YSize=137.92mil|CornerRadius=16.3mil|HoleSize=0mil|Usage=FLASHONLY|Rotation=180.000|XOffset=0mil|YOffset=0mil|HoleType=Round|Shape=RoundedRectangle|*
%AMROUNDEDRECTD77*
21,1,0.10642,0.10531,0,0,180.0*
21,1,0.07382,0.13792,0,0,180.0*
1,1,0.03261,-0.03691,0.05266*
1,1,0.03261,0.03691,0.05266*
1,1,0.03261,0.03691,-0.05266*
1,1,0.03261,-0.03691,-0.05266*
%
%ADD77ROUNDEDRECTD77*%
%ADD78R,0.03300X0.03162*%
%ADD79R,0.02800X0.03300*%
%ADD80R,0.01981X0.01981*%
%ADD81R,0.01784X0.03950*%
%ADD82R,0.10249X0.10249*%
%ADD83R,0.05131X0.03162*%
%ADD84R,0.03162X0.03300*%
%ADD85R,0.01981X0.03556*%
%ADD86R,0.07099X0.04737*%
%ADD87R,0.05524X0.06706*%
%ADD88R,0.14186X0.06706*%
%ADD89R,0.14186X0.04737*%
%ADD90R,0.06706X0.05524*%
%ADD91R,0.03300X0.02800*%
%ADD92R,0.02800X0.04800*%
%ADD93C,0.03950*%
%ADD94R,0.03200X0.03200*%
%ADD95C,0.07800*%
%ADD96C,0.07200*%
%ADD97O,0.18300X0.08300*%
%ADD98O,0.16800X0.08300*%
%ADD99R,0.07200X0.07200*%
%ADD100O,0.08300X0.16800*%
%ADD101C,0.06706*%
%ADD102R,0.06706X0.06706*%
%ADD103C,0.25210*%
%ADD104C,0.04800*%
D69*
X181300Y10453D02*
D03*
Y17146D02*
D03*
D70*
X157497Y44087D02*
D03*
Y39087D02*
D03*
Y34087D02*
D03*
Y29087D02*
D03*
X136567Y44087D02*
D03*
Y39087D02*
D03*
Y34087D02*
D03*
Y29087D02*
D03*
D71*
X147197Y36497D02*
D03*
D72*
X180229Y67700D02*
D03*
X196371D02*
D03*
D73*
X220000Y85807D02*
D03*
Y99193D02*
D03*
X241800Y85807D02*
D03*
Y99193D02*
D03*
D74*
X53200Y54391D02*
D03*
Y78210D02*
D03*
D75*
X71699Y44994D02*
D03*
X115400Y44600D02*
D03*
D76*
X179700Y30900D02*
D03*
Y47400D02*
D03*
X53030Y24758D02*
D03*
Y41258D02*
D03*
D77*
X157986Y66800D02*
D03*
X131214D02*
D03*
D78*
X160100Y18000D02*
D03*
X164100D02*
D03*
X131200Y18400D02*
D03*
X135200D02*
D03*
X148800Y18100D02*
D03*
X152800D02*
D03*
X170290Y17770D02*
D03*
X174290D02*
D03*
D79*
X93000Y153500D02*
D03*
Y157500D02*
D03*
X236200Y129800D02*
D03*
Y133800D02*
D03*
X250500Y129800D02*
D03*
Y133800D02*
D03*
X125300Y28900D02*
D03*
Y32900D02*
D03*
X125300Y18300D02*
D03*
Y22300D02*
D03*
D80*
X103547Y150327D02*
D03*
Y153673D02*
D03*
X105516Y150327D02*
D03*
X107484D02*
D03*
Y153673D02*
D03*
X105516D02*
D03*
X109453Y150327D02*
D03*
Y153673D02*
D03*
X133547Y150327D02*
D03*
Y153673D02*
D03*
X135516Y150327D02*
D03*
X137484D02*
D03*
Y153673D02*
D03*
X135516D02*
D03*
X139453Y150327D02*
D03*
Y153673D02*
D03*
X113547Y150327D02*
D03*
Y153673D02*
D03*
X115516Y150327D02*
D03*
X117484D02*
D03*
Y153673D02*
D03*
X115516D02*
D03*
X119453Y150327D02*
D03*
Y153673D02*
D03*
X123547Y150327D02*
D03*
Y153673D02*
D03*
X125516Y150327D02*
D03*
X127484D02*
D03*
Y153673D02*
D03*
X125516D02*
D03*
X129453Y150327D02*
D03*
Y153673D02*
D03*
X150547Y150327D02*
D03*
Y153673D02*
D03*
X152516Y150327D02*
D03*
X154484D02*
D03*
Y153673D02*
D03*
X152516D02*
D03*
X156453Y150327D02*
D03*
Y153673D02*
D03*
D81*
X105420Y165227D02*
D03*
X107388D02*
D03*
X99514D02*
D03*
X103451D02*
D03*
X101483D02*
D03*
X121168D02*
D03*
X123136D02*
D03*
X109357D02*
D03*
X119199D02*
D03*
X111325D02*
D03*
X113294D02*
D03*
X115262D02*
D03*
X117231D02*
D03*
X131010D02*
D03*
X132979D02*
D03*
X125105D02*
D03*
X129042D02*
D03*
X127073D02*
D03*
X140853D02*
D03*
X142821D02*
D03*
X134947D02*
D03*
X138884D02*
D03*
X136916D02*
D03*
X150695D02*
D03*
X152664D02*
D03*
X144790D02*
D03*
X148727D02*
D03*
X146758D02*
D03*
X154632D02*
D03*
X156601D02*
D03*
D82*
X91800Y176200D02*
D03*
X164363D02*
D03*
D83*
X213676Y137460D02*
D03*
Y141200D02*
D03*
Y144940D02*
D03*
X223124Y141200D02*
D03*
Y137460D02*
D03*
Y144940D02*
D03*
D84*
X243500Y129800D02*
D03*
Y133800D02*
D03*
X40000Y56000D02*
D03*
Y60000D02*
D03*
Y66000D02*
D03*
Y70000D02*
D03*
D85*
X233641Y113369D02*
D03*
Y122031D02*
D03*
X236200D02*
D03*
Y113369D02*
D03*
X238759D02*
D03*
Y122031D02*
D03*
D86*
X236200Y117700D02*
D03*
D87*
X218356Y154900D02*
D03*
X225443D02*
D03*
X218856Y126700D02*
D03*
X225943D02*
D03*
D88*
X7059Y86079D02*
D03*
Y174661D02*
D03*
D89*
X29563Y134622D02*
D03*
Y142496D02*
D03*
X29500Y166000D02*
D03*
X29563Y111000D02*
D03*
Y95252D02*
D03*
Y103126D02*
D03*
Y150370D02*
D03*
Y158244D02*
D03*
Y118874D02*
D03*
Y126748D02*
D03*
D90*
X250400Y114257D02*
D03*
Y121344D02*
D03*
D91*
X32500Y185100D02*
D03*
X36500D02*
D03*
D92*
X150500Y139500D02*
D03*
X154200Y128500D02*
D03*
X158000Y128500D02*
D03*
X150500D02*
D03*
X158000Y139500D02*
D03*
X154240Y139441D02*
D03*
D93*
X37600Y206500D02*
D03*
X217600D02*
D03*
D94*
X149706Y41506D02*
D03*
X147206D02*
D03*
X149706Y39007D02*
D03*
X147206D02*
D03*
X149706Y36507D02*
D03*
X147206D02*
D03*
X149706Y34007D02*
D03*
X147206D02*
D03*
X149706Y31506D02*
D03*
X147206D02*
D03*
X144706Y41506D02*
D03*
Y36507D02*
D03*
Y39007D02*
D03*
Y31506D02*
D03*
Y34007D02*
D03*
D95*
X28500Y76000D02*
D03*
Y56000D02*
D03*
Y66000D02*
D03*
Y46000D02*
D03*
D96*
X201300Y16085D02*
D03*
D97*
X206300Y53022D02*
D03*
D98*
Y29400D02*
D03*
D99*
X211300Y16085D02*
D03*
D100*
X224804Y41211D02*
D03*
D101*
X244500Y55126D02*
D03*
D102*
Y63000D02*
D03*
D103*
X13327Y206557D02*
D03*
X241673D02*
D03*
Y13643D02*
D03*
X13327D02*
D03*
D104*
X18500Y179500D02*
D03*
Y174000D02*
D03*
M02*
