M48
;Layer_Color=9474304
;FILE_FORMAT=2:5
INCH,LZ
;TYPE=PLATED
T1F00S00C0.01300
T2F00S00C0.01600
T3F00S00C0.02400
T4F00S00C0.02953
T5F00S00C0.04000
T6F00S00C0.04331
T8F00S00C0.11811
%
T01
X01335Y0024
X01375
X01415
X01455
X01495
X01535
X01575
X01515Y0028
X01475
X01435
Y0044
X01475
X01515
Y0048
X01555
X01595
X01635
X01675
Y0052
X01635
X01595
X01555
X01515
X01475
Y0048
X01435
Y0052
X02362Y01074
X02398Y01585
X02185Y0162
X02125Y019
X02025
X01925
X01825
X01725
X017Y0185
X01625Y019
X01475Y0185
X01325Y01835
Y019
X01375Y02065
X01175Y0209
X0105Y01905
X0102
X00925
X00825
X008Y0188
X0075Y0185
X0085Y0183
X01025Y0178
X01075Y01805
X00995Y01575
X01035Y0145
X01055Y01425
X01075Y01395
X011Y0135
X01135Y01325
X01155Y013
X01175Y01275
X01195Y01225
X0126
X0128Y0125
X013Y0117
X01335Y0115
X01355Y011
X01375Y01075
X01395Y0105
X01235Y01195
X0151Y01245
X01625
X017Y0132
X01775Y0135
X01825Y01395
X01725Y01425
X0158Y01585
X01575Y0162
X0145Y01575
X01875Y01195
X01925Y01225
X01975Y01155
X01995Y011
X02025Y0105
X0205Y00995
X02075Y0095
X01927Y01029
Y01074
X02005Y02055
X02075Y02065
X0059
X0056Y0208
X00625Y01875
Y0145
X00675Y0125
X0075Y01225
X0071Y0117
X00645Y01115
X00775Y0107
X00825Y011
X00875Y01031
X0085Y01305
X008Y01275
X006Y0098
X0055Y00955
X0053Y01775
X005Y01805
X004Y0166
X00325Y019
X00675Y02175
X00765
X0087
X0107
X01175
X01375
X01475
X01575
X0178Y0213
X0187Y02175
X0198
T02
X0144706Y0031506
Y0034007
Y0036507
Y0039007
Y0041506
X0147206
Y0039007
Y0036507
Y0034007
Y0031506
X0149706
Y0034007
Y0036507
Y0039007
Y0041506
T03
X00185Y0174
Y01795
T04
X02445Y0055126
Y0063
T05
X00285Y0046
X02013Y0016085
X02113
X00285Y0056
Y0066
Y0076
T06
X02176Y02065
X00376
T08
X0013327Y0013643
X0241673
Y0206557
X0013327
M30
