G04 Layer_Color=65535*
%FSLAX25Y25*%
%MOIN*%
G70*
G01*
G75*
%ADD35C,0.01000*%
%ADD36C,0.00800*%
%ADD58C,0.00600*%
%ADD59C,0.00049*%
%ADD60C,0.00500*%
%ADD61C,0.00300*%
%ADD62C,0.00394*%
%ADD63C,0.00400*%
%ADD64C,0.00787*%
%ADD65C,0.00700*%
%ADD66C,0.00403*%
%ADD67R,0.06299X0.04724*%
%ADD68R,0.01969X0.03000*%
G36*
X215123Y169450D02*
X215121Y169451D01*
X215121Y169451D01*
X215123Y169450D01*
D02*
G37*
G36*
X206440Y170298D02*
X206439Y170299D01*
X206439Y170299D01*
X206776Y170232D01*
X206778Y170236D01*
X206814Y170229D01*
X207090Y170044D01*
X207088Y170041D01*
X206638Y169504D01*
X206458Y169625D01*
X206436Y169629D01*
X206432Y169618D01*
X206224Y169704D01*
X206224Y169669D01*
X206224Y169669D01*
X205974Y169619D01*
X205804Y169506D01*
X205793Y169519D01*
X205749Y169501D01*
X205666Y169301D01*
X205659Y169304D01*
X205604Y169025D01*
X205607Y169006D01*
X205620Y169007D01*
Y167142D01*
X204996D01*
Y170245D01*
X205620D01*
Y169913D01*
X205630Y169915D01*
X205696Y170013D01*
X205974Y170199D01*
X205972Y170205D01*
X205990Y170217D01*
X206419Y170302D01*
X206440Y170298D01*
D02*
G37*
G36*
X202477Y169450D02*
X202475Y169451D01*
X202475Y169451D01*
X202477Y169450D01*
D02*
G37*
G36*
X83548Y209187D02*
X83613Y209168D01*
X83687Y209150D01*
X83771Y209113D01*
X83854Y209057D01*
X83928Y208992D01*
X83937Y208983D01*
X83956Y208955D01*
X83992Y208918D01*
X84030Y208863D01*
X84057Y208798D01*
X84094Y208715D01*
X84113Y208631D01*
X84122Y208530D01*
Y208521D01*
Y208484D01*
X84113Y208428D01*
X84094Y208363D01*
X84076Y208289D01*
X84039Y208206D01*
X83983Y208132D01*
X83918Y208049D01*
X83909Y208039D01*
X83881Y208021D01*
X83845Y207984D01*
X83789Y207956D01*
X83715Y207919D01*
X83641Y207882D01*
X83548Y207864D01*
X83447Y207855D01*
X75233D01*
X75177Y207864D01*
X75112Y207882D01*
X75038Y207901D01*
X74955Y207938D01*
X74872Y207984D01*
X74798Y208049D01*
X74789Y208058D01*
X74770Y208086D01*
X74733Y208123D01*
X74705Y208178D01*
X74669Y208252D01*
X74632Y208335D01*
X74613Y208428D01*
X74604Y208530D01*
Y208539D01*
Y208576D01*
X74613Y208631D01*
X74632Y208696D01*
X74650Y208770D01*
X74687Y208844D01*
X74733Y208927D01*
X74798Y209001D01*
X74807Y209011D01*
X74835Y209029D01*
X74872Y209066D01*
X74928Y209103D01*
X75002Y209131D01*
X75085Y209168D01*
X75177Y209187D01*
X75279Y209196D01*
X83493D01*
X83548Y209187D01*
D02*
G37*
G36*
X213382Y167142D02*
X212833D01*
X212183Y169312D01*
X212171D01*
X211523Y167142D01*
X210972D01*
X209981Y170245D01*
X210641D01*
X211236Y168071D01*
X211247D01*
X211950Y170245D01*
X212405D01*
X213107Y168071D01*
X213120D01*
X213713Y170245D01*
X214375D01*
X213382Y167142D01*
D02*
G37*
G36*
X203528Y170226D02*
X203528Y170226D01*
X203737Y170184D01*
X203928Y170057D01*
X203928Y170057D01*
X204033Y169986D01*
X204195Y169744D01*
X204195Y169743D01*
X204200Y169745D01*
X204203Y169740D01*
X204248Y169517D01*
X204248Y169517D01*
X204300Y169255D01*
X204272Y169255D01*
Y167130D01*
X203668D01*
Y167404D01*
X203657Y167403D01*
X203595Y167254D01*
X203395Y167172D01*
X203402Y167156D01*
X203182Y167113D01*
X203182Y167112D01*
X202923Y167060D01*
X202910Y167063D01*
X202910Y167067D01*
X202456Y167158D01*
X202457Y167162D01*
X202399Y167173D01*
X202124Y167357D01*
X202128Y167361D01*
X202090Y167387D01*
X201906Y167663D01*
X201902Y167661D01*
X201902Y167662D01*
X201829Y168029D01*
X201831Y168041D01*
X201830Y168041D01*
X201828Y168052D01*
X201898Y168403D01*
X201898Y168403D01*
X201903Y168428D01*
X202086Y168703D01*
X202087Y168702D01*
X202098Y168718D01*
X202357Y168891D01*
X202399Y168900D01*
X202398Y168903D01*
X202819Y168987D01*
X202827Y168985D01*
X202827Y168962D01*
X203668D01*
X203695Y169290D01*
X203700Y169303D01*
X203631Y169471D01*
X203631Y169471D01*
X203590Y169571D01*
X203517Y169601D01*
X203518Y169604D01*
X203323Y169684D01*
X203320Y169671D01*
X203088Y169718D01*
X203048Y169710D01*
X203048Y169719D01*
X203040Y169721D01*
X202851Y169683D01*
X202851Y169682D01*
X202688Y169650D01*
X202690Y169643D01*
X202527Y169576D01*
X202475Y169451D01*
X201999Y169826D01*
X202090Y169964D01*
X202421Y170185D01*
X202420Y170187D01*
X202442Y170202D01*
X202703Y170254D01*
X202702Y170254D01*
X202982Y170309D01*
X203019Y170302D01*
X203017Y170310D01*
X203063Y170319D01*
X203528Y170226D01*
D02*
G37*
G36*
X216174D02*
X216174Y170226D01*
X216383Y170184D01*
X216573Y170057D01*
X216573Y170057D01*
X216679Y169986D01*
X216841Y169744D01*
X216841Y169743D01*
X216845Y169745D01*
X216849Y169740D01*
X216893Y169517D01*
X216893Y169517D01*
X216946Y169255D01*
X216917Y169255D01*
Y167130D01*
X216314D01*
Y167404D01*
X216302Y167403D01*
X216241Y167254D01*
X216041Y167172D01*
X216047Y167156D01*
X215827Y167113D01*
X215827Y167112D01*
X215569Y167060D01*
X215556Y167063D01*
X215556Y167067D01*
X215102Y167158D01*
X215103Y167162D01*
X215045Y167173D01*
X214769Y167357D01*
X214774Y167361D01*
X214736Y167387D01*
X214551Y167663D01*
X214548Y167661D01*
X214548Y167662D01*
X214475Y168029D01*
X214477Y168041D01*
X214476Y168041D01*
X214474Y168052D01*
X214543Y168403D01*
X214543Y168403D01*
X214548Y168428D01*
X214732Y168703D01*
X214733Y168702D01*
X214744Y168718D01*
X215003Y168891D01*
X215045Y168900D01*
X215044Y168903D01*
X215464Y168987D01*
X215473Y168985D01*
X215473Y168962D01*
X216314D01*
X216341Y169290D01*
X216346Y169303D01*
X216276Y169471D01*
X216277Y169471D01*
X216235Y169571D01*
X216162Y169601D01*
X216164Y169604D01*
X215968Y169684D01*
X215966Y169671D01*
X215734Y169718D01*
X215693Y169710D01*
X215694Y169719D01*
X215686Y169721D01*
X215496Y169683D01*
X215496Y169682D01*
X215333Y169650D01*
X215335Y169643D01*
X215172Y169576D01*
X215121Y169451D01*
X214644Y169826D01*
X214736Y169964D01*
X215067Y170185D01*
X215066Y170187D01*
X215087Y170202D01*
X215348Y170254D01*
X215348Y170254D01*
X215627Y170309D01*
X215664Y170302D01*
X215663Y170310D01*
X215708Y170319D01*
X216174Y170226D01*
D02*
G37*
G36*
X221549Y170211D02*
X221550Y170214D01*
X221562Y170211D01*
X221969Y169940D01*
X221965Y169936D01*
X222007Y169908D01*
X222258Y169532D01*
X222261Y169517D01*
X222263Y169518D01*
X222367Y168993D01*
X222363Y168970D01*
X222339Y168971D01*
Y168457D01*
X220391Y168457D01*
X220387Y168438D01*
X220451Y168119D01*
X220458Y168122D01*
X220565Y167862D01*
X220587Y167853D01*
X220609Y167876D01*
X220815Y167738D01*
X220849Y167732D01*
X220849Y167731D01*
X221135Y167674D01*
X221146Y167676D01*
X221145Y167675D01*
X221151Y167674D01*
X221499Y167743D01*
X221514Y167753D01*
X221515Y167753D01*
X221827Y167962D01*
X221839Y167980D01*
X221827Y167991D01*
X222286Y167599D01*
X222216Y167493D01*
X222035Y167372D01*
X222034Y167373D01*
X221782Y167204D01*
X221767Y167201D01*
X221770Y167195D01*
X221162Y167074D01*
X221157Y167075D01*
X221157Y167077D01*
X220683Y167171D01*
X220681Y167168D01*
X220566Y167191D01*
X220231Y167414D01*
X220231Y167415D01*
X220112Y167494D01*
X220035Y167610D01*
X219899Y167812D01*
X219885Y167883D01*
X219879Y167880D01*
X219807Y168242D01*
X219811Y168243D01*
X219756Y168662D01*
X219758Y168681D01*
X219758Y168681D01*
X219756Y168697D01*
X219809Y169099D01*
X219804Y169100D01*
X219874Y169451D01*
X219879Y169450D01*
X219899Y169552D01*
X220015Y169726D01*
X220015Y169726D01*
X220128Y169895D01*
X220193Y169938D01*
X220189Y169943D01*
X220607Y170222D01*
X220608Y170222D01*
X220612Y170214D01*
X221062Y170303D01*
X221062Y170304D01*
X221072Y170306D01*
X221549Y170211D01*
D02*
G37*
G36*
X209605Y167142D02*
X208981D01*
X208989Y167457D01*
X208952Y167403D01*
X208623Y167183D01*
X208624Y167180D01*
X208604Y167167D01*
X208190Y167085D01*
X208179Y167087D01*
X208179Y167084D01*
X208171Y167082D01*
X207912Y167133D01*
X207912Y167133D01*
X207758Y167164D01*
X207684Y167214D01*
X207683Y167213D01*
X207429Y167383D01*
X207347Y167505D01*
X207346Y167504D01*
X207209Y167710D01*
X207172Y167896D01*
X207171Y167896D01*
X207109Y168208D01*
X207128Y168208D01*
X207084Y168658D01*
X207088Y168697D01*
X207089Y168696D01*
X207085Y168735D01*
X207129Y169179D01*
X207110Y169179D01*
X207172Y169487D01*
X207172Y169487D01*
X207209Y169673D01*
X207347Y169879D01*
X207347Y169878D01*
X207427Y169998D01*
X207683Y170170D01*
X207684Y170168D01*
X207765Y170223D01*
X207912Y170252D01*
X207912Y170252D01*
X208171Y170303D01*
X208179Y170302D01*
X208179Y170296D01*
X208192Y170299D01*
X208551Y170227D01*
X208616Y170184D01*
X208617Y170186D01*
X208981Y169943D01*
Y169913D01*
X208998Y169931D01*
X208981Y169943D01*
Y171497D01*
X209605D01*
Y167142D01*
D02*
G37*
G36*
X219095Y170298D02*
X219094Y170299D01*
X219095Y170299D01*
X219432Y170232D01*
X219433Y170236D01*
X219469Y170229D01*
X219745Y170044D01*
X219743Y170041D01*
X219294Y169504D01*
X219113Y169625D01*
X219092Y169629D01*
X219087Y169618D01*
X218880Y169704D01*
X218879Y169669D01*
X218879Y169669D01*
X218630Y169619D01*
X218460Y169506D01*
X218448Y169519D01*
X218405Y169501D01*
X218322Y169301D01*
X218314Y169304D01*
X218259Y169025D01*
X218263Y169006D01*
X218275Y169007D01*
Y167142D01*
X217651D01*
Y170245D01*
X218275D01*
Y169913D01*
X218285Y169915D01*
X218351Y170013D01*
X218629Y170199D01*
X218627Y170205D01*
X218646Y170217D01*
X219075Y170302D01*
X219095Y170298D01*
D02*
G37*
G36*
X62523Y209187D02*
X62588Y209168D01*
X62662Y209150D01*
X62745Y209113D01*
X62828Y209057D01*
X62902Y208992D01*
X62912Y208983D01*
X62930Y208955D01*
X62967Y208918D01*
X63004Y208863D01*
X63032Y208798D01*
X63069Y208715D01*
X63087Y208631D01*
X63097Y208530D01*
Y208521D01*
Y208484D01*
X63087Y208428D01*
X63069Y208363D01*
X63051Y208289D01*
X63013Y208206D01*
X62958Y208132D01*
X62893Y208049D01*
X62884Y208039D01*
X62856Y208021D01*
X62819Y207984D01*
X62764Y207956D01*
X62690Y207919D01*
X62616Y207882D01*
X62523Y207864D01*
X62422Y207855D01*
X54207D01*
X54152Y207864D01*
X54087Y207882D01*
X54013Y207901D01*
X53930Y207938D01*
X53847Y207984D01*
X53773Y208049D01*
X53764Y208058D01*
X53745Y208086D01*
X53708Y208123D01*
X53680Y208178D01*
X53643Y208252D01*
X53606Y208335D01*
X53588Y208428D01*
X53579Y208530D01*
Y208539D01*
Y208576D01*
X53588Y208631D01*
X53606Y208696D01*
X53625Y208770D01*
X53662Y208844D01*
X53708Y208927D01*
X53773Y209001D01*
X53782Y209011D01*
X53810Y209029D01*
X53847Y209066D01*
X53902Y209103D01*
X53976Y209131D01*
X54059Y209168D01*
X54152Y209187D01*
X54254Y209196D01*
X62468D01*
X62523Y209187D01*
D02*
G37*
G36*
X83299Y207225D02*
X83363Y207207D01*
X83438Y207189D01*
X83512Y207152D01*
X83595Y207105D01*
X83669Y207041D01*
X83678Y207031D01*
X83697Y207003D01*
X83733Y206966D01*
X83771Y206911D01*
X83798Y206837D01*
X83835Y206763D01*
X83854Y206670D01*
X83863Y206569D01*
Y206559D01*
Y206522D01*
X83854Y206467D01*
X83835Y206402D01*
X83817Y206328D01*
X83780Y206245D01*
X83733Y206171D01*
X83669Y206088D01*
X83659Y206079D01*
X83632Y206060D01*
X83595Y206023D01*
X83539Y205995D01*
X83465Y205958D01*
X83391Y205921D01*
X83299Y205903D01*
X83197Y205893D01*
X75945D01*
Y205450D01*
Y205440D01*
X75954Y205413D01*
X75973Y205376D01*
X76010Y205329D01*
X76019Y205320D01*
X76056Y205301D01*
X76112Y205283D01*
X76186Y205274D01*
X83493D01*
X83548Y205264D01*
X83613Y205246D01*
X83687Y205227D01*
X83771Y205190D01*
X83854Y205144D01*
X83928Y205080D01*
X83937Y205070D01*
X83956Y205043D01*
X83992Y205006D01*
X84030Y204950D01*
X84057Y204876D01*
X84094Y204802D01*
X84113Y204710D01*
X84122Y204608D01*
Y204598D01*
Y204561D01*
X84113Y204506D01*
X84094Y204441D01*
X84076Y204367D01*
X84039Y204284D01*
X83983Y204210D01*
X83918Y204127D01*
X83909Y204117D01*
X83881Y204099D01*
X83845Y204062D01*
X83789Y204034D01*
X83715Y203997D01*
X83641Y203960D01*
X83548Y203942D01*
X83447Y203932D01*
X76084D01*
X76028Y203942D01*
X75954Y203951D01*
X75871Y203960D01*
X75769Y203988D01*
X75668Y204016D01*
X75566Y204053D01*
X75556Y204062D01*
X75520Y204071D01*
X75473Y204099D01*
X75409Y204136D01*
X75335Y204191D01*
X75251Y204247D01*
X75168Y204312D01*
X75085Y204386D01*
X75076Y204395D01*
X75048Y204423D01*
X75011Y204469D01*
X74964Y204534D01*
X74909Y204608D01*
X74844Y204691D01*
X74789Y204784D01*
X74733Y204894D01*
X74724Y204904D01*
X74715Y204950D01*
X74696Y205006D01*
X74669Y205089D01*
X74641Y205190D01*
X74622Y205301D01*
X74613Y205431D01*
X74604Y205570D01*
Y206606D01*
Y206624D01*
Y206670D01*
X74613Y206726D01*
X74632Y206809D01*
X74659Y206892D01*
X74696Y206976D01*
X74752Y207050D01*
X74826Y207105D01*
X74835Y207115D01*
X74863Y207124D01*
X74918Y207142D01*
X74992Y207170D01*
X75076Y207198D01*
X75187Y207216D01*
X75316Y207225D01*
X75464Y207235D01*
X83243D01*
X83299Y207225D01*
D02*
G37*
G36*
X93909Y209140D02*
X93918D01*
X93945Y209150D01*
X93992D01*
X94047Y209140D01*
X94112Y209131D01*
X94177Y209103D01*
X94251Y209057D01*
X94325Y208992D01*
X94334Y208983D01*
X94353Y208955D01*
X94389Y208918D01*
X94427Y208863D01*
X94463Y208798D01*
X94500Y208715D01*
X94519Y208631D01*
X94528Y208530D01*
Y208521D01*
Y208484D01*
X94519Y208428D01*
X94500Y208363D01*
X94482Y208289D01*
X94445Y208206D01*
X94389Y208132D01*
X94325Y208049D01*
X94315Y208039D01*
X94288Y208021D01*
X94251Y207984D01*
X94195Y207956D01*
X94121Y207919D01*
X94047Y207882D01*
X93955Y207864D01*
X93853Y207855D01*
X90560D01*
Y204608D01*
Y204598D01*
Y204561D01*
X90551Y204506D01*
X90532Y204441D01*
X90514Y204367D01*
X90477Y204284D01*
X90430Y204210D01*
X90366Y204127D01*
X90356Y204117D01*
X90329Y204099D01*
X90292Y204062D01*
X90236Y204034D01*
X90162Y203997D01*
X90079Y203960D01*
X89986Y203942D01*
X89885Y203932D01*
X89838D01*
X89783Y203942D01*
X89718Y203960D01*
X89644Y203979D01*
X89561Y204016D01*
X89487Y204062D01*
X89404Y204127D01*
X89394Y204136D01*
X89376Y204164D01*
X89339Y204210D01*
X89311Y204265D01*
X89274Y204330D01*
X89237Y204414D01*
X89219Y204506D01*
X89210Y204608D01*
Y207855D01*
X85852D01*
X85824Y207864D01*
X85769Y207873D01*
X85713Y207892D01*
X85648Y207919D01*
X85574Y207956D01*
X85500Y208002D01*
X85426Y208067D01*
X85417Y208077D01*
X85399Y208104D01*
X85371Y208141D01*
X85343Y208197D01*
X85306Y208261D01*
X85278Y208345D01*
X85260Y208437D01*
X85251Y208530D01*
Y208539D01*
Y208576D01*
X85260Y208631D01*
X85278Y208696D01*
X85297Y208770D01*
X85334Y208844D01*
X85380Y208927D01*
X85445Y209001D01*
X85454Y209011D01*
X85482Y209029D01*
X85519Y209066D01*
X85574Y209103D01*
X85648Y209131D01*
X85732Y209168D01*
X85824Y209187D01*
X85926Y209196D01*
X93973D01*
X93909Y209140D01*
D02*
G37*
G36*
X71921Y209187D02*
X72014Y209177D01*
X72106Y209159D01*
X72217Y209140D01*
X72338Y209103D01*
X72448Y209057D01*
X72458Y209048D01*
X72504Y209029D01*
X72559Y209001D01*
X72633Y208964D01*
X72717Y208918D01*
X72800Y208854D01*
X72892Y208789D01*
X72985Y208705D01*
X72994Y208696D01*
X73022Y208668D01*
X73068Y208622D01*
X73115Y208558D01*
X73179Y208484D01*
X73235Y208391D01*
X73290Y208298D01*
X73346Y208188D01*
X73355Y208178D01*
X73364Y208132D01*
X73383Y208077D01*
X73410Y207993D01*
X73438Y207901D01*
X73457Y207790D01*
X73466Y207679D01*
X73475Y207549D01*
Y207531D01*
Y207494D01*
X73466Y207429D01*
X73457Y207336D01*
X73448Y207244D01*
X73420Y207133D01*
X73392Y207022D01*
X73346Y206902D01*
X73336Y206892D01*
X73318Y206856D01*
X73290Y206800D01*
X73253Y206726D01*
X73198Y206643D01*
X73142Y206550D01*
X73068Y206467D01*
X72985Y206375D01*
X72976Y206365D01*
X72948Y206337D01*
X72892Y206300D01*
X72828Y206245D01*
X72754Y206189D01*
X72661Y206134D01*
X72559Y206079D01*
X72448Y206023D01*
X72439Y206014D01*
X72393Y206005D01*
X72338Y205986D01*
X72254Y205958D01*
X72162Y205930D01*
X72082Y205917D01*
X72125Y205893D01*
X72217Y205838D01*
X72328Y205764D01*
X72448Y205681D01*
X72467Y205672D01*
X72504Y205644D01*
X72578Y205597D01*
X72661Y205533D01*
X72763Y205459D01*
X72883Y205376D01*
X73133Y205181D01*
X73142D01*
X73151Y205163D01*
X73207Y205117D01*
X73281Y205043D01*
X73364Y204941D01*
X73374Y204931D01*
X73383Y204913D01*
X73401Y204885D01*
X73420Y204848D01*
X73457Y204747D01*
X73475Y204682D01*
Y204608D01*
Y204598D01*
Y204561D01*
X73466Y204506D01*
X73448Y204441D01*
X73429Y204367D01*
X73392Y204284D01*
X73346Y204210D01*
X73281Y204127D01*
X73272Y204117D01*
X73244Y204099D01*
X73207Y204062D01*
X73151Y204034D01*
X73077Y203997D01*
X72994Y203960D01*
X72902Y203942D01*
X72800Y203932D01*
X72763D01*
X72707Y203942D01*
X72652Y203960D01*
X72578Y203979D01*
X72504Y204016D01*
X72412Y204062D01*
X72328Y204127D01*
X72319D01*
X72310Y204145D01*
X72282Y204164D01*
X72245Y204182D01*
X72153Y204256D01*
X72032Y204340D01*
X71894Y204441D01*
X71727Y204552D01*
X71561Y204663D01*
X71376Y204784D01*
X71366D01*
X71357Y204802D01*
X71329Y204811D01*
X71292Y204839D01*
X71191Y204904D01*
X71061Y204978D01*
X70913Y205070D01*
X70737Y205163D01*
X70552Y205264D01*
X70358Y205357D01*
X70349D01*
X70330Y205366D01*
X70302Y205385D01*
X70266Y205394D01*
X70219Y205422D01*
X70164Y205440D01*
X70025Y205496D01*
X69858Y205560D01*
X69674Y205625D01*
X69479Y205690D01*
X69266Y205746D01*
X69257D01*
X69239Y205755D01*
X69211Y205764D01*
X69165Y205773D01*
X69118Y205783D01*
X69054Y205792D01*
X68906Y205820D01*
X68730Y205847D01*
X68536Y205875D01*
X68323Y205884D01*
X68101Y205893D01*
X65807D01*
X65761Y205875D01*
X65705Y205847D01*
X65640Y205792D01*
X65631Y205783D01*
X65604Y205736D01*
X65576Y205672D01*
X65566Y205588D01*
Y204608D01*
Y204598D01*
Y204561D01*
X65557Y204506D01*
X65539Y204441D01*
X65520Y204367D01*
X65483Y204284D01*
X65428Y204210D01*
X65363Y204127D01*
X65354Y204117D01*
X65326Y204099D01*
X65289Y204062D01*
X65233Y204034D01*
X65169Y203997D01*
X65086Y203960D01*
X65002Y203942D01*
X64900Y203932D01*
X64854D01*
X64799Y203942D01*
X64734Y203960D01*
X64660Y203979D01*
X64577Y204016D01*
X64494Y204062D01*
X64420Y204127D01*
X64410Y204136D01*
X64392Y204164D01*
X64355Y204210D01*
X64327Y204265D01*
X64290Y204330D01*
X64253Y204414D01*
X64235Y204506D01*
X64225Y204608D01*
Y205718D01*
Y205736D01*
Y205773D01*
X64235Y205829D01*
X64244Y205903D01*
X64253Y205995D01*
X64271Y206097D01*
X64299Y206199D01*
X64336Y206300D01*
X64346Y206310D01*
X64355Y206347D01*
X64382Y206402D01*
X64420Y206467D01*
X64466Y206541D01*
X64521Y206624D01*
X64651Y206782D01*
X64660Y206791D01*
X64688Y206819D01*
X64734Y206856D01*
X64789Y206902D01*
X64854Y206957D01*
X64938Y207013D01*
X65030Y207068D01*
X65132Y207115D01*
X65141Y207124D01*
X65178Y207133D01*
X65243Y207152D01*
X65317Y207179D01*
X65409Y207198D01*
X65511Y207216D01*
X65622Y207225D01*
X65742Y207235D01*
X71866D01*
X71921Y207244D01*
X71986Y207272D01*
X72060Y207318D01*
X72069D01*
X72079Y207336D01*
X72115Y207383D01*
X72143Y207457D01*
X72162Y207503D01*
Y207549D01*
Y207558D01*
Y207568D01*
X72153Y207623D01*
X72115Y207688D01*
X72097Y207725D01*
X72060Y207762D01*
X72041Y207781D01*
X71995Y207808D01*
X71930Y207836D01*
X71847Y207855D01*
X64854D01*
X64799Y207864D01*
X64734Y207882D01*
X64660Y207901D01*
X64577Y207938D01*
X64494Y207984D01*
X64420Y208049D01*
X64410Y208058D01*
X64392Y208086D01*
X64355Y208123D01*
X64327Y208178D01*
X64290Y208252D01*
X64253Y208335D01*
X64235Y208428D01*
X64225Y208530D01*
Y208539D01*
Y208576D01*
X64235Y208631D01*
X64253Y208696D01*
X64271Y208770D01*
X64309Y208844D01*
X64355Y208927D01*
X64420Y209001D01*
X64429Y209011D01*
X64456Y209029D01*
X64494Y209066D01*
X64549Y209103D01*
X64623Y209131D01*
X64706Y209168D01*
X64799Y209187D01*
X64900Y209196D01*
X71856D01*
X71921Y209187D01*
D02*
G37*
G36*
X50896D02*
X50989Y209177D01*
X51081Y209159D01*
X51192Y209140D01*
X51312Y209103D01*
X51423Y209057D01*
X51433Y209048D01*
X51479Y209029D01*
X51534Y209001D01*
X51608Y208964D01*
X51692Y208918D01*
X51775Y208854D01*
X51867Y208789D01*
X51960Y208705D01*
X51969Y208696D01*
X51997Y208668D01*
X52043Y208622D01*
X52089Y208558D01*
X52154Y208484D01*
X52210Y208391D01*
X52265Y208289D01*
X52320Y208178D01*
X52330Y208169D01*
X52339Y208123D01*
X52358Y208067D01*
X52385Y207984D01*
X52413Y207892D01*
X52431Y207781D01*
X52441Y207669D01*
X52450Y207540D01*
Y207531D01*
Y207485D01*
X52441Y207429D01*
Y207346D01*
X52422Y207262D01*
X52404Y207161D01*
X52376Y207059D01*
X52339Y206957D01*
Y206948D01*
X52320Y206911D01*
X52302Y206865D01*
X52274Y206809D01*
X52191Y206670D01*
X52145Y206606D01*
X52099Y206550D01*
X52108Y206541D01*
X52126Y206522D01*
X52145Y206495D01*
X52182Y206449D01*
X52219Y206393D01*
X52256Y206319D01*
X52302Y206236D01*
X52339Y206143D01*
X52348Y206134D01*
X52358Y206097D01*
X52376Y206042D01*
X52394Y205977D01*
X52413Y205893D01*
X52431Y205801D01*
X52450Y205699D01*
Y205588D01*
Y205570D01*
Y205533D01*
X52441Y205468D01*
X52431Y205376D01*
X52422Y205283D01*
X52394Y205172D01*
X52367Y205061D01*
X52320Y204941D01*
X52311Y204931D01*
X52293Y204894D01*
X52265Y204839D01*
X52228Y204765D01*
X52172Y204682D01*
X52117Y204598D01*
X52043Y204506D01*
X51960Y204423D01*
X51951Y204414D01*
X51923Y204386D01*
X51867Y204349D01*
X51802Y204293D01*
X51728Y204238D01*
X51636Y204173D01*
X51534Y204117D01*
X51423Y204062D01*
X51414Y204053D01*
X51368Y204044D01*
X51312Y204025D01*
X51229Y203997D01*
X51136Y203970D01*
X51025Y203951D01*
X50905Y203942D01*
X50776Y203932D01*
X43995D01*
X43931Y203997D01*
X43912D01*
X43875Y203988D01*
X43736D01*
X43653Y203997D01*
X43561Y204025D01*
X43477Y204062D01*
X43394Y204127D01*
X43385Y204136D01*
X43367Y204164D01*
X43330Y204210D01*
X43302Y204265D01*
X43265Y204330D01*
X43228Y204414D01*
X43209Y204506D01*
X43200Y204608D01*
Y208530D01*
Y208539D01*
Y208576D01*
X43209Y208631D01*
X43228Y208696D01*
X43246Y208770D01*
X43283Y208844D01*
X43330Y208927D01*
X43394Y209001D01*
X43404Y209011D01*
X43431Y209029D01*
X43468Y209066D01*
X43524Y209103D01*
X43598Y209131D01*
X43681Y209168D01*
X43773Y209187D01*
X43875Y209196D01*
X50831D01*
X50896Y209187D01*
D02*
G37*
G36*
X62274Y207225D02*
X62338Y207207D01*
X62412Y207189D01*
X62486Y207152D01*
X62569Y207105D01*
X62643Y207041D01*
X62653Y207031D01*
X62671Y207003D01*
X62708Y206966D01*
X62745Y206911D01*
X62773Y206837D01*
X62810Y206763D01*
X62828Y206670D01*
X62838Y206569D01*
Y206559D01*
Y206522D01*
X62828Y206467D01*
X62810Y206402D01*
X62792Y206328D01*
X62754Y206245D01*
X62708Y206171D01*
X62643Y206088D01*
X62634Y206079D01*
X62607Y206060D01*
X62569Y206023D01*
X62514Y205995D01*
X62440Y205958D01*
X62366Y205921D01*
X62274Y205903D01*
X62172Y205893D01*
X54920D01*
Y205450D01*
Y205440D01*
X54929Y205413D01*
X54948Y205376D01*
X54984Y205329D01*
X54994Y205320D01*
X55031Y205301D01*
X55086Y205283D01*
X55160Y205274D01*
X62468D01*
X62523Y205264D01*
X62588Y205246D01*
X62662Y205227D01*
X62745Y205190D01*
X62828Y205144D01*
X62902Y205080D01*
X62912Y205070D01*
X62930Y205043D01*
X62967Y205006D01*
X63004Y204950D01*
X63032Y204876D01*
X63069Y204802D01*
X63087Y204710D01*
X63097Y204608D01*
Y204598D01*
Y204561D01*
X63087Y204506D01*
X63069Y204441D01*
X63051Y204367D01*
X63013Y204284D01*
X62958Y204210D01*
X62893Y204127D01*
X62884Y204117D01*
X62856Y204099D01*
X62819Y204062D01*
X62764Y204034D01*
X62690Y203997D01*
X62616Y203960D01*
X62523Y203942D01*
X62422Y203932D01*
X55058D01*
X55003Y203942D01*
X54929Y203951D01*
X54846Y203960D01*
X54744Y203988D01*
X54642Y204016D01*
X54540Y204053D01*
X54531Y204062D01*
X54494Y204071D01*
X54448Y204099D01*
X54383Y204136D01*
X54309Y204191D01*
X54226Y204247D01*
X54143Y204312D01*
X54059Y204386D01*
X54050Y204395D01*
X54023Y204423D01*
X53986Y204469D01*
X53939Y204534D01*
X53884Y204608D01*
X53819Y204691D01*
X53764Y204784D01*
X53708Y204894D01*
X53699Y204904D01*
X53689Y204950D01*
X53671Y205006D01*
X53643Y205089D01*
X53615Y205190D01*
X53597Y205301D01*
X53588Y205431D01*
X53579Y205570D01*
Y206606D01*
Y206624D01*
Y206670D01*
X53588Y206726D01*
X53606Y206809D01*
X53634Y206892D01*
X53671Y206976D01*
X53727Y207050D01*
X53800Y207105D01*
X53810Y207115D01*
X53838Y207124D01*
X53893Y207142D01*
X53967Y207170D01*
X54050Y207198D01*
X54161Y207216D01*
X54291Y207225D01*
X54439Y207235D01*
X62218D01*
X62274Y207225D01*
D02*
G37*
G36*
X99801Y207179D02*
X99810D01*
X99838Y207189D01*
X99884D01*
X99940Y207179D01*
X100004Y207170D01*
X100069Y207142D01*
X100143Y207105D01*
X100217Y207041D01*
X100226Y207031D01*
X100245Y207003D01*
X100282Y206966D01*
X100319Y206911D01*
X100347Y206837D01*
X100383Y206763D01*
X100402Y206670D01*
X100411Y206569D01*
Y206559D01*
Y206522D01*
X100402Y206467D01*
X100383Y206402D01*
X100365Y206328D01*
X100328Y206245D01*
X100282Y206171D01*
X100217Y206088D01*
X100208Y206079D01*
X100180Y206060D01*
X100143Y206023D01*
X100087Y205995D01*
X100013Y205958D01*
X99930Y205921D01*
X99838Y205903D01*
X99736Y205893D01*
X96258D01*
X96230Y205903D01*
X96175Y205912D01*
X96119Y205930D01*
X96055Y205958D01*
X95981Y205995D01*
X95907Y206042D01*
X95833Y206106D01*
X95823Y206116D01*
X95805Y206143D01*
X95777Y206180D01*
X95749Y206236D01*
X95712Y206300D01*
X95684Y206384D01*
X95666Y206476D01*
X95657Y206569D01*
Y206578D01*
Y206615D01*
X95666Y206670D01*
X95684Y206735D01*
X95703Y206809D01*
X95740Y206883D01*
X95786Y206966D01*
X95851Y207041D01*
X95860Y207050D01*
X95888Y207068D01*
X95925Y207105D01*
X95981Y207142D01*
X96055Y207170D01*
X96138Y207207D01*
X96230Y207225D01*
X96332Y207235D01*
X99856D01*
X99801Y207179D01*
D02*
G37*
G36*
X125007Y209187D02*
X125072Y209168D01*
X125146Y209150D01*
X125220Y209113D01*
X125303Y209057D01*
X125377Y208992D01*
X125386Y208983D01*
X125405Y208955D01*
X125442Y208918D01*
X125479Y208863D01*
X125516Y208798D01*
X125553Y208715D01*
X125571Y208631D01*
X125581Y208530D01*
Y208521D01*
Y208502D01*
Y208474D01*
X125571Y208437D01*
X125543Y208335D01*
X125497Y208234D01*
Y208225D01*
X125479Y208206D01*
X125460Y208188D01*
X125423Y208151D01*
X125377Y208114D01*
X125303Y208067D01*
X125220Y208021D01*
X125118Y207975D01*
Y207965D01*
X125100Y207956D01*
X125081Y207928D01*
X125044Y207892D01*
X124961Y207790D01*
X124850Y207669D01*
X124720Y207531D01*
X124563Y207383D01*
X124397Y207235D01*
X124212Y207087D01*
X124202D01*
X124193Y207068D01*
X124165Y207050D01*
X124128Y207031D01*
X124036Y206966D01*
X123916Y206883D01*
X123786Y206800D01*
X123638Y206717D01*
X123490Y206633D01*
X123342Y206569D01*
X123361Y206559D01*
X123407Y206541D01*
X123490Y206495D01*
X123601Y206439D01*
X123721Y206365D01*
X123869Y206273D01*
X124036Y206153D01*
X124212Y206023D01*
X124221D01*
X124230Y206005D01*
X124258Y205986D01*
X124295Y205958D01*
X124341Y205921D01*
X124397Y205875D01*
X124526Y205773D01*
X124692Y205644D01*
X124878Y205496D01*
X125090Y205320D01*
X125312Y205135D01*
X125321D01*
X125331Y205117D01*
X125377Y205070D01*
X125442Y204987D01*
X125497Y204894D01*
Y204885D01*
X125506Y204876D01*
X125525Y204848D01*
X125543Y204811D01*
X125571Y204719D01*
X125581Y204608D01*
Y204598D01*
Y204561D01*
X125571Y204506D01*
X125553Y204441D01*
X125534Y204367D01*
X125497Y204284D01*
X125442Y204210D01*
X125377Y204127D01*
X125368Y204117D01*
X125340Y204099D01*
X125303Y204062D01*
X125248Y204034D01*
X125173Y203997D01*
X125100Y203960D01*
X125007Y203942D01*
X124905Y203932D01*
X124868D01*
X124813Y203942D01*
X124757Y203960D01*
X124674Y203988D01*
X124591Y204025D01*
X124498Y204071D01*
X124406Y204145D01*
X124397Y204154D01*
X124378Y204173D01*
X124332Y204210D01*
X124285Y204247D01*
X124221Y204303D01*
X124156Y204367D01*
X123980Y204506D01*
X123795Y204663D01*
X123592Y204820D01*
X123388Y204987D01*
X123194Y205126D01*
X123185D01*
X123176Y205144D01*
X123148Y205163D01*
X123111Y205181D01*
X123018Y205246D01*
X122907Y205329D01*
X122768Y205413D01*
X122620Y205505D01*
X122473Y205579D01*
X122325Y205653D01*
X122306Y205662D01*
X122260Y205681D01*
X122186Y205709D01*
X122093Y205746D01*
X121982Y205773D01*
X121853Y205810D01*
X121723Y205838D01*
X121594Y205856D01*
X121575D01*
X121529Y205866D01*
X121464D01*
X121362Y205875D01*
X121251Y205884D01*
X121113D01*
X120965Y205893D01*
X120493D01*
X120428Y205884D01*
X120336D01*
X120234Y205875D01*
X120123Y205866D01*
X119883Y205829D01*
X119864D01*
X119827Y205820D01*
X119762Y205801D01*
X119679Y205783D01*
X119577Y205755D01*
X119466Y205718D01*
X119337Y205672D01*
X119207Y205607D01*
X119189Y205597D01*
X119142Y205570D01*
X119069Y205533D01*
X118967Y205477D01*
X118846Y205403D01*
X118699Y205311D01*
X118541Y205200D01*
X118366Y205070D01*
X118356D01*
X118347Y205052D01*
X118319Y205033D01*
X118282Y205006D01*
X118236Y204969D01*
X118181Y204931D01*
X118042Y204820D01*
X117875Y204682D01*
X117672Y204524D01*
X117450Y204330D01*
X117200Y204117D01*
X117182Y204108D01*
X117145Y204071D01*
X117080Y204034D01*
X116997Y203988D01*
X116987D01*
X116978Y203979D01*
X116922Y203960D01*
X116849Y203942D01*
X116747Y203932D01*
X116700D01*
X116645Y203942D01*
X116580Y203960D01*
X116506Y203979D01*
X116423Y204016D01*
X116340Y204062D01*
X116266Y204127D01*
X116256Y204136D01*
X116238Y204164D01*
X116201Y204210D01*
X116173Y204265D01*
X116136Y204330D01*
X116099Y204414D01*
X116081Y204506D01*
X116071Y204608D01*
Y204617D01*
Y204636D01*
Y204663D01*
X116081Y204700D01*
X116099Y204793D01*
X116146Y204894D01*
Y204904D01*
X116164Y204922D01*
X116182Y204950D01*
X116219Y204978D01*
X116275Y205024D01*
X116340Y205070D01*
X116423Y205117D01*
X116525Y205172D01*
X116534Y205181D01*
X116543Y205190D01*
X116562Y205218D01*
X116599Y205255D01*
X116673Y205348D01*
X116784Y205459D01*
X116922Y205588D01*
X117070Y205736D01*
X117237Y205884D01*
X117422Y206023D01*
X117431D01*
X117440Y206042D01*
X117468Y206060D01*
X117505Y206088D01*
X117598Y206153D01*
X117718Y206226D01*
X117857Y206319D01*
X118005Y206402D01*
X118162Y206486D01*
X118310Y206550D01*
X118291Y206559D01*
X118245Y206578D01*
X118162Y206624D01*
X118060Y206680D01*
X117931Y206754D01*
X117773Y206846D01*
X117607Y206957D01*
X117422Y207087D01*
X117413Y207096D01*
X117403Y207105D01*
X117376Y207124D01*
X117339Y207152D01*
X117292Y207198D01*
X117237Y207235D01*
X117098Y207346D01*
X116932Y207485D01*
X116747Y207642D01*
X116543Y207808D01*
X116331Y208002D01*
X116312Y208021D01*
X116266Y208067D01*
X116210Y208132D01*
X116146Y208225D01*
Y208234D01*
X116136Y208252D01*
X116127Y208280D01*
X116109Y208317D01*
X116081Y208410D01*
X116071Y208530D01*
Y208539D01*
Y208576D01*
X116081Y208631D01*
X116099Y208696D01*
X116118Y208770D01*
X116155Y208844D01*
X116201Y208927D01*
X116266Y209001D01*
X116275Y209011D01*
X116303Y209029D01*
X116340Y209066D01*
X116395Y209103D01*
X116469Y209131D01*
X116552Y209168D01*
X116645Y209187D01*
X116747Y209196D01*
X116774D01*
X116830Y209187D01*
X116913Y209177D01*
X116997Y209140D01*
X117006D01*
X117015Y209131D01*
X117061Y209103D01*
X117126Y209066D01*
X117200Y209011D01*
X117209Y209001D01*
X117228Y208983D01*
X117265Y208955D01*
X117320Y208909D01*
X117376Y208854D01*
X117450Y208798D01*
X117616Y208659D01*
X117801Y208502D01*
X117996Y208335D01*
X118199Y208178D01*
X118384Y208030D01*
X118393D01*
X118403Y208012D01*
X118430Y207993D01*
X118467Y207975D01*
X118560Y207910D01*
X118680Y207836D01*
X118809Y207744D01*
X118957Y207660D01*
X119106Y207577D01*
X119244Y207503D01*
X119263Y207494D01*
X119309Y207475D01*
X119383Y207448D01*
X119466Y207411D01*
X119577Y207373D01*
X119697Y207336D01*
X119818Y207309D01*
X119938Y207281D01*
X119957D01*
X119993Y207272D01*
X120058Y207262D01*
X120151D01*
X120253Y207253D01*
X120382Y207244D01*
X120511Y207235D01*
X121104D01*
X121224Y207244D01*
X121353D01*
X121483Y207253D01*
X121612Y207262D01*
X121631D01*
X121668Y207272D01*
X121742Y207281D01*
X121825Y207299D01*
X121927Y207327D01*
X122047Y207364D01*
X122177Y207411D01*
X122315Y207466D01*
X122334Y207475D01*
X122380Y207494D01*
X122463Y207540D01*
X122565Y207595D01*
X122695Y207669D01*
X122843Y207753D01*
X123009Y207864D01*
X123185Y207984D01*
X123194D01*
X123203Y208002D01*
X123231Y208021D01*
X123277Y208049D01*
X123324Y208086D01*
X123379Y208132D01*
X123444Y208178D01*
X123518Y208243D01*
X123703Y208382D01*
X123906Y208558D01*
X124147Y208752D01*
X124406Y208983D01*
X124415Y208992D01*
X124452Y209020D01*
X124498Y209048D01*
X124563Y209094D01*
X124646Y209131D01*
X124730Y209159D01*
X124813Y209187D01*
X124905Y209196D01*
X124952D01*
X125007Y209187D01*
D02*
G37*
G36*
X128023D02*
X128115Y209177D01*
X128208Y209159D01*
X128319Y209140D01*
X128439Y209103D01*
X128550Y209057D01*
X128559Y209048D01*
X128605Y209029D01*
X128661Y209001D01*
X128735Y208964D01*
X128818Y208918D01*
X128901Y208854D01*
X128994Y208789D01*
X129086Y208705D01*
X129095Y208696D01*
X129123Y208668D01*
X129169Y208622D01*
X129216Y208558D01*
X129280Y208484D01*
X129336Y208391D01*
X129392Y208289D01*
X129447Y208178D01*
X129456Y208169D01*
X129465Y208123D01*
X129484Y208067D01*
X129512Y207984D01*
X129540Y207892D01*
X129558Y207781D01*
X129567Y207669D01*
X129577Y207540D01*
Y204608D01*
Y204598D01*
Y204561D01*
X129567Y204506D01*
X129549Y204441D01*
X129530Y204367D01*
X129493Y204284D01*
X129438Y204210D01*
X129373Y204127D01*
X129364Y204117D01*
X129336Y204099D01*
X129299Y204062D01*
X129244Y204034D01*
X129169Y203997D01*
X129095Y203960D01*
X129003Y203942D01*
X128901Y203932D01*
X128855D01*
X128799Y203942D01*
X128735Y203960D01*
X128661Y203979D01*
X128577Y204016D01*
X128494Y204062D01*
X128420Y204127D01*
X128411Y204136D01*
X128393Y204164D01*
X128356Y204210D01*
X128328Y204265D01*
X128291Y204330D01*
X128254Y204414D01*
X128235Y204506D01*
X128226Y204608D01*
Y207540D01*
Y207549D01*
Y207558D01*
X128217Y207614D01*
X128180Y207679D01*
X128161Y207716D01*
X128124Y207753D01*
Y207762D01*
X128106Y207771D01*
X128059Y207808D01*
X127995Y207836D01*
X127958Y207855D01*
X127338D01*
X127283Y207864D01*
X127218Y207882D01*
X127144Y207901D01*
X127060Y207938D01*
X126977Y207984D01*
X126903Y208049D01*
X126894Y208058D01*
X126875Y208086D01*
X126839Y208123D01*
X126811Y208178D01*
X126774Y208252D01*
X126737Y208335D01*
X126718Y208428D01*
X126709Y208530D01*
Y208539D01*
Y208576D01*
X126718Y208631D01*
X126737Y208696D01*
X126755Y208770D01*
X126792Y208844D01*
X126839Y208927D01*
X126903Y209001D01*
X126912Y209011D01*
X126940Y209029D01*
X126977Y209066D01*
X127033Y209103D01*
X127107Y209131D01*
X127190Y209168D01*
X127283Y209187D01*
X127384Y209196D01*
X127958D01*
X128023Y209187D01*
D02*
G37*
G36*
X102761D02*
X102853Y209177D01*
X102946Y209159D01*
X103057Y209140D01*
X103177Y209103D01*
X103288Y209057D01*
X103297Y209048D01*
X103343Y209029D01*
X103399Y209001D01*
X103473Y208964D01*
X103556Y208918D01*
X103639Y208854D01*
X103732Y208789D01*
X103824Y208705D01*
X103834Y208696D01*
X103861Y208668D01*
X103908Y208622D01*
X103954Y208558D01*
X104019Y208484D01*
X104074Y208391D01*
X104130Y208289D01*
X104185Y208178D01*
X104194Y208169D01*
X104204Y208123D01*
X104222Y208067D01*
X104250Y207984D01*
X104278Y207892D01*
X104296Y207781D01*
X104306Y207669D01*
X104315Y207540D01*
Y204608D01*
Y204598D01*
Y204561D01*
X104306Y204506D01*
X104287Y204441D01*
X104269Y204367D01*
X104232Y204284D01*
X104176Y204210D01*
X104111Y204127D01*
X104102Y204117D01*
X104074Y204099D01*
X104037Y204062D01*
X103982Y204034D01*
X103908Y203997D01*
X103834Y203960D01*
X103741Y203942D01*
X103639Y203932D01*
X103593D01*
X103538Y203942D01*
X103473Y203960D01*
X103399Y203979D01*
X103316Y204016D01*
X103233Y204062D01*
X103158Y204127D01*
X103149Y204136D01*
X103131Y204164D01*
X103094Y204210D01*
X103066Y204265D01*
X103029Y204330D01*
X102992Y204414D01*
X102973Y204506D01*
X102964Y204608D01*
Y207540D01*
Y207549D01*
Y207558D01*
X102955Y207614D01*
X102918Y207679D01*
X102900Y207716D01*
X102863Y207753D01*
Y207762D01*
X102844Y207771D01*
X102798Y207808D01*
X102733Y207836D01*
X102696Y207855D01*
X102076D01*
X102021Y207864D01*
X101956Y207882D01*
X101882Y207901D01*
X101799Y207938D01*
X101716Y207984D01*
X101641Y208049D01*
X101632Y208058D01*
X101614Y208086D01*
X101577Y208123D01*
X101549Y208178D01*
X101512Y208252D01*
X101475Y208335D01*
X101456Y208428D01*
X101447Y208530D01*
Y208539D01*
Y208576D01*
X101456Y208631D01*
X101475Y208696D01*
X101494Y208770D01*
X101531Y208844D01*
X101577Y208927D01*
X101641Y209001D01*
X101651Y209011D01*
X101679Y209029D01*
X101716Y209066D01*
X101771Y209103D01*
X101845Y209131D01*
X101928Y209168D01*
X102021Y209187D01*
X102122Y209196D01*
X102696D01*
X102761Y209187D01*
D02*
G37*
G36*
X112871D02*
X112973Y209177D01*
X113102Y209150D01*
X113250Y209113D01*
X113408Y209066D01*
X113565Y209001D01*
X113713Y208918D01*
X113731Y208909D01*
X113777Y208872D01*
X113851Y208817D01*
X113944Y208742D01*
X114046Y208659D01*
X114157Y208548D01*
X114268Y208428D01*
X114369Y208289D01*
X114379Y208271D01*
X114416Y208225D01*
X114462Y208141D01*
X114527Y208039D01*
X114592Y207919D01*
X114665Y207781D01*
X114730Y207623D01*
X114786Y207457D01*
Y207448D01*
X114795Y207438D01*
X114813Y207383D01*
X114832Y207290D01*
X114860Y207179D01*
X114887Y207050D01*
X114915Y206892D01*
X114925Y206735D01*
X114934Y206569D01*
Y206559D01*
Y206550D01*
Y206522D01*
Y206495D01*
X114925Y206402D01*
X114915Y206282D01*
X114897Y206143D01*
X114869Y205995D01*
X114832Y205829D01*
X114777Y205653D01*
Y205644D01*
X114767Y205634D01*
X114758Y205607D01*
X114749Y205579D01*
X114712Y205486D01*
X114665Y205376D01*
X114601Y205246D01*
X114527Y205098D01*
X114434Y204950D01*
X114332Y204802D01*
X114323Y204784D01*
X114277Y204737D01*
X114222Y204673D01*
X114138Y204580D01*
X114037Y204478D01*
X113916Y204377D01*
X113777Y204275D01*
X113629Y204173D01*
X113611Y204164D01*
X113556Y204136D01*
X113472Y204099D01*
X113361Y204053D01*
X113223Y204007D01*
X113065Y203970D01*
X112890Y203942D01*
X112695Y203932D01*
X107358D01*
X107256Y203942D01*
X107136Y203960D01*
X106997Y203997D01*
X106840Y204034D01*
X106692Y204099D01*
X106535Y204182D01*
X106516Y204191D01*
X106470Y204228D01*
X106396Y204284D01*
X106304Y204358D01*
X106202Y204441D01*
X106091Y204552D01*
X105971Y204673D01*
X105869Y204811D01*
X105859Y204830D01*
X105823Y204876D01*
X105776Y204959D01*
X105721Y205061D01*
X105647Y205181D01*
X105582Y205329D01*
X105517Y205486D01*
X105453Y205653D01*
Y205662D01*
X105443Y205672D01*
Y205699D01*
X105434Y205736D01*
X105406Y205820D01*
X105388Y205940D01*
X105360Y206079D01*
X105332Y206236D01*
X105323Y206402D01*
X105314Y206569D01*
Y206578D01*
Y206587D01*
Y206615D01*
Y206643D01*
X105323Y206735D01*
X105332Y206856D01*
X105351Y206994D01*
X105378Y207142D01*
X105415Y207309D01*
X105462Y207485D01*
Y207494D01*
X105471Y207503D01*
X105490Y207558D01*
X105526Y207651D01*
X105573Y207762D01*
X105638Y207892D01*
X105711Y208039D01*
X105795Y208178D01*
X105896Y208326D01*
X105906Y208345D01*
X105952Y208391D01*
X106017Y208456D01*
X106100Y208548D01*
X106202Y208641D01*
X106322Y208752D01*
X106461Y208854D01*
X106609Y208946D01*
X106618D01*
X106627Y208955D01*
X106683Y208983D01*
X106766Y209029D01*
X106886Y209075D01*
X107025Y209113D01*
X107182Y209159D01*
X107358Y209187D01*
X107552Y209196D01*
X112834D01*
X112871Y209187D01*
D02*
G37*
G36*
X219885Y175236D02*
X219885Y175237D01*
X219885Y175237D01*
X220222Y175170D01*
X220224Y175174D01*
X220260Y175167D01*
X220536Y174982D01*
X220533Y174979D01*
X220084Y174443D01*
X219904Y174563D01*
X219882Y174567D01*
X219878Y174557D01*
X219670Y174643D01*
X219670Y174607D01*
X219670Y174607D01*
X219420Y174558D01*
X219250Y174444D01*
X219239Y174458D01*
X219195Y174440D01*
X219112Y174240D01*
X219105Y174242D01*
X219050Y173964D01*
X219053Y173944D01*
X219066Y173945D01*
Y172080D01*
X218442D01*
Y175183D01*
X219066D01*
Y174851D01*
X219076Y174853D01*
X219142Y174952D01*
X219420Y175138D01*
X219418Y175143D01*
X219436Y175155D01*
X219865Y175240D01*
X219885Y175236D01*
D02*
G37*
G36*
X196992Y175246D02*
X196991Y175246D01*
X197005Y175249D01*
X197317Y175187D01*
X197317Y175187D01*
X197491Y175152D01*
X197579Y175093D01*
X197580Y175095D01*
X197782Y174961D01*
X197781Y174960D01*
X197922Y174866D01*
X197945Y174831D01*
X197944Y174831D01*
X198178Y174481D01*
X198198Y174381D01*
X198197Y174381D01*
X198258Y174071D01*
X198251Y174071D01*
X198305Y173663D01*
X198301Y173635D01*
X198302Y173635D01*
X198306Y173605D01*
X198252Y173192D01*
X198258Y173191D01*
X198196Y172879D01*
X198198Y172879D01*
X198178Y172778D01*
X197944Y172429D01*
X197943Y172430D01*
X197915Y172388D01*
X197781Y172299D01*
X197781Y172298D01*
X197581Y172164D01*
X197579Y172166D01*
X197498Y172111D01*
X197317Y172075D01*
X197005Y172013D01*
X196991Y172016D01*
X196992Y172016D01*
X196976Y172013D01*
X196661Y172075D01*
Y172075D01*
X196481Y172111D01*
X196399Y172166D01*
X196398Y172164D01*
X196198Y172298D01*
X196199Y172298D01*
X196070Y172384D01*
X196039Y172431D01*
X196037Y172429D01*
X195802Y172781D01*
X195782Y172879D01*
X195784Y172879D01*
X195722Y173191D01*
X195728Y173192D01*
X195674Y173605D01*
X195678Y173635D01*
X195679Y173635D01*
X195675Y173663D01*
X195729Y174071D01*
X195722Y174071D01*
X195783Y174381D01*
X195782Y174381D01*
X195802Y174479D01*
X196037Y174831D01*
X196037Y174831D01*
X196063Y174870D01*
X196199Y174960D01*
X196198Y174961D01*
X196398Y175095D01*
X196399Y175093D01*
X196487Y175152D01*
X196661Y175187D01*
X196661Y175187D01*
X196976Y175249D01*
X196992Y175246D01*
D02*
G37*
G36*
X213411Y175246D02*
X213411Y175246D01*
X213425Y175249D01*
X213737Y175187D01*
X213737Y175187D01*
X213911Y175152D01*
X213999Y175093D01*
X214000Y175095D01*
X214201Y174961D01*
X214201Y174960D01*
X214342Y174866D01*
X214365Y174831D01*
X214364Y174831D01*
X214598Y174481D01*
X214618Y174381D01*
X214616Y174381D01*
X214678Y174071D01*
X214671Y174071D01*
X214725Y173663D01*
X214721Y173635D01*
X214722Y173635D01*
X214726Y173605D01*
X214671Y173192D01*
X214678Y173191D01*
X214616Y172879D01*
X214618Y172879D01*
X214598Y172778D01*
X214364Y172429D01*
X214363Y172430D01*
X214335Y172388D01*
X214201Y172299D01*
X214201Y172298D01*
X214000Y172164D01*
X213999Y172166D01*
X213918Y172111D01*
X213737Y172075D01*
Y172075D01*
X213425Y172013D01*
X213411Y172016D01*
X213411Y172016D01*
X213396Y172013D01*
X213081Y172075D01*
X212901Y172111D01*
X212819Y172166D01*
X212818Y172164D01*
X212618Y172298D01*
X212618Y172298D01*
X212490Y172384D01*
X212459Y172431D01*
X212457Y172429D01*
X212222Y172781D01*
X212202Y172879D01*
X212204Y172879D01*
X212141Y173191D01*
X212148Y173192D01*
X212094Y173605D01*
X212098Y173635D01*
X212099Y173635D01*
X212095Y173663D01*
X212149Y174071D01*
X212142Y174071D01*
X212203Y174381D01*
X212202Y174381D01*
X212222Y174479D01*
X212457Y174831D01*
X212457Y174831D01*
X212483Y174870D01*
X212618Y174960D01*
X212618Y174961D01*
X212818Y175095D01*
X212819Y175093D01*
X212907Y175152D01*
X213081Y175187D01*
Y175187D01*
X213396Y175249D01*
X213411Y175246D01*
D02*
G37*
G36*
X200532Y175190D02*
X200532Y175190D01*
X200676Y175162D01*
X200758Y175107D01*
X200759Y175108D01*
X201025Y174930D01*
X201100Y174818D01*
X201099Y174817D01*
X201235Y174613D01*
X201273Y174425D01*
X201273Y174425D01*
X201335Y174116D01*
X201316Y174115D01*
X201361Y173667D01*
X201357Y173628D01*
X201356Y173628D01*
X201360Y173589D01*
X201316Y173143D01*
X201335Y173143D01*
X201273Y172833D01*
X201273Y172833D01*
X201236Y172647D01*
X201099Y172443D01*
X201099Y172443D01*
X201022Y172327D01*
X200759Y172151D01*
X200759Y172152D01*
X200683Y172102D01*
X200532Y172072D01*
Y172072D01*
X200275Y172021D01*
X200267Y172022D01*
X200267Y172029D01*
X200252Y172025D01*
X199883Y172099D01*
X199828Y172135D01*
X199827Y172134D01*
X199465Y172376D01*
Y172408D01*
X199446Y172389D01*
X199465Y172376D01*
X199465Y169913D01*
X199475Y169915D01*
X199541Y170013D01*
X199819Y170199D01*
X199817Y170205D01*
X199835Y170217D01*
X200265Y170302D01*
X200285Y170298D01*
X200284Y170299D01*
X200646Y170227D01*
X200648Y170234D01*
X200657Y170232D01*
X200987Y170011D01*
X200984Y170009D01*
X201061Y169958D01*
X201250Y169674D01*
X201253Y169676D01*
X201253Y169675D01*
X201298Y169452D01*
X201298Y169452D01*
X201346Y169211D01*
X201344Y169204D01*
X201319Y169204D01*
Y167142D01*
X200694D01*
X200708Y168989D01*
X200711Y169003D01*
X200657Y169271D01*
X200652Y169269D01*
X200551Y169511D01*
X200552Y169511D01*
X200549Y169519D01*
X200323Y169612D01*
X200327Y169622D01*
X200091Y169669D01*
X200083Y169667D01*
X200083Y169668D01*
X200075Y169669D01*
X199835Y169621D01*
X199838Y169612D01*
X199611Y169518D01*
X199608Y169511D01*
X199608Y169511D01*
X199508Y169269D01*
X199502Y169271D01*
X199449Y169003D01*
X199451Y168989D01*
X199465Y168989D01*
Y167142D01*
X198841D01*
Y175183D01*
X199465D01*
X199458Y174864D01*
X199498Y174924D01*
X199823Y175141D01*
X199822Y175143D01*
X199844Y175157D01*
X200256Y175239D01*
X200267Y175237D01*
X200267Y175240D01*
X200275Y175241D01*
X200532Y175190D01*
D02*
G37*
G36*
X206332Y175236D02*
X206332Y175237D01*
X206693Y175165D01*
X206696Y175172D01*
X206705Y175170D01*
X207035Y174950D01*
X207032Y174947D01*
X207108Y174896D01*
X207297Y174613D01*
X207301Y174614D01*
X207301Y174613D01*
X207345Y174390D01*
X207346Y174390D01*
X207393Y174150D01*
X207392Y174143D01*
X207366Y174143D01*
Y172080D01*
X206742D01*
X206756Y173927D01*
X206758Y173941D01*
X206705Y174210D01*
X206699Y174208D01*
X206599Y174450D01*
X206599Y174450D01*
X206596Y174457D01*
X206371Y174551D01*
X206374Y174560D01*
X206138Y174607D01*
X206131Y174606D01*
X206131Y174606D01*
X206123Y174608D01*
X205883Y174560D01*
X205886Y174551D01*
X205658Y174456D01*
X205656Y174450D01*
X205656Y174450D01*
X205556Y174208D01*
X205550Y174210D01*
X205497Y173941D01*
X205499Y173927D01*
X205513Y173928D01*
Y172080D01*
X204889D01*
Y175183D01*
X205513D01*
Y174851D01*
X205522Y174853D01*
X205588Y174952D01*
X205867Y175138D01*
X205865Y175143D01*
X205883Y175155D01*
X206312Y175240D01*
X206332Y175236D01*
D02*
G37*
G36*
X224945Y175149D02*
X224946Y175152D01*
X224958Y175150D01*
X225365Y174878D01*
X225362Y174874D01*
X225404Y174846D01*
X225655Y174470D01*
X225658Y174456D01*
X225660Y174456D01*
X225764Y173932D01*
X225759Y173909D01*
X225735Y173909D01*
Y173395D01*
X223788Y173396D01*
X223784Y173376D01*
X223847Y173057D01*
X223854Y173060D01*
X223962Y172801D01*
X223984Y172792D01*
X224005Y172815D01*
X224212Y172677D01*
X224245Y172670D01*
X224245Y172669D01*
X224531Y172612D01*
X224542Y172615D01*
X224542Y172613D01*
X224547Y172612D01*
X224895Y172681D01*
X224911Y172692D01*
X224911Y172692D01*
X225223Y172900D01*
X225235Y172918D01*
X225223Y172929D01*
X225683Y172537D01*
X225612Y172432D01*
X225431Y172311D01*
X225431Y172311D01*
X225178Y172142D01*
X225164Y172139D01*
X225166Y172133D01*
X224558Y172012D01*
X224553Y172013D01*
X224553Y172015D01*
X224079Y172110D01*
X224078Y172106D01*
X223962Y172129D01*
X223627Y172353D01*
X223627Y172353D01*
X223508Y172433D01*
X223431Y172548D01*
X223296Y172751D01*
X223282Y172821D01*
X223275Y172819D01*
X223203Y173181D01*
X223207Y173181D01*
X223152Y173601D01*
X223154Y173619D01*
X223154Y173619D01*
X223152Y173636D01*
X223205Y174038D01*
X223200Y174038D01*
X223270Y174390D01*
X223275Y174388D01*
X223295Y174490D01*
X223411Y174664D01*
X223412Y174664D01*
X223525Y174834D01*
X223589Y174877D01*
X223586Y174881D01*
X224004Y175160D01*
X224005Y175160D01*
X224008Y175152D01*
X224459Y175241D01*
X224459Y175242D01*
X224468Y175244D01*
X224945Y175149D01*
D02*
G37*
G36*
X217734Y172080D02*
X217109D01*
Y172408D01*
X217099Y172407D01*
X217034Y172310D01*
X216757Y172125D01*
X216758Y172119D01*
X216740Y172107D01*
X216315Y172023D01*
X216296Y172027D01*
X216296Y172025D01*
X215930Y172098D01*
X215928Y172092D01*
X215912Y172095D01*
X215587Y172312D01*
X215590Y172315D01*
X215513Y172365D01*
X215325Y172648D01*
X215325Y172648D01*
X215321Y172647D01*
X215277Y172871D01*
X215277Y172871D01*
X215229Y173113D01*
X215230Y173120D01*
X215256Y173120D01*
Y175183D01*
X215880D01*
X215866Y173333D01*
X215864Y173318D01*
X215917Y173048D01*
X215923Y173050D01*
X216023Y172809D01*
X216022Y172808D01*
X216024Y172804D01*
X216253Y172709D01*
X216250Y172700D01*
X216490Y172652D01*
X216498Y172654D01*
X216498Y172654D01*
X216506Y172653D01*
X216742Y172700D01*
X216738Y172709D01*
X216966Y172803D01*
X216967Y172808D01*
X216967Y172809D01*
X217067Y173050D01*
X217072Y173048D01*
X217126Y173318D01*
X217123Y173333D01*
X217109Y173332D01*
Y175183D01*
X217734D01*
Y172080D01*
D02*
G37*
G36*
X210831Y175192D02*
X210831Y175191D01*
X211159Y175126D01*
X211161Y175131D01*
X211201Y175123D01*
X211677Y174805D01*
X211670Y174797D01*
X211285Y174342D01*
X210919Y174587D01*
X210918Y174587D01*
X210909Y174567D01*
X210474Y174654D01*
X210454Y174650D01*
X210454Y174647D01*
X210435Y174651D01*
X210201Y174604D01*
X210200Y174610D01*
X210027Y174538D01*
X210025Y174539D01*
X210003Y174530D01*
X209893Y174265D01*
X209897Y174256D01*
X209903Y174256D01*
X209943Y174158D01*
X209943Y174158D01*
X209987Y174053D01*
X209992Y174050D01*
X209995Y174053D01*
X210132Y173996D01*
X210132Y173995D01*
X210332Y173955D01*
X210332Y173963D01*
X210846Y173941D01*
X211069Y173897D01*
X211069Y173897D01*
X211259Y173859D01*
X211267Y173854D01*
X211264Y173849D01*
X211266Y173848D01*
X211496Y173695D01*
X211538Y173632D01*
X211539Y173632D01*
X211686Y173412D01*
X211700Y173342D01*
X211700Y173342D01*
X211766Y173007D01*
X211764Y172998D01*
X211758Y172998D01*
X211762Y172981D01*
X211696Y172649D01*
X211657Y172590D01*
X211654Y172591D01*
X211522Y172393D01*
X211371Y172292D01*
X211371Y172292D01*
X211144Y172140D01*
X210957Y172103D01*
X210957Y172103D01*
X210476Y172007D01*
X210459Y172010D01*
X210460Y172009D01*
X210447Y172006D01*
X209718Y172151D01*
X209716Y172145D01*
X209714Y172145D01*
X209072Y172574D01*
X209094Y172596D01*
X209511Y173009D01*
X209968Y172704D01*
X209969Y172707D01*
X210496Y172602D01*
X210509Y172605D01*
X210508Y172610D01*
X210518Y172608D01*
X210751Y172654D01*
X210751Y172654D01*
X210875Y172679D01*
X210948Y172728D01*
X210948Y172728D01*
X211046Y172768D01*
X211081Y172853D01*
X211080Y172853D01*
X211149Y173021D01*
X211146Y173029D01*
X211143Y173028D01*
X211145Y173033D01*
X211097Y173149D01*
X211097Y173149D01*
X211062Y173235D01*
X211032Y173247D01*
X211034Y173250D01*
X210908Y173303D01*
X210908Y173305D01*
X210741Y173338D01*
X210741Y173332D01*
X210191Y173373D01*
X209832Y173445D01*
X209833Y173447D01*
X209815Y173451D01*
X209546Y173630D01*
X209547Y173633D01*
X209508Y173659D01*
X209351Y173894D01*
X209349Y173901D01*
X209348Y173900D01*
X209279Y174245D01*
X209282Y174262D01*
X209283Y174262D01*
X209282Y174262D01*
X209282Y174262D01*
X209278Y174283D01*
X209354Y174663D01*
X209367Y174682D01*
X209372Y174680D01*
X209523Y174906D01*
X209629Y174977D01*
X209629Y174977D01*
X209866Y175136D01*
X210000Y175162D01*
X210000Y175163D01*
X210438Y175250D01*
X210454Y175247D01*
X210454Y175262D01*
X210467Y175264D01*
X210831Y175192D01*
D02*
G37*
G36*
X212234Y198589D02*
X212270Y198503D01*
X212267Y198502D01*
X212802Y195715D01*
X212837Y195629D01*
X212895Y195605D01*
X215229Y194639D01*
X215286Y194615D01*
X215372Y194650D01*
X215370Y194653D01*
X217719Y196246D01*
X217805Y196281D01*
X217920Y196234D01*
X217911Y196225D01*
X219928Y194225D01*
X219976Y194111D01*
X219940Y194025D01*
X219938Y194027D01*
X218345Y191677D01*
X218309Y191592D01*
X218333Y191534D01*
X219300Y189200D01*
X219324Y189143D01*
X219410Y189107D01*
X219410Y189110D01*
X222198Y188575D01*
X222283Y188540D01*
X222331Y188425D01*
X222319D01*
X222331Y185585D01*
Y185585D01*
X222283Y185470D01*
X222198Y185434D01*
X222197Y185438D01*
X219410Y184903D01*
X219324Y184867D01*
X219300Y184810D01*
X219300D01*
X218333Y182476D01*
X218309Y182418D01*
X218345Y182332D01*
X218347Y182334D01*
X219940Y179985D01*
X219976Y179899D01*
X219928Y179785D01*
X219920Y179793D01*
X217920Y177776D01*
X217805Y177728D01*
X217719Y177764D01*
X217721Y177767D01*
X215372Y179360D01*
X215286Y179395D01*
X215229Y179371D01*
X214160Y178929D01*
X214103Y178905D01*
X213988Y178952D01*
X213964Y179010D01*
X211996Y183830D01*
X211972Y183887D01*
X212020Y184002D01*
X212072Y184023D01*
X212073Y184021D01*
X212355Y184138D01*
X213041Y184664D01*
X213567Y185350D01*
X213897Y186148D01*
X214010Y187005D01*
X213897Y187862D01*
X213567Y188660D01*
X213041Y189346D01*
X212355Y189872D01*
X211556Y190203D01*
X210700Y190316D01*
X209843Y190203D01*
X209044Y189872D01*
X208358Y189346D01*
X207832Y188660D01*
X207502Y187862D01*
X207389Y187005D01*
X207502Y186148D01*
X207832Y185350D01*
X208358Y184664D01*
X209044Y184138D01*
X209326Y184021D01*
X209327Y184023D01*
X209379Y184002D01*
X209427Y183887D01*
X209403Y183830D01*
X207435Y179010D01*
X207411Y178952D01*
X207296Y178905D01*
X207239Y178929D01*
X206170Y179371D01*
X206113Y179395D01*
X206027Y179360D01*
X206029Y179357D01*
X203680Y177764D01*
X203594Y177728D01*
X203479Y177776D01*
X203488Y177785D01*
X201471Y179785D01*
X201423Y179899D01*
X201459Y179985D01*
X201461Y179983D01*
X203054Y182332D01*
X203090Y182418D01*
X203066Y182476D01*
X202099Y184810D01*
X202075Y184867D01*
X201990Y184903D01*
X201989Y184900D01*
X199202Y185434D01*
X199116Y185470D01*
X199068Y185585D01*
X199081D01*
X199068Y188425D01*
X199116Y188540D01*
X199202Y188575D01*
X199202Y188573D01*
X201990Y189107D01*
X202075Y189143D01*
X202099Y189200D01*
X202099D01*
X203066Y191534D01*
X203090Y191592D01*
X203054Y191677D01*
X203052Y191676D01*
X201459Y194025D01*
X201423Y194111D01*
X201471Y194225D01*
X201479Y194217D01*
X203479Y196234D01*
X203594Y196281D01*
X203680Y196246D01*
X203678Y196243D01*
X206027Y194650D01*
X206113Y194615D01*
X206170Y194639D01*
X208505Y195605D01*
X208562Y195629D01*
X208597Y195715D01*
X208594Y195716D01*
X209129Y198503D01*
X209165Y198589D01*
X209279Y198636D01*
X209279D01*
Y198624D01*
X212120Y198636D01*
X212120D01*
X212234Y198589D01*
D02*
G37*
G36*
X222537Y172991D02*
X222537Y172991D01*
X222535Y172992D01*
X222537Y172991D01*
D02*
G37*
G36*
X203553Y175149D02*
X203554Y175152D01*
X203566Y175150D01*
X203973Y174878D01*
X203969Y174874D01*
X204011Y174846D01*
X204262Y174470D01*
X204265Y174456D01*
X204267Y174456D01*
X204372Y173932D01*
X204367Y173909D01*
X204343Y173909D01*
Y173395D01*
X202395Y173396D01*
X202391Y173376D01*
X202455Y173057D01*
X202462Y173060D01*
X202569Y172801D01*
X202591Y172792D01*
X202613Y172815D01*
X202819Y172677D01*
X202853Y172670D01*
X202853Y172669D01*
X203139Y172612D01*
X203150Y172615D01*
X203150Y172613D01*
X203155Y172612D01*
X203503Y172681D01*
X203519Y172692D01*
X203519Y172692D01*
X203831Y172900D01*
X203843Y172918D01*
X203831Y172929D01*
X204290Y172537D01*
X204220Y172432D01*
X204039Y172311D01*
X204039Y172311D01*
X203786Y172142D01*
X203771Y172139D01*
X203774Y172133D01*
X203166Y172012D01*
X203161Y172013D01*
X203161Y172015D01*
X202687Y172110D01*
X202685Y172106D01*
X202570Y172129D01*
X202235Y172353D01*
X202235Y172353D01*
X202116Y172433D01*
X202039Y172548D01*
X202039D01*
X201903Y172751D01*
X201889Y172821D01*
X201883Y172819D01*
X201811Y173181D01*
X201815Y173181D01*
X201760Y173601D01*
X201762Y173619D01*
X201762Y173619D01*
X201760Y173635D01*
X201813Y174038D01*
X201808Y174038D01*
X201878Y174390D01*
X201883Y174388D01*
X201903Y174490D01*
X202019Y174664D01*
X202019Y174664D01*
X202132Y174834D01*
X202197Y174877D01*
X202193Y174881D01*
X202611Y175160D01*
X202612Y175160D01*
X202616Y175152D01*
X203066Y175241D01*
X203066Y175242D01*
X203076Y175244D01*
X203553Y175149D01*
D02*
G37*
G36*
X221880Y175245D02*
X221880Y175245D01*
X221887Y175247D01*
X222215Y175181D01*
Y175181D01*
X222407Y175143D01*
X222515Y175071D01*
X222516Y175074D01*
X222940Y174791D01*
X223007Y174690D01*
X222996Y174681D01*
X222538Y174272D01*
X222475Y174366D01*
X222248Y174518D01*
X222248Y174518D01*
X222197Y174552D01*
X221910Y174609D01*
X221904Y174608D01*
X221905Y174609D01*
X221885Y174613D01*
X221546Y174546D01*
X221547Y174543D01*
X221534Y174541D01*
X221327Y174403D01*
X221296Y174355D01*
X221296Y174355D01*
X221168Y174164D01*
X221146Y174051D01*
X221145Y174051D01*
X221065Y173653D01*
X221071Y173627D01*
X221071Y173628D01*
X221066Y173603D01*
X221145Y173206D01*
X221146Y173206D01*
X221168Y173095D01*
X221296Y172904D01*
X221296Y172903D01*
X221326Y172857D01*
X221533Y172719D01*
X221547Y172716D01*
X221547Y172714D01*
X221885Y172646D01*
X221905Y172650D01*
X221904Y172652D01*
X221910Y172651D01*
X222197Y172708D01*
X222249Y172743D01*
X222249Y172743D01*
X222470Y172891D01*
X222537Y172991D01*
X223007Y172570D01*
X222940Y172470D01*
X222516Y172187D01*
X222515Y172190D01*
X222411Y172120D01*
X222215Y172081D01*
X222215Y172081D01*
X221887Y172016D01*
X221880Y172017D01*
X221880Y172017D01*
X221873Y172016D01*
X221361Y172118D01*
X221359Y172114D01*
X221318Y172122D01*
X220900Y172401D01*
X220903Y172405D01*
X220830Y172454D01*
X220717Y172623D01*
X220717Y172623D01*
X220584Y172823D01*
X220570Y172893D01*
X220565Y172891D01*
X220497Y173232D01*
X220500Y173232D01*
X220449Y173614D01*
X220451Y173628D01*
X220451Y173628D01*
X220449Y173641D01*
X220500Y174024D01*
X220497Y174024D01*
X220565Y174365D01*
X220570Y174363D01*
X220584Y174435D01*
X220717Y174635D01*
X220717Y174634D01*
X220833Y174808D01*
X220903Y174855D01*
X220899Y174859D01*
X221323Y175142D01*
X221359Y175149D01*
X221361Y175145D01*
X221873Y175247D01*
X221880Y175245D01*
D02*
G37*
%LPC*%
G36*
X50868Y207855D02*
X44541D01*
Y207235D01*
X50850D01*
X50905Y207244D01*
X50970Y207272D01*
X51044Y207318D01*
X51063Y207336D01*
X51090Y207373D01*
X51118Y207448D01*
X51136Y207540D01*
Y207549D01*
Y207558D01*
X51127Y207614D01*
X51090Y207679D01*
X51072Y207716D01*
X51035Y207753D01*
Y207762D01*
X51016Y207771D01*
X50970Y207808D01*
X50905Y207836D01*
X50868Y207855D01*
D02*
G37*
G36*
X50822Y205893D02*
X44541D01*
Y205274D01*
X50841D01*
X50896Y205283D01*
X50961Y205311D01*
X51035Y205366D01*
X51044D01*
X51053Y205385D01*
X51090Y205431D01*
X51118Y205496D01*
X51136Y205542D01*
Y205588D01*
Y205597D01*
Y205607D01*
X51127Y205662D01*
X51090Y205736D01*
X51072Y205764D01*
X51035Y205801D01*
X51016Y205820D01*
X50970Y205847D01*
X50905Y205875D01*
X50822Y205893D01*
D02*
G37*
G36*
X112436Y207855D02*
X107747D01*
X107673Y207845D01*
X107589Y207836D01*
X107497Y207827D01*
X107404Y207799D01*
X107302Y207771D01*
X107210Y207725D01*
X107201Y207716D01*
X107173Y207706D01*
X107136Y207679D01*
X107080Y207642D01*
X106969Y207540D01*
X106859Y207411D01*
X106849Y207401D01*
X106840Y207383D01*
X106812Y207336D01*
X106784Y207290D01*
X106757Y207225D01*
X106729Y207161D01*
X106683Y206994D01*
Y206985D01*
X106674Y206957D01*
X106664Y206911D01*
Y206856D01*
X106655Y206791D01*
X106646Y206726D01*
X106637Y206569D01*
Y206559D01*
Y206532D01*
Y206495D01*
X106646Y206439D01*
Y206375D01*
X106655Y206300D01*
X106683Y206134D01*
Y206125D01*
X106692Y206097D01*
X106701Y206051D01*
X106720Y205995D01*
X106775Y205866D01*
X106859Y205718D01*
X106868Y205709D01*
X106886Y205690D01*
X106914Y205653D01*
X106951Y205607D01*
X106997Y205560D01*
X107062Y205505D01*
X107136Y205459D01*
X107210Y205403D01*
X107219Y205394D01*
X107247Y205385D01*
X107302Y205366D01*
X107367Y205339D01*
X107450Y205311D01*
X107552Y205292D01*
X107673Y205283D01*
X107802Y205274D01*
X112557D01*
X112501Y205218D01*
X112510D01*
X112547Y205227D01*
X112603Y205246D01*
X112677Y205264D01*
X112760Y205292D01*
X112843Y205320D01*
X113019Y205403D01*
X113028Y205413D01*
X113056Y205431D01*
X113102Y205459D01*
X113148Y205496D01*
X113269Y205588D01*
X113324Y205653D01*
X113380Y205718D01*
X113389Y205727D01*
X113398Y205755D01*
X113426Y205792D01*
X113454Y205847D01*
X113481Y205903D01*
X113509Y205977D01*
X113556Y206143D01*
Y206153D01*
X113565Y206180D01*
X113574Y206226D01*
X113583Y206282D01*
X113602Y206421D01*
X113611Y206569D01*
Y206578D01*
Y206606D01*
Y206643D01*
X113602Y206698D01*
Y206754D01*
X113593Y206828D01*
X113556Y206994D01*
Y207003D01*
X113546Y207031D01*
X113537Y207078D01*
X113519Y207133D01*
X113463Y207272D01*
X113380Y207411D01*
X113371Y207420D01*
X113352Y207438D01*
X113324Y207475D01*
X113287Y207522D01*
X113232Y207568D01*
X113176Y207623D01*
X113102Y207679D01*
X113019Y207725D01*
X113010Y207734D01*
X112982Y207744D01*
X112926Y207762D01*
X112862Y207790D01*
X112778Y207818D01*
X112677Y207836D01*
X112566Y207845D01*
X112436Y207855D01*
D02*
G37*
G36*
X200087Y174613D02*
X200078Y174611D01*
X200078Y174611D01*
X200068Y174612D01*
X199880Y174575D01*
X199878Y174584D01*
X199724Y174520D01*
X199725Y174520D01*
X199630Y174480D01*
X199548Y174282D01*
X199546Y174282D01*
X199417Y173635D01*
X199419Y173628D01*
X199419Y173628D01*
X199418Y173620D01*
X199546Y172976D01*
X199548Y172977D01*
X199630Y172780D01*
X199725Y172740D01*
X199724Y172740D01*
X199878Y172676D01*
X199880Y172685D01*
X200068Y172647D01*
X200078Y172649D01*
X200078Y172665D01*
X200078Y172649D01*
X200078Y172649D01*
X200078Y172649D01*
X200087Y172647D01*
X200276Y172684D01*
X200278Y172674D01*
X200432Y172738D01*
X200431Y172738D01*
X200532Y172780D01*
X200609Y172966D01*
X200613Y172965D01*
X200741Y173605D01*
X200736Y173628D01*
X200737Y173627D01*
X200741Y173650D01*
X200613Y174293D01*
X200609Y174291D01*
X200532Y174480D01*
X200431Y174521D01*
X200432Y174522D01*
X200278Y174586D01*
X200276Y174576D01*
X200087Y174613D01*
D02*
G37*
G36*
X221054Y169705D02*
X220804Y169656D01*
X220804Y169656D01*
X220799Y169655D01*
X220597Y169520D01*
X220593Y169514D01*
X220593Y169514D01*
X220462Y169317D01*
X220455Y169282D01*
X220452Y169282D01*
X220390Y168971D01*
X220407Y168971D01*
X221731Y168971D01*
X221669Y169283D01*
X221666Y169282D01*
X221660Y169315D01*
X221527Y169514D01*
X221527Y169513D01*
X221521Y169521D01*
X221320Y169656D01*
X221318Y169656D01*
X221318Y169656D01*
X221070Y169705D01*
X221062Y169704D01*
X221062Y169704D01*
X221054Y169705D01*
D02*
G37*
G36*
X208360Y169675D02*
X208171Y169638D01*
X208169Y169648D01*
X208015Y169584D01*
X208015Y169583D01*
X207914Y169541D01*
X207837Y169355D01*
X207833Y169356D01*
X207706Y168718D01*
X207710Y168696D01*
X207710Y168697D01*
X207710Y168696D01*
X207710Y168696D01*
X207705Y168671D01*
X207833Y168027D01*
X207837Y168028D01*
X207914Y167842D01*
X208015Y167800D01*
X208015Y167799D01*
X208169Y167736D01*
X208171Y167746D01*
X208360Y167708D01*
X208370Y167710D01*
X208370Y167711D01*
X208379Y167709D01*
X208566Y167746D01*
X208567Y167738D01*
X208720Y167801D01*
X208720Y167802D01*
X208814Y167841D01*
X208897Y168040D01*
X208899Y168039D01*
X209028Y168688D01*
X209027Y168697D01*
X209027Y168697D01*
X209028Y168701D01*
X208900Y169344D01*
X208897Y169343D01*
X208814Y169543D01*
X208720Y169581D01*
X208720Y169582D01*
X208567Y169645D01*
X208566Y169637D01*
X208379Y169674D01*
X208370Y169672D01*
X208370Y169656D01*
X208370Y169672D01*
X208370Y169672D01*
X208370Y169673D01*
X208360Y169675D01*
D02*
G37*
G36*
X196974Y174609D02*
X196696Y174554D01*
X196689Y174549D01*
X196694Y174538D01*
X196518Y174465D01*
X196480Y174373D01*
X196489Y174367D01*
X196392Y174222D01*
X196368Y174104D01*
X196369Y174104D01*
X196332Y173919D01*
X196334Y173919D01*
X196300Y173656D01*
X196303Y173635D01*
X196301Y173635D01*
X196298Y173613D01*
X196333Y173343D01*
X196331Y173344D01*
X196369Y173154D01*
X196368Y173154D01*
X196391Y173038D01*
X196488Y172893D01*
X196480Y172887D01*
X196518Y172795D01*
X196694Y172722D01*
X196689Y172711D01*
X196696Y172706D01*
X196974Y172651D01*
X196991Y172654D01*
X197007Y172651D01*
X197283Y172706D01*
X197291Y172711D01*
X197286Y172722D01*
X197467Y172797D01*
X197504Y172886D01*
X197494Y172893D01*
X197591Y173039D01*
X197613Y173153D01*
X197613Y173153D01*
X197650Y173340D01*
X197647Y173340D01*
X197682Y173606D01*
X197679Y173628D01*
X197647Y173628D01*
X197679Y173628D01*
X197679Y173628D01*
X197679D01*
X197682Y173650D01*
X197647Y173917D01*
X197650Y173917D01*
X197613Y174104D01*
X197614Y174104D01*
X197590Y174222D01*
X197493Y174367D01*
X197504Y174374D01*
X197467Y174463D01*
X197286Y174538D01*
X197291Y174549D01*
X197283Y174554D01*
X197007Y174609D01*
X196991Y174606D01*
X196992Y174605D01*
X196991Y174606D01*
X196991Y174606D01*
X196974Y174609D01*
D02*
G37*
G36*
X195679Y173635D02*
X195679Y173635D01*
X195712Y173635D01*
X195679Y173635D01*
D02*
G37*
G36*
X212099D02*
X212099Y173635D01*
X212132Y173635D01*
X212099Y173635D01*
D02*
G37*
G36*
X202940Y168466D02*
X202708Y168420D01*
X202707Y168425D01*
X202537Y168355D01*
X202539Y168352D01*
X202487Y168330D01*
X202445Y168230D01*
X202446Y168230D01*
X202386Y168086D01*
X202392Y168070D01*
X202390Y168071D01*
X202389Y168069D01*
X202449Y167926D01*
X202448Y167926D01*
X202498Y167806D01*
X202541Y167788D01*
X202536Y167784D01*
X202725Y167706D01*
X202726Y167709D01*
X202969Y167660D01*
X202987Y167664D01*
X202986Y167654D01*
X203038Y167644D01*
X203312Y167698D01*
X203314Y167681D01*
X203527Y167769D01*
X203527Y167768D01*
X203570Y167786D01*
X203591Y167835D01*
X203593Y167834D01*
X203634Y167933D01*
X203635Y167933D01*
X203687Y168195D01*
X203682Y168221D01*
X203668Y168220D01*
Y168448D01*
X202940Y168466D01*
D02*
G37*
G36*
X203058Y174644D02*
X202808Y174594D01*
X202808Y174594D01*
X202803Y174593D01*
X202602Y174459D01*
X202597Y174452D01*
X202597Y174452D01*
X202466Y174256D01*
X202459Y174220D01*
X202456Y174221D01*
X202394Y173909D01*
X202411Y173909D01*
X203736Y173909D01*
X203674Y174221D01*
X203670Y174220D01*
X203664Y174253D01*
X203531Y174452D01*
X203531Y174452D01*
X203525Y174460D01*
X203324Y174594D01*
X203322Y174595D01*
X203322Y174594D01*
X203074Y174644D01*
X203066Y174642D01*
X203066Y174642D01*
X203058Y174644D01*
D02*
G37*
G36*
X215586Y168466D02*
X215354Y168420D01*
X215352Y168425D01*
X215183Y168355D01*
X215185Y168352D01*
X215132Y168330D01*
X215091Y168230D01*
X215091Y168230D01*
X215031Y168086D01*
X215038Y168070D01*
X215036Y168071D01*
X215035Y168069D01*
X215094Y167926D01*
X215094Y167926D01*
X215143Y167806D01*
X215187Y167788D01*
X215182Y167784D01*
X215371Y167706D01*
X215372Y167709D01*
X215614Y167660D01*
X215632Y167664D01*
X215631Y167654D01*
X215683Y167644D01*
X215958Y167698D01*
X215960Y167681D01*
X216173Y167769D01*
X216173Y167768D01*
X216216Y167786D01*
X216236Y167835D01*
X216238Y167834D01*
X216279Y167933D01*
X216281Y167933D01*
X216333Y168195D01*
X216327Y168221D01*
X216314Y168220D01*
Y168448D01*
X215586Y168466D01*
D02*
G37*
G36*
X213394Y174609D02*
X213116Y174554D01*
X213109Y174549D01*
X213114Y174538D01*
X212938Y174465D01*
X212900Y174373D01*
X212909Y174367D01*
X212811Y174222D01*
X212788Y174104D01*
X212789Y174104D01*
X212752Y173919D01*
X212754Y173919D01*
X212720Y173656D01*
X212723Y173635D01*
X212721Y173635D01*
X212718Y173613D01*
X212753Y173343D01*
X212751D01*
X212789Y173154D01*
X212788Y173154D01*
X212811Y173038D01*
X212908Y172893D01*
X212900Y172887D01*
X212938Y172795D01*
X213114Y172722D01*
X213109Y172711D01*
X213116Y172706D01*
X213394Y172651D01*
X213411Y172654D01*
X213411Y172654D01*
X213411Y172654D01*
X213411Y172654D01*
X213427Y172651D01*
X213703Y172706D01*
X213711Y172711D01*
X213706Y172722D01*
X213887Y172797D01*
X213924Y172886D01*
X213913Y172893D01*
X214011Y173039D01*
X214033Y173153D01*
X214033Y173153D01*
X214070Y173340D01*
X214067Y173340D01*
X214102Y173606D01*
X214099Y173628D01*
X214099D01*
X214102Y173650D01*
X214067Y173917D01*
X214070Y173917D01*
X214033Y174104D01*
X214033Y174104D01*
X214010Y174222D01*
X213913Y174367D01*
X213924Y174374D01*
X213887Y174463D01*
X213706Y174538D01*
X213711Y174549D01*
X213703Y174554D01*
X213427Y174609D01*
X213411Y174606D01*
X213394Y174609D01*
D02*
G37*
G36*
X224451Y174644D02*
X224200Y174594D01*
X224200Y174594D01*
X224195Y174593D01*
X223994Y174459D01*
X223990Y174452D01*
X223989Y174452D01*
X223858Y174256D01*
X223851Y174220D01*
X223848Y174221D01*
X223786Y173909D01*
X223803Y173909D01*
X225128Y173909D01*
X225066Y174221D01*
X225063Y174220D01*
X225056Y174253D01*
X224923Y174452D01*
X224923Y174452D01*
X224918Y174460D01*
X224716Y174594D01*
X224714Y174595D01*
X224714Y174594D01*
X224466Y174644D01*
X224459Y174642D01*
X224459Y174642D01*
X224451Y174644D01*
D02*
G37*
%LPD*%
G36*
X214099Y173628D02*
X214067Y173628D01*
X214099Y173628D01*
X214099Y173628D01*
D02*
G37*
G36*
X196991Y172654D02*
X196991Y172654D01*
X196992Y172654D01*
X196991Y172654D01*
D02*
G37*
G36*
X112372Y207179D02*
X112381D01*
X112408Y207189D01*
X112455D01*
X112510Y207179D01*
X112575Y207170D01*
X112640Y207142D01*
X112714Y207105D01*
X112788Y207041D01*
X112797Y207031D01*
X112815Y207003D01*
X112853Y206966D01*
X112890Y206911D01*
X112917Y206837D01*
X112954Y206763D01*
X112973Y206670D01*
X112982Y206569D01*
Y206559D01*
Y206522D01*
X112973Y206467D01*
X112954Y206402D01*
X112936Y206328D01*
X112899Y206245D01*
X112853Y206171D01*
X112788Y206088D01*
X112778Y206079D01*
X112751Y206060D01*
X112714Y206023D01*
X112658Y205995D01*
X112584Y205958D01*
X112510Y205921D01*
X112418Y205903D01*
X112316Y205893D01*
X107885D01*
X107830Y205903D01*
X107765Y205921D01*
X107691Y205940D01*
X107608Y205977D01*
X107534Y206023D01*
X107450Y206088D01*
X107441Y206097D01*
X107423Y206125D01*
X107386Y206162D01*
X107358Y206217D01*
X107321Y206291D01*
X107284Y206375D01*
X107265Y206467D01*
X107256Y206569D01*
Y206578D01*
Y206615D01*
X107265Y206670D01*
X107284Y206735D01*
X107302Y206809D01*
X107340Y206883D01*
X107386Y206966D01*
X107450Y207041D01*
X107460Y207050D01*
X107487Y207068D01*
X107525Y207105D01*
X107580Y207142D01*
X107654Y207170D01*
X107737Y207207D01*
X107830Y207225D01*
X107931Y207235D01*
X112436D01*
X112372Y207179D01*
D02*
G37*
G36*
X213411Y174605D02*
X213411Y174606D01*
X213411Y174606D01*
X213411Y174605D01*
D02*
G37*
D35*
X192401Y13885D02*
Y17217D01*
X190735Y15551D02*
X194067D01*
X218801Y14085D02*
Y17417D01*
D36*
X23500Y81000D02*
X33500D01*
X23500Y71000D02*
X33500D01*
X23500Y61000D02*
X33500D01*
X23500Y51000D02*
X33500D01*
Y41000D02*
Y81000D01*
X23500Y41000D02*
Y81000D01*
Y41000D02*
X33500D01*
X188583Y-521D02*
Y10896D01*
Y53022D01*
X196300Y12985D02*
X198200Y11085D01*
X188583Y10896D02*
X224016D01*
X188583Y-521D02*
X224016D01*
X198200Y11085D02*
X204100D01*
X196300Y12985D02*
Y19285D01*
X188583Y53022D02*
X195763D01*
X196300Y19285D02*
X198100Y21085D01*
X204200D01*
X205900Y12885D02*
X207700Y11085D01*
X214600D01*
X204100D02*
X205900Y12885D01*
X214600Y11085D02*
X216300Y12785D01*
X224016Y-521D02*
Y10896D01*
X216300Y12785D02*
Y19485D01*
X224016Y10896D02*
Y31762D01*
X207600Y21085D02*
X214700D01*
X216300Y19485D01*
X204200Y21085D02*
X205900Y19385D01*
X207600Y21085D01*
X216537Y53022D02*
X224016D01*
Y50885D02*
Y53022D01*
X69042Y52474D02*
Y69010D01*
Y20190D02*
Y37120D01*
X118550Y20190D02*
Y37120D01*
X118746Y52080D02*
Y69010D01*
X69042Y20190D02*
X118550D01*
X69042Y69010D02*
X118746D01*
X233476Y47449D02*
X251193D01*
X233476D02*
Y70677D01*
X251193Y47449D02*
Y70677D01*
X233476D02*
X251193D01*
X23500Y37499D02*
X24833D01*
X24167D01*
Y33500D01*
X23500D01*
X24833D01*
X29498D02*
X26832D01*
X29498Y36166D01*
Y36832D01*
X28832Y37499D01*
X27499D01*
X26832Y36832D01*
X33497Y36166D02*
X31497D01*
X30831Y35499D01*
Y34166D01*
X31497Y33500D01*
X33497D01*
X166300Y25299D02*
Y21300D01*
X168966D01*
X172965Y25299D02*
X170299D01*
Y21300D01*
X172965D01*
X170299Y23299D02*
X171632D01*
X174297Y25299D02*
Y21300D01*
X176297D01*
X176963Y21967D01*
Y24632D01*
X176297Y25299D01*
X174297D01*
X178296Y21300D02*
X179629D01*
X178963D01*
Y25299D01*
X178296Y24632D01*
X201500Y58500D02*
Y62499D01*
X203499D01*
X204166Y61832D01*
Y60499D01*
X203499Y59833D01*
X201500D01*
X205499Y62499D02*
Y58500D01*
X206832Y59833D01*
X208165Y58500D01*
Y62499D01*
X209497Y58500D02*
Y62499D01*
X211497D01*
X212163Y61832D01*
Y60499D01*
X211497Y59833D01*
X209497D01*
X210830D02*
X212163Y58500D01*
X213496D02*
X214829D01*
X214163D01*
Y62499D01*
X213496Y61832D01*
X75000Y17999D02*
Y14000D01*
X77666D01*
X78999D02*
X80332D01*
X79665D01*
Y17999D01*
X78999Y17332D01*
X200866Y72732D02*
X200199Y73399D01*
X198866D01*
X198200Y72732D01*
Y70066D01*
X198866Y69400D01*
X200199D01*
X200866Y70066D01*
X202199Y69400D02*
X203532D01*
X202865D01*
Y73399D01*
X202199Y72732D01*
X70166Y81832D02*
X69499Y82499D01*
X68166D01*
X67500Y81832D01*
Y79166D01*
X68166Y78500D01*
X69499D01*
X70166Y79166D01*
X74164Y78500D02*
X71499D01*
X74164Y81166D01*
Y81832D01*
X73498Y82499D01*
X72165D01*
X71499Y81832D01*
X171500Y58999D02*
Y55000D01*
X173499D01*
X174166Y55666D01*
Y58332D01*
X173499Y58999D01*
X171500D01*
X178165Y55000D02*
X175499D01*
X178165Y57666D01*
Y58332D01*
X177498Y58999D01*
X176165D01*
X175499Y58332D01*
X151000Y84499D02*
Y80500D01*
X152999D01*
X153666Y81166D01*
Y83832D01*
X152999Y84499D01*
X151000D01*
X154999Y83832D02*
X155665Y84499D01*
X156998D01*
X157665Y83832D01*
Y83166D01*
X156998Y82499D01*
X156332D01*
X156998D01*
X157665Y81833D01*
Y81166D01*
X156998Y80500D01*
X155665D01*
X154999Y81166D01*
X164300Y3400D02*
X160301D01*
Y5399D01*
X160968Y6066D01*
X162301D01*
X162967Y5399D01*
Y3400D01*
Y4733D02*
X164300Y6066D01*
X160968Y7399D02*
X160301Y8065D01*
Y9398D01*
X160968Y10064D01*
X161634D01*
X162301Y9398D01*
Y8732D01*
Y9398D01*
X162967Y10064D01*
X163634D01*
X164300Y9398D01*
Y8065D01*
X163634Y7399D01*
X164300Y11397D02*
Y12730D01*
Y12064D01*
X160301D01*
X160968Y11397D01*
X94432Y146734D02*
X95099Y147401D01*
Y148733D01*
X94432Y149400D01*
X91766D01*
X91100Y148733D01*
Y147401D01*
X91766Y146734D01*
X95099Y145401D02*
Y142736D01*
X94432D01*
X91766Y145401D01*
X91100D01*
X104700Y146100D02*
X108699D01*
Y144101D01*
X108032Y143434D01*
X106699D01*
X106033Y144101D01*
Y146100D01*
Y144767D02*
X104700Y143434D01*
Y142101D02*
X107366D01*
X108699Y140768D01*
X107366Y139436D01*
X104700D01*
X106699D01*
Y142101D01*
X108699Y135437D02*
Y138103D01*
X106699D01*
X107366Y136770D01*
Y136103D01*
X106699Y135437D01*
X105367D01*
X104700Y136103D01*
Y137436D01*
X105367Y138103D01*
X175666Y177332D02*
X174999Y177999D01*
X173667D01*
X173000Y177332D01*
Y174667D01*
X173667Y174000D01*
X174999D01*
X175666Y174667D01*
X176999Y174000D02*
Y177999D01*
X179665Y174000D01*
Y177999D01*
X183663Y174000D02*
X180997D01*
X183663Y176666D01*
Y177332D01*
X182997Y177999D01*
X181664D01*
X180997Y177332D01*
X235068Y140566D02*
X234401Y139899D01*
Y138567D01*
X235068Y137900D01*
X237734D01*
X238400Y138567D01*
Y139899D01*
X237734Y140566D01*
X238400Y141899D02*
Y143232D01*
Y142565D01*
X234401D01*
X235068Y141899D01*
Y145231D02*
X234401Y145897D01*
Y147230D01*
X235068Y147897D01*
X235734D01*
X236401Y147230D01*
Y146564D01*
Y147230D01*
X237067Y147897D01*
X237734D01*
X238400Y147230D01*
Y145897D01*
X237734Y145231D01*
X204400Y152199D02*
Y148200D01*
X206399D01*
X207066Y148866D01*
Y151532D01*
X206399Y152199D01*
X204400D01*
X210398Y148200D02*
Y152199D01*
X208399Y150199D01*
X211065D01*
X215200Y79499D02*
Y75500D01*
X217866D01*
X221865D02*
X219199D01*
X221865Y78166D01*
Y78832D01*
X221198Y79499D01*
X219865D01*
X219199Y78832D01*
X245600Y138100D02*
X241601D01*
Y140099D01*
X242268Y140766D01*
X243601D01*
X244267Y140099D01*
Y138100D01*
Y139433D02*
X245600Y140766D01*
Y142099D02*
Y143432D01*
Y142765D01*
X241601D01*
X242268Y142099D01*
X245600Y148097D02*
Y145431D01*
X242934Y148097D01*
X242268D01*
X241601Y147430D01*
Y146097D01*
X242268Y145431D01*
X225000Y113499D02*
Y110167D01*
X225666Y109500D01*
X226999D01*
X227666Y110167D01*
Y113499D01*
X230998Y109500D02*
Y113499D01*
X228999Y111499D01*
X231664D01*
X226566Y165032D02*
X225899Y165699D01*
X224566D01*
X223900Y165032D01*
Y162366D01*
X224566Y161700D01*
X225899D01*
X226566Y162366D01*
X227899Y161700D02*
X229232D01*
X228565D01*
Y165699D01*
X227899Y165032D01*
X231231Y161700D02*
X232564D01*
X231897D01*
Y165699D01*
X231231Y165032D01*
X120501Y56000D02*
X123167D01*
X124500Y57333D01*
X123167Y58666D01*
X120501D01*
X124500Y59999D02*
X120501D01*
Y61998D01*
X121168Y62665D01*
X122501D01*
X123167Y61998D01*
Y59999D01*
Y61332D02*
X124500Y62665D01*
Y63997D02*
Y65330D01*
Y64664D01*
X120501D01*
X121168Y63997D01*
X950Y180050D02*
Y184049D01*
X2949D01*
X3616Y183382D01*
Y182049D01*
X2949Y181383D01*
X950D01*
X2283D02*
X3616Y180050D01*
X6948Y184049D02*
X5615D01*
X4949Y183382D01*
Y180717D01*
X5615Y180050D01*
X6948D01*
X7615Y180717D01*
Y183382D01*
X6948Y184049D01*
X8947D02*
X11613D01*
X10280D01*
Y180050D01*
X236166Y44499D02*
X233500D01*
Y42499D01*
X234833Y43166D01*
X235499D01*
X236166Y42499D01*
Y41166D01*
X235499Y40500D01*
X234166D01*
X233500Y41166D01*
X237499Y43166D02*
X238832Y40500D01*
X240164Y43166D01*
X242164Y40500D02*
X243497D01*
X244163Y41166D01*
Y42499D01*
X243497Y43166D01*
X242164D01*
X241497Y42499D01*
Y41166D01*
X242164Y40500D01*
X245496Y43166D02*
Y41166D01*
X246163Y40500D01*
X248162D01*
Y43166D01*
X250161Y43832D02*
Y43166D01*
X249495D01*
X250828D01*
X250161D01*
Y41166D01*
X250828Y40500D01*
X32600Y2500D02*
Y6499D01*
X34599D01*
X35266Y5832D01*
Y4499D01*
X34599Y3833D01*
X32600D01*
X39265Y5832D02*
X38598Y6499D01*
X37265D01*
X36599Y5832D01*
Y3167D01*
X37265Y2500D01*
X38598D01*
X39265Y3167D01*
X40597Y6499D02*
Y2500D01*
X42597D01*
X43263Y3167D01*
Y3833D01*
X42597Y4499D01*
X40597D01*
X42597D01*
X43263Y5166D01*
Y5832D01*
X42597Y6499D01*
X40597D01*
X44596Y4499D02*
X47262D01*
X48595Y2500D02*
X49928D01*
X49261D01*
Y6499D01*
X48595Y5832D01*
X54593Y6499D02*
X51927D01*
Y4499D01*
X53260Y5166D01*
X53926D01*
X54593Y4499D01*
Y3167D01*
X53926Y2500D01*
X52594D01*
X51927Y3167D01*
X55926Y5832D02*
X56592Y6499D01*
X57925D01*
X58592Y5832D01*
Y3167D01*
X57925Y2500D01*
X56592D01*
X55926Y3167D01*
Y5832D01*
X59925D02*
X60591Y6499D01*
X61924D01*
X62590Y5832D01*
Y3167D01*
X61924Y2500D01*
X60591D01*
X59925Y3167D01*
Y5832D01*
X63923Y2500D02*
X65256D01*
X64590D01*
Y6499D01*
X63923Y5832D01*
X67256Y4499D02*
X69921D01*
X71254Y5832D02*
X71921Y6499D01*
X73254D01*
X73920Y5832D01*
Y3167D01*
X73254Y2500D01*
X71921D01*
X71254Y3167D01*
Y5832D01*
X75253Y2500D02*
X76586D01*
X75919D01*
Y6499D01*
X75253Y5832D01*
X78585Y4499D02*
X81251D01*
X84583Y6499D02*
X83250D01*
X82584Y5832D01*
Y3167D01*
X83250Y2500D01*
X84583D01*
X85250Y3167D01*
Y5832D01*
X84583Y6499D01*
X89248Y5832D02*
X88582Y6499D01*
X87249D01*
X86583Y5832D01*
Y5166D01*
X87249Y4499D01*
X88582D01*
X89248Y3833D01*
Y3167D01*
X88582Y2500D01*
X87249D01*
X86583Y3167D01*
X90581Y6499D02*
Y2500D01*
Y4499D01*
X93247D01*
Y6499D01*
Y2500D01*
X244666Y108332D02*
X243999Y108999D01*
X242666D01*
X242000Y108332D01*
Y105666D01*
X242666Y105000D01*
X243999D01*
X244666Y105666D01*
X245999Y105000D02*
X247332D01*
X246665D01*
Y108999D01*
X245999Y108332D01*
X249331D02*
X249997Y108999D01*
X251330D01*
X251997Y108332D01*
Y105666D01*
X251330Y105000D01*
X249997D01*
X249331Y105666D01*
Y108332D01*
X249068Y140666D02*
X248401Y139999D01*
Y138666D01*
X249068Y138000D01*
X251734D01*
X252400Y138666D01*
Y139999D01*
X251734Y140666D01*
X252400Y141999D02*
Y143332D01*
Y142665D01*
X248401D01*
X249068Y141999D01*
X252400Y147997D02*
Y145331D01*
X249734Y147997D01*
X249068D01*
X248401Y147330D01*
Y145997D01*
X249068Y145331D01*
X134500Y146000D02*
X138499D01*
Y144001D01*
X137832Y143334D01*
X136499D01*
X135833Y144001D01*
Y146000D01*
Y144667D02*
X134500Y143334D01*
Y142001D02*
X137166D01*
X138499Y140668D01*
X137166Y139336D01*
X134500D01*
X136499D01*
Y142001D01*
X134500Y135337D02*
Y138003D01*
X137166Y135337D01*
X137832D01*
X138499Y136003D01*
Y137336D01*
X137832Y138003D01*
X114500Y146000D02*
X118499D01*
Y144001D01*
X117832Y143334D01*
X116499D01*
X115833Y144001D01*
Y146000D01*
Y144667D02*
X114500Y143334D01*
Y142001D02*
X117166D01*
X118499Y140668D01*
X117166Y139336D01*
X114500D01*
X116499D01*
Y142001D01*
X114500Y136003D02*
X118499D01*
X116499Y138003D01*
Y135337D01*
X125500Y146000D02*
X129499D01*
Y144001D01*
X128832Y143334D01*
X127499D01*
X126833Y144001D01*
Y146000D01*
Y144667D02*
X125500Y143334D01*
Y142001D02*
X128166D01*
X129499Y140668D01*
X128166Y139336D01*
X125500D01*
X127499D01*
Y142001D01*
X128832Y138003D02*
X129499Y137336D01*
Y136003D01*
X128832Y135337D01*
X128166D01*
X127499Y136003D01*
Y136670D01*
Y136003D01*
X126833Y135337D01*
X126166D01*
X125500Y136003D01*
Y137336D01*
X126166Y138003D01*
X164000Y156000D02*
X167999D01*
Y154001D01*
X167332Y153334D01*
X165999D01*
X165333Y154001D01*
Y156000D01*
Y154667D02*
X164000Y153334D01*
Y152001D02*
X166666D01*
X167999Y150668D01*
X166666Y149336D01*
X164000D01*
X165999D01*
Y152001D01*
X164000Y148003D02*
Y146670D01*
Y147336D01*
X167999D01*
X167332Y148003D01*
X33666Y180332D02*
X32999Y180999D01*
X31666D01*
X31000Y180332D01*
Y177666D01*
X31666Y177000D01*
X32999D01*
X33666Y177666D01*
X37664Y180999D02*
X36332Y180332D01*
X34999Y178999D01*
Y177666D01*
X35665Y177000D01*
X36998D01*
X37664Y177666D01*
Y178333D01*
X36998Y178999D01*
X34999D01*
X134800Y3700D02*
X130801D01*
Y5699D01*
X131468Y6366D01*
X132801D01*
X133467Y5699D01*
Y3700D01*
Y5033D02*
X134800Y6366D01*
Y10364D02*
Y7699D01*
X132134Y10364D01*
X131468D01*
X130801Y9698D01*
Y8365D01*
X131468Y7699D01*
X134134Y11697D02*
X134800Y12364D01*
Y13697D01*
X134134Y14363D01*
X131468D01*
X130801Y13697D01*
Y12364D01*
X131468Y11697D01*
X132134D01*
X132801Y12364D01*
Y14363D01*
X152400Y3400D02*
X148401D01*
Y5399D01*
X149068Y6066D01*
X150401D01*
X151067Y5399D01*
Y3400D01*
Y4733D02*
X152400Y6066D01*
Y10064D02*
Y7399D01*
X149734Y10064D01*
X149068D01*
X148401Y9398D01*
Y8065D01*
X149068Y7399D01*
X148401Y11397D02*
Y14063D01*
X149068D01*
X151734Y11397D01*
X152400D01*
X123568Y39666D02*
X122901Y38999D01*
Y37666D01*
X123568Y37000D01*
X126233D01*
X126900Y37666D01*
Y38999D01*
X126233Y39666D01*
X122901Y43665D02*
Y40999D01*
X124901D01*
X124234Y42332D01*
Y42998D01*
X124901Y43665D01*
X126233D01*
X126900Y42998D01*
Y41665D01*
X126233Y40999D01*
X123868Y9966D02*
X123201Y9299D01*
Y7966D01*
X123868Y7300D01*
X126533D01*
X127200Y7966D01*
Y9299D01*
X126533Y9966D01*
X127200Y13298D02*
X123201D01*
X125201Y11299D01*
Y13964D01*
X174191Y2809D02*
X170193D01*
Y4809D01*
X170859Y5475D01*
X172192D01*
X172858Y4809D01*
Y2809D01*
Y4142D02*
X174191Y5475D01*
Y9474D02*
Y6808D01*
X171526Y9474D01*
X170859D01*
X170193Y8807D01*
Y7475D01*
X170859Y6808D01*
Y10807D02*
X170193Y11473D01*
Y12806D01*
X170859Y13473D01*
X171526D01*
X172192Y12806D01*
Y12140D01*
Y12806D01*
X172858Y13473D01*
X173525D01*
X174191Y12806D01*
Y11473D01*
X173525Y10807D01*
X50000Y17499D02*
Y13500D01*
X51999D01*
X52666Y14166D01*
Y16832D01*
X51999Y17499D01*
X50000D01*
X53999Y13500D02*
X55332D01*
X54665D01*
Y17499D01*
X53999Y16832D01*
X218666Y119832D02*
X217999Y120499D01*
X216666D01*
X216000Y119832D01*
Y117166D01*
X216666Y116500D01*
X217999D01*
X218666Y117166D01*
X219999Y116500D02*
X221332D01*
X220665D01*
Y120499D01*
X219999Y119832D01*
X225330Y116500D02*
Y120499D01*
X223331Y118499D01*
X225997D01*
X238400Y78999D02*
Y75000D01*
X241066D01*
X242399Y78332D02*
X243065Y78999D01*
X244398D01*
X245064Y78332D01*
Y77666D01*
X244398Y76999D01*
X243732D01*
X244398D01*
X245064Y76333D01*
Y75666D01*
X244398Y75000D01*
X243065D01*
X242399Y75666D01*
X42500Y35500D02*
X38501D01*
Y37499D01*
X39168Y38166D01*
X40501D01*
X41167Y37499D01*
Y35500D01*
Y36833D02*
X42500Y38166D01*
Y42164D02*
Y39499D01*
X39834Y42164D01*
X39168D01*
X38501Y41498D01*
Y40165D01*
X39168Y39499D01*
X42500Y45497D02*
X38501D01*
X40501Y43497D01*
Y46163D01*
X42500Y75000D02*
X38501D01*
Y76999D01*
X39168Y77666D01*
X40501D01*
X41167Y76999D01*
Y75000D01*
Y76333D02*
X42500Y77666D01*
Y81665D02*
Y78999D01*
X39834Y81665D01*
X39168D01*
X38501Y80998D01*
Y79665D01*
X39168Y78999D01*
X38501Y85663D02*
Y82997D01*
X40501D01*
X39834Y84330D01*
Y84997D01*
X40501Y85663D01*
X41834D01*
X42500Y84997D01*
Y83664D01*
X41834Y82997D01*
X228000Y54999D02*
X230666D01*
X228500Y64499D02*
X231166D01*
X229833Y65832D02*
Y63166D01*
X2500Y77332D02*
X3167Y77999D01*
X4499D01*
X5166Y77332D01*
Y76666D01*
X4499Y75999D01*
X3833D01*
X4499D01*
X5166Y75333D01*
Y74666D01*
X4499Y74000D01*
X3167D01*
X2500Y74666D01*
X6499Y74000D02*
Y74666D01*
X7165D01*
Y74000D01*
X6499D01*
X9831Y77332D02*
X10497Y77999D01*
X11830D01*
X12497Y77332D01*
Y76666D01*
X11830Y75999D01*
X11164D01*
X11830D01*
X12497Y75333D01*
Y74666D01*
X11830Y74000D01*
X10497D01*
X9831Y74666D01*
X13830Y77999D02*
Y75333D01*
X15163Y74000D01*
X16496Y75333D01*
Y77999D01*
X5166Y67332D02*
X4499Y67999D01*
X3167D01*
X2500Y67332D01*
Y66666D01*
X3167Y65999D01*
X4499D01*
X5166Y65333D01*
Y64666D01*
X4499Y64000D01*
X3167D01*
X2500Y64666D01*
X6499Y67999D02*
Y64000D01*
X8498D01*
X9165Y64666D01*
Y67332D01*
X8498Y67999D01*
X6499D01*
X10497Y64000D02*
Y66666D01*
X11830Y67999D01*
X13163Y66666D01*
Y64000D01*
Y65999D01*
X10497D01*
X5166Y57832D02*
X4499Y58499D01*
X3167D01*
X2500Y57832D01*
Y57166D01*
X3167Y56499D01*
X4499D01*
X5166Y55833D01*
Y55166D01*
X4499Y54500D01*
X3167D01*
X2500Y55166D01*
X9165Y57832D02*
X8498Y58499D01*
X7165D01*
X6499Y57832D01*
Y55166D01*
X7165Y54500D01*
X8498D01*
X9165Y55166D01*
X10497Y58499D02*
Y54500D01*
X13163D01*
X5166Y46832D02*
X4499Y47499D01*
X3167D01*
X2500Y46832D01*
Y44166D01*
X3167Y43500D01*
X4499D01*
X5166Y44166D01*
Y45499D01*
X3833D01*
X6499Y43500D02*
Y47499D01*
X9165Y43500D01*
Y47499D01*
X10497D02*
Y43500D01*
X12497D01*
X13163Y44166D01*
Y46832D01*
X12497Y47499D01*
X10497D01*
D58*
X214069Y147499D02*
G03*
X214069Y147499I-300J0D01*
G01*
X240437Y122626D02*
G03*
X240437Y122626I-300J0D01*
G01*
X210650Y90630D02*
Y94370D01*
X229350Y90630D02*
Y94370D01*
X232450Y90630D02*
Y94370D01*
X251150Y90630D02*
Y94370D01*
X216431Y135294D02*
X220369D01*
X216431D02*
Y147106D01*
X220369Y135294D02*
Y147106D01*
X216431D02*
X220369D01*
X232263Y113763D02*
X232558D01*
X232263D02*
Y121637D01*
X234724Y113763D02*
X235117D01*
X232263Y121637D02*
X232558D01*
X234724D02*
X235117D01*
X237283Y113763D02*
X237676D01*
X239842D02*
X240137D01*
Y121637D01*
X237283D02*
X237676D01*
X239842D02*
X240137D01*
D59*
X212072Y184023D02*
G03*
X211996Y183830I63J-136D01*
G01*
X213964Y179010D02*
G03*
X214160Y178929I139J57D01*
G01*
X215370Y179357D02*
G03*
X215229Y179371I-84J-124D01*
G01*
X217721Y177767D02*
G03*
X217911Y177785I84J124D01*
G01*
X219920Y179793D02*
G03*
X219938Y179983I-106J106D01*
G01*
X218333Y182476D02*
G03*
X218347Y182334I139J-57D01*
G01*
X219410Y184900D02*
G03*
X219300Y184810I28J-147D01*
G01*
X222197Y185438D02*
G03*
X222319Y185585I-28J147D01*
G01*
Y188425D02*
G03*
X222197Y188573I-150J0D01*
G01*
X219300Y189200D02*
G03*
X219410Y189110I139J57D01*
G01*
X218347Y191676D02*
G03*
X218333Y191534I124J-84D01*
G01*
X219938Y194027D02*
G03*
X219920Y194217I-124J84D01*
G01*
X217911Y196225D02*
G03*
X217721Y196243I-106J-106D01*
G01*
X215229Y194639D02*
G03*
X215370Y194653I57J139D01*
G01*
X212805Y195716D02*
G03*
X212895Y195605I147J28D01*
G01*
X212267Y198502D02*
G03*
X212120Y198624I-147J-28D01*
G01*
X209279D02*
G03*
X209132Y198502I-0J-150D01*
G01*
X208505Y195605D02*
G03*
X208594Y195716I-57J139D01*
G01*
X206029Y194653D02*
G03*
X206170Y194639I84J124D01*
G01*
X203678Y196243D02*
G03*
X203488Y196225I-84J-124D01*
G01*
X201479Y194217D02*
G03*
X201461Y194027I106J-106D01*
G01*
X203066Y191534D02*
G03*
X203052Y191676I-139J57D01*
G01*
X201989Y189110D02*
G03*
X202099Y189200I-28J147D01*
G01*
X199202Y188573D02*
G03*
X199081Y188425I28J-147D01*
G01*
Y185585D02*
G03*
X199202Y185438I150J0D01*
G01*
X202099Y184810D02*
G03*
X201989Y184900I-139J-57D01*
G01*
X203052Y182334D02*
G03*
X203066Y182476I-124J84D01*
G01*
X201461Y179983D02*
G03*
X201479Y179793I124J-84D01*
G01*
X203488Y177785D02*
G03*
X203678Y177767I106J106D01*
G01*
X206170Y179371D02*
G03*
X206029Y179357I-57J-139D01*
G01*
X207239Y178929D02*
G03*
X207435Y179010I57J139D01*
G01*
X209403Y183830D02*
G03*
X209327Y184023I-139J57D01*
G01*
X212072D02*
G03*
X209327Y184023I-1372J2982D01*
G01*
X199509Y169269D02*
G03*
X199465Y168989I786J-266D01*
G01*
X199640Y169480D02*
G03*
X199509Y169269I402J-396D01*
G01*
X199838Y169612D02*
G03*
X199640Y169480I215J-537D01*
G01*
X200083Y169656D02*
G03*
X199838Y169612I-8J-657D01*
G01*
X200323D02*
G03*
X200083Y169656I-232J-589D01*
G01*
X200519Y169480D02*
G03*
X200323Y169612I-417J-408D01*
G01*
X200651Y169269D02*
G03*
X200519Y169480I-533J-186D01*
G01*
X200694Y168989D02*
G03*
X200651Y169269I-830J14D01*
G01*
X201319Y169204D02*
G03*
X201297Y169452I-1386J7D01*
G01*
D02*
G03*
X201234Y169668I-1017J-180D01*
G01*
Y169668D02*
G03*
X200982Y170006I-793J-329D01*
G01*
Y170006D02*
G03*
X200640Y170212I-830J-992D01*
G01*
D02*
G03*
X200284Y170280I-357J-894D01*
G01*
D02*
G03*
X199824Y170188I-20J-1100D01*
G01*
D02*
G03*
X199477Y169913I389J-848D01*
G01*
X199465Y172408D02*
G03*
X199832Y172142I1068J1086D01*
G01*
D02*
G03*
X200267Y172044I420J847D01*
G01*
X200267D02*
G03*
X200532Y172072I8J1187D01*
G01*
D02*
G03*
X200757Y172156I-191J858D01*
G01*
D02*
G03*
X201098Y172444I-498J934D01*
G01*
D02*
G03*
X201273Y172833I-729J562D01*
G01*
D02*
G03*
X201307Y173144I-2252J407D01*
G01*
D02*
G03*
X201319Y173628I-8589J446D01*
G01*
D02*
G03*
X201307Y174115I-8687J39D01*
G01*
D02*
G03*
X201273Y174425I-2267J-94D01*
G01*
X201273Y174425D02*
G03*
X201098Y174816I-925J-181D01*
G01*
X201098Y174816D02*
G03*
X200757Y175104I-872J-685D01*
G01*
D02*
G03*
X200532Y175190I-419J-758D01*
G01*
D02*
G03*
X200267Y175219I-256J-1129D01*
G01*
D02*
G03*
X199828Y175128I-11J-1055D01*
G01*
D02*
G03*
X199465Y174857I458J-993D01*
G01*
X223857Y174218D02*
G03*
X223803Y173909I938J-321D01*
G01*
X223997Y174445D02*
G03*
X223857Y174218I440J-429D01*
G01*
X224204Y174584D02*
G03*
X223997Y174445I229J-564D01*
G01*
X224459Y174630D02*
G03*
X224204Y174584I-8J-676D01*
G01*
X224710Y174584D02*
G03*
X224459Y174630I-243J-614D01*
G01*
X224916Y174445D02*
G03*
X224710Y174584I-437J-424D01*
G01*
X225057Y174218D02*
G03*
X224916Y174445I-591J-210D01*
G01*
X225113Y173909D02*
G03*
X225057Y174218I-1013J-25D01*
G01*
X209094Y172596D02*
G03*
X209731Y172182I1426J1496D01*
G01*
D02*
G03*
X210460Y172044I716J1787D01*
G01*
D02*
G03*
X210957Y172106I17J1887D01*
G01*
D02*
G03*
X211371Y172292I-365J1368D01*
G01*
D02*
G03*
X211651Y172593I-443J694D01*
G01*
D02*
G03*
X211745Y172998I-759J389D01*
G01*
D02*
G03*
X211693Y173340I-1083J9D01*
G01*
D02*
G03*
X211536Y173630I-896J-296D01*
G01*
D02*
G03*
X211259Y173837I-541J-436D01*
G01*
Y173837D02*
G03*
X211069Y173897I-409J-963D01*
G01*
Y173897D02*
G03*
X210846Y173928I-321J-1498D01*
G01*
X210133Y173998D02*
G03*
X210332Y173963I247J829D01*
G01*
X210009Y174067D02*
G03*
X210133Y173998I207J224D01*
G01*
X209943Y174158D02*
G03*
X210009Y174067I285J136D01*
G01*
X209922Y174256D02*
G03*
X209943Y174158I232J0D01*
G01*
X210039Y174524D02*
G03*
X209922Y174256I230J-260D01*
G01*
X210201Y174604D02*
G03*
X210039Y174524I80J-367D01*
G01*
X210454Y174630D02*
G03*
X210201Y174604I-19J-1036D01*
G01*
X210902Y174549D02*
G03*
X210454Y174630I-428J-1090D01*
G01*
X211284Y174342D02*
G03*
X210902Y174549I-1178J-1717D01*
G01*
X211670Y174797D02*
G03*
X211150Y175104I-1202J-1443D01*
G01*
D02*
G03*
X210831Y175190I-562J-1451D01*
G01*
Y175190D02*
G03*
X210454Y175219I-364J-2295D01*
G01*
Y175219D02*
G03*
X210001Y175158I-16J-1601D01*
G01*
D02*
G03*
X209629Y174976I331J-1148D01*
G01*
Y174976D02*
G03*
X209381Y174676I447J-624D01*
G01*
D02*
G03*
X209298Y174262I893J-394D01*
G01*
X209298D02*
G03*
X209361Y173906I940J-17D01*
G01*
X209361D02*
G03*
X209552Y173637I660J266D01*
G01*
X209552Y173637D02*
G03*
X209839Y173462I640J724D01*
G01*
Y173462D02*
G03*
X210191Y173384I430J1115D01*
G01*
X210907Y173301D02*
G03*
X210741Y173332I-222J-719D01*
G01*
X211026Y173240D02*
G03*
X210907Y173301I-227J-295D01*
G01*
X211097Y173149D02*
G03*
X211026Y173240I-221J-100D01*
G01*
X211121Y173028D02*
G03*
X211097Y173149I-292J5D01*
G01*
X211078Y172855D02*
G03*
X211121Y173028I-295J166D01*
G01*
X210947Y172730D02*
G03*
X211078Y172855I-167J304D01*
G01*
X210751Y172654D02*
G03*
X210947Y172730I-151J686D01*
G01*
X210508Y172629D02*
G03*
X210751Y172654I10J1088D01*
G01*
X209978Y172729D02*
G03*
X210508Y172629I517J1291D01*
G01*
X209530Y173028D02*
G03*
X209978Y172729I979J983D01*
G01*
X225735Y173909D02*
G03*
X225640Y174448I-1439J23D01*
G01*
Y174448D02*
G03*
X225353Y174864I-1056J-422D01*
G01*
D02*
G03*
X224938Y175130I-914J-970D01*
G01*
Y175130D02*
G03*
X224459Y175219I-469J-1199D01*
G01*
Y175219D02*
G03*
X224016Y175132I1J-1181D01*
G01*
D02*
G03*
X223593Y174872I601J-1455D01*
G01*
D02*
G03*
X223412Y174664I581J-688D01*
G01*
D02*
G03*
X223283Y174386I1047J-655D01*
G01*
X223283D02*
G03*
X223205Y174038I1845J-594D01*
G01*
D02*
G03*
X223179Y173619I3112J-402D01*
G01*
X223179D02*
G03*
X223207Y173181I3150J-18D01*
G01*
X223207D02*
G03*
X223291Y172824I1825J241D01*
G01*
X223291Y172824D02*
G03*
X223431Y172548I1050J359D01*
G01*
Y172548D02*
G03*
X223627Y172353I650J458D01*
G01*
D02*
G03*
X224083Y172121I1044J1488D01*
G01*
D02*
G03*
X224553Y172044I471J1399D01*
G01*
D02*
G03*
X225156Y172159I5J1615D01*
G01*
D02*
G03*
X225430Y172312I-451J1127D01*
G01*
D02*
G03*
X225675Y172543I-896J1198D01*
G01*
X224905Y172704D02*
G03*
X225223Y172929I-425J938D01*
G01*
X224542Y172629D02*
G03*
X224905Y172704I5J892D01*
G01*
X224248Y172677D02*
G03*
X224542Y172629I283J813D01*
G01*
X224011Y172821D02*
G03*
X224248Y172677I471J509D01*
G01*
X223855Y173060D02*
G03*
X224011Y172821I561J195D01*
G01*
X223803Y173395D02*
G03*
X223855Y173060I983J-19D01*
G01*
X199880Y172685D02*
G03*
X200078Y172665I188J892D01*
G01*
X199727Y172743D02*
G03*
X199880Y172685I260J449D01*
G01*
X199552Y172978D02*
G03*
X199727Y172743I368J92D01*
G01*
X199465Y173628D02*
G03*
X199552Y172978I2419J-8D01*
G01*
X199552Y174281D02*
G03*
X199465Y173628I2353J-645D01*
G01*
X199727Y174516D02*
G03*
X199552Y174281I195J-327D01*
G01*
X199880Y174575D02*
G03*
X199727Y174516I106J-507D01*
G01*
X200078Y174595D02*
G03*
X199880Y174575I-10J-907D01*
G01*
X200276Y174576D02*
G03*
X200078Y174595I-189J-924D01*
G01*
X200430Y174519D02*
G03*
X200276Y174576I-260J-465D01*
G01*
X200606Y174291D02*
G03*
X200430Y174519I-360J-96D01*
G01*
X200694Y173628D02*
G03*
X200606Y174291I-2371J22D01*
G01*
Y172967D02*
G03*
X200694Y173628I-2260J638D01*
G01*
X200430Y172741D02*
G03*
X200606Y172967I-181J323D01*
G01*
X200276Y172684D02*
G03*
X200430Y172741I-105J525D01*
G01*
X200078Y172665D02*
G03*
X200276Y172684I10J950D01*
G01*
X208981Y169913D02*
G03*
X208613Y170178I-1147J-1202D01*
G01*
Y170178D02*
G03*
X208179Y170280I-421J-819D01*
G01*
D02*
G03*
X207912Y170252I-8J-1177D01*
G01*
D02*
G03*
X207686Y170166I192J-848D01*
G01*
D02*
G03*
X207348Y169877I503J-929D01*
G01*
Y169877D02*
G03*
X207172Y169487I717J-559D01*
G01*
X207172D02*
G03*
X207139Y169178I2295J-404D01*
G01*
X207139D02*
G03*
X207128Y168697I8772J-443D01*
G01*
D02*
G03*
X207139Y168209I9007J-39D01*
G01*
D02*
G03*
X207172Y167896I2387J96D01*
G01*
X207172D02*
G03*
X207348Y167506I875J161D01*
G01*
X207348D02*
G03*
X207686Y167218I810J606D01*
G01*
D02*
G03*
X207912Y167134I417J779D01*
G01*
D02*
G03*
X208179Y167106I258J1177D01*
G01*
Y167106D02*
G03*
X208617Y167195I11J1060D01*
G01*
Y167195D02*
G03*
X208981Y167464I-458J1000D01*
G01*
X219113Y174240D02*
G03*
X219066Y173945I787J-276D01*
G01*
X219253Y174441D02*
G03*
X219113Y174240I301J-360D01*
G01*
X219670Y174595D02*
G03*
X219253Y174441I-0J-639D01*
G01*
X219878Y174556D02*
G03*
X219670Y174595I-210J-555D01*
G01*
X220083Y174441D02*
G03*
X219878Y174556I-496J-644D01*
G01*
X220533Y174979D02*
G03*
X220218Y175159I-733J-921D01*
G01*
D02*
G03*
X219885Y175219I-332J-893D01*
G01*
D02*
G03*
X219425Y175127I-20J-1100D01*
G01*
D02*
G03*
X219077Y174851I389J-848D01*
G01*
X215256Y173120D02*
G03*
X215277Y172871I1401J-7D01*
G01*
X215277D02*
G03*
X215340Y172655I1021J179D01*
G01*
D02*
G03*
X215592Y172317I788J325D01*
G01*
Y172317D02*
G03*
X215936Y172112I819J984D01*
G01*
Y172112D02*
G03*
X216296Y172044I361J920D01*
G01*
Y172044D02*
G03*
X216752Y172135I19J1088D01*
G01*
D02*
G03*
X217097Y172408I-388J844D01*
G01*
X217066Y173051D02*
G03*
X217109Y173332I-794J267D01*
G01*
X216934Y172840D02*
G03*
X217066Y173051I-395J393D01*
G01*
X216738Y172709D02*
G03*
X216934Y172840I-219J541D01*
G01*
X216498Y172665D02*
G03*
X216738Y172709I7J637D01*
G01*
X216253D02*
G03*
X216498Y172665I237J618D01*
G01*
X216055Y172840D02*
G03*
X216253Y172709I412J407D01*
G01*
X215924Y173051D02*
G03*
X216055Y172840I527J182D01*
G01*
X215880Y173332D02*
G03*
X215924Y173051I838J-14D01*
G01*
X216278Y167933D02*
G03*
X216314Y168220I-922J261D01*
G01*
X216233Y167837D02*
G03*
X216278Y167933I-320J207D01*
G01*
X216170Y167773D02*
G03*
X216233Y167837I-134J193D01*
G01*
X215957Y167700D02*
G03*
X216170Y167773I-80J581D01*
G01*
X215632Y167680D02*
G03*
X215957Y167700I51J1781D01*
G01*
X215372Y167710D02*
G03*
X215632Y167680I242J941D01*
G01*
X215197Y167801D02*
G03*
X215372Y167710I277J316D01*
G01*
X215095Y167926D02*
G03*
X215197Y167801I355J187D01*
G01*
X215061Y168071D02*
G03*
X215095Y167926I317J-2D01*
G01*
X215091Y168230D02*
G03*
X215061Y168071I327J-144D01*
G01*
X215189Y168346D02*
G03*
X215091Y168230I169J-241D01*
G01*
X215354Y168419D02*
G03*
X215189Y168346I111J-477D01*
G01*
X215586Y168448D02*
G03*
X215354Y168419I17J-1067D01*
G01*
X220460Y169280D02*
G03*
X220407Y168971I938J-321D01*
G01*
X220600Y169506D02*
G03*
X220460Y169280I440J-429D01*
G01*
X220808Y169646D02*
G03*
X220600Y169506I229J-564D01*
G01*
X221062Y169692D02*
G03*
X220808Y169646I-8J-676D01*
G01*
X221314Y169646D02*
G03*
X221062Y169692I-243J-614D01*
G01*
X221519Y169506D02*
G03*
X221314Y169646I-437J-424D01*
G01*
X221660Y169280D02*
G03*
X221519Y169506I-591J-210D01*
G01*
X221716Y168971D02*
G03*
X221660Y169280I-1013J-25D01*
G01*
X205667Y169301D02*
G03*
X205620Y169007I787J-276D01*
G01*
X205807Y169502D02*
G03*
X205667Y169301I301J-360D01*
G01*
X206224Y169656D02*
G03*
X205807Y169502I-0J-639D01*
G01*
X206432Y169618D02*
G03*
X206224Y169656I-210J-555D01*
G01*
X206637Y169503D02*
G03*
X206432Y169618I-496J-644D01*
G01*
X207088Y170041D02*
G03*
X206772Y170220I-733J-921D01*
G01*
D02*
G03*
X206439Y170280I-332J-893D01*
G01*
D02*
G03*
X205979Y170188I-20J-1100D01*
G01*
D02*
G03*
X205632Y169913I389J-848D01*
G01*
X222339Y168971D02*
G03*
X222243Y169510I-1439J23D01*
G01*
Y169510D02*
G03*
X221956Y169926I-1056J-422D01*
G01*
Y169926D02*
G03*
X221541Y170192I-914J-970D01*
G01*
D02*
G03*
X221062Y170280I-469J-1199D01*
G01*
D02*
G03*
X220620Y170194I1J-1181D01*
G01*
D02*
G03*
X220197Y169934I601J-1455D01*
G01*
X220197Y169934D02*
G03*
X220016Y169726I581J-688D01*
G01*
X220016Y169726D02*
G03*
X219886Y169447I1047J-655D01*
G01*
X219886D02*
G03*
X219809Y169099I1845J-594D01*
G01*
X219809D02*
G03*
X219783Y168681I3112J-402D01*
G01*
X219783D02*
G03*
X219811Y168243I3150J-18D01*
G01*
X219811D02*
G03*
X219895Y167886I1825J241D01*
G01*
X219895D02*
G03*
X220035Y167610I1050J359D01*
G01*
D02*
G03*
X220231Y167415I650J458D01*
G01*
D02*
G03*
X220687Y167183I1044J1488D01*
G01*
D02*
G03*
X221157Y167106I471J1399D01*
G01*
Y167106D02*
G03*
X221760Y167220I5J1615D01*
G01*
Y167220D02*
G03*
X222034Y167374I-451J1127D01*
G01*
D02*
G03*
X222279Y167605I-896J1198D01*
G01*
X221509Y167766D02*
G03*
X221827Y167991I-425J939D01*
G01*
X221146Y167691D02*
G03*
X221509Y167766I5J892D01*
G01*
X220851Y167739D02*
G03*
X221146Y167691I283J813D01*
G01*
X220615Y167883D02*
G03*
X220851Y167739I471J509D01*
G01*
X220459Y168122D02*
G03*
X220615Y167883I561J195D01*
G01*
X220407Y168457D02*
G03*
X220459Y168122I983J-19D01*
G01*
X216917Y169255D02*
G03*
X216893Y169517I-1546J-11D01*
G01*
D02*
G03*
X216828Y169738I-1024J-183D01*
G01*
D02*
G03*
X216573Y170057I-678J-280D01*
G01*
D02*
G03*
X216174Y170225I-683J-1061D01*
G01*
D02*
G03*
X215664Y170278I-465J-2022D01*
G01*
Y170278D02*
G03*
X215348Y170254I-37J-1610D01*
G01*
Y170254D02*
G03*
X215073Y170170I210J-1189D01*
G01*
Y170170D02*
G03*
X214645Y169826I436J-980D01*
G01*
X215335Y169643D02*
G03*
X215123Y169450I175J-405D01*
G01*
X215496Y169680D02*
G03*
X215335Y169643I109J-857D01*
G01*
X215694Y169692D02*
G03*
X215496Y169680I-8J-1469D01*
G01*
X215966Y169671D02*
G03*
X215694Y169692I-232J-1242D01*
G01*
X216160Y169597D02*
G03*
X215966Y169671I-292J-477D01*
G01*
X216276Y169471D02*
G03*
X216160Y169597I-287J-145D01*
G01*
X216314Y169290D02*
G03*
X216276Y169471I-391J12D01*
G01*
X215473Y168962D02*
G03*
X215048Y168892I-8J-1278D01*
G01*
Y168892D02*
G03*
X214741Y168694I260J-738D01*
G01*
D02*
G03*
X214555Y168399I645J-613D01*
G01*
D02*
G03*
X214493Y168041I936J-347D01*
G01*
D02*
G03*
X214565Y167668I940J-12D01*
G01*
D02*
G03*
X214780Y167368I797J344D01*
G01*
D02*
G03*
X215105Y167168I598J610D01*
G01*
D02*
G03*
X215556Y167094I458J1377D01*
G01*
Y167094D02*
G03*
X215827Y167114I13J1728D01*
G01*
Y167114D02*
G03*
X216041Y167172I-137J927D01*
G01*
D02*
G03*
X216301Y167404I-185J467D01*
G01*
X205557Y174207D02*
G03*
X205513Y173928I786J-266D01*
G01*
X205688Y174418D02*
G03*
X205557Y174207I402J-396D01*
G01*
X205886Y174551D02*
G03*
X205688Y174418I215J-537D01*
G01*
X206131Y174595D02*
G03*
X205886Y174551I-8J-657D01*
G01*
X206371D02*
G03*
X206131Y174595I-232J-589D01*
G01*
X206567Y174418D02*
G03*
X206371Y174551I-417J-408D01*
G01*
X206698Y174207D02*
G03*
X206567Y174418I-533J-186D01*
G01*
X206742Y173928D02*
G03*
X206698Y174207I-830J14D01*
G01*
X207366Y174143D02*
G03*
X207345Y174390I-1386J7D01*
G01*
D02*
G03*
X207282Y174606I-1017J-180D01*
G01*
Y174606D02*
G03*
X207030Y174944I-793J-329D01*
G01*
Y174944D02*
G03*
X206687Y175150I-830J-992D01*
G01*
D02*
G03*
X206332Y175219I-357J-894D01*
G01*
D02*
G03*
X205872Y175127I-20J-1100D01*
G01*
D02*
G03*
X205524Y174851I389J-848D01*
G01*
X214058Y173340D02*
G03*
X214067Y173628I-4053J265D01*
G01*
X214032Y173153D02*
G03*
X214058Y173340I-1125J250D01*
G01*
X213913Y172893D02*
G03*
X214032Y173153I-645J453D01*
G01*
X213706Y172722D02*
G03*
X213913Y172893I-211J466D01*
G01*
X213411Y172665D02*
G03*
X213706Y172722I16J707D01*
G01*
X213114D02*
G03*
X213411Y172665I280J656D01*
G01*
X212909Y172893D02*
G03*
X213114Y172722I409J282D01*
G01*
X212789Y173154D02*
G03*
X212909Y172893I686J158D01*
G01*
X212765Y173344D02*
G03*
X212789Y173154I1276J63D01*
G01*
X212757Y173635D02*
G03*
X212765Y173344I4539J-22D01*
G01*
Y173918D02*
G03*
X212757Y173635I4300J-261D01*
G01*
X212789Y174104D02*
G03*
X212765Y173918I1220J-250D01*
G01*
X212909Y174367D02*
G03*
X212789Y174104I592J-431D01*
G01*
X213114Y174538D02*
G03*
X212909Y174367I204J-453D01*
G01*
X213411Y174595D02*
G03*
X213114Y174538I-17J-713D01*
G01*
X213706D02*
G03*
X213411Y174595I-279J-650D01*
G01*
X213913Y174367D02*
G03*
X213706Y174538I-418J-295D01*
G01*
X214032Y174104D02*
G03*
X213913Y174367I-795J-202D01*
G01*
X214058Y173916D02*
G03*
X214032Y174104I-1152J-62D01*
G01*
X214067Y173628D02*
G03*
X214058Y173916I-4090J22D01*
G01*
X197638Y173340D02*
G03*
X197647Y173628I-4053J265D01*
G01*
X197612Y173153D02*
G03*
X197638Y173340I-1125J250D01*
G01*
X197493Y172893D02*
G03*
X197612Y173153I-645J453D01*
G01*
X197286Y172722D02*
G03*
X197493Y172893I-211J466D01*
G01*
X196991Y172665D02*
G03*
X197286Y172722I16J707D01*
G01*
X196694D02*
G03*
X196991Y172665I280J656D01*
G01*
X196489Y172893D02*
G03*
X196694Y172722I409J282D01*
G01*
X196369Y173154D02*
G03*
X196489Y172893I686J158D01*
G01*
X196345Y173344D02*
G03*
X196369Y173154I1276J63D01*
G01*
X196337Y173635D02*
G03*
X196345Y173344I4539J-22D01*
G01*
Y173918D02*
G03*
X196337Y173635I4300J-261D01*
G01*
X196369Y174104D02*
G03*
X196345Y173918I1220J-250D01*
G01*
X196489Y174367D02*
G03*
X196369Y174104I592J-431D01*
G01*
X196694Y174538D02*
G03*
X196489Y174367I204J-453D01*
G01*
X196991Y174595D02*
G03*
X196694Y174538I-17J-713D01*
G01*
X197286D02*
G03*
X196991Y174595I-279J-650D01*
G01*
X197493Y174367D02*
G03*
X197286Y174538I-418J-295D01*
G01*
X197612Y174104D02*
G03*
X197493Y174367I-795J-202D01*
G01*
X197638Y173916D02*
G03*
X197612Y174104I-1152J-62D01*
G01*
X197647Y173628D02*
G03*
X197638Y173916I-4089J22D01*
G01*
X222247Y172747D02*
G03*
X222535Y172992I-429J796D01*
G01*
X221904Y172665D02*
G03*
X222247Y172747I6J734D01*
G01*
X221551Y172725D02*
G03*
X221904Y172665I334J893D01*
G01*
X221299Y172906D02*
G03*
X221551Y172725I478J402D01*
G01*
X221147Y173207D02*
G03*
X221299Y172906I768J198D01*
G01*
X221097Y173628D02*
G03*
X221147Y173207I1571J-25D01*
G01*
X221147Y174051D02*
G03*
X221097Y173628I1534J-398D01*
G01*
X221299Y174353D02*
G03*
X221147Y174051I622J-501D01*
G01*
X221551Y174534D02*
G03*
X221299Y174353I227J-582D01*
G01*
X221904Y174595D02*
G03*
X221551Y174534I-20J-949D01*
G01*
X222246Y174514D02*
G03*
X221904Y174595I-336J-655D01*
G01*
X222535Y174270D02*
G03*
X222246Y174514I-722J-566D01*
G01*
X222996Y174681D02*
G03*
X222513Y175067I-1305J-1139D01*
G01*
X222513D02*
G03*
X222215Y175181I-580J-1069D01*
G01*
X222215D02*
G03*
X221880Y175219I-327J-1390D01*
G01*
Y175219D02*
G03*
X221368Y175126I-7J-1430D01*
G01*
Y175126D02*
G03*
X220907Y174849I569J-1466D01*
G01*
Y174849D02*
G03*
X220717Y174634I665J-781D01*
G01*
X220717D02*
G03*
X220581Y174359I1047J-688D01*
G01*
D02*
G03*
X220500Y174024I1681J-586D01*
G01*
X220500D02*
G03*
X220473Y173628I2672J-382D01*
G01*
D02*
G03*
X220500Y173232I2695J-14D01*
G01*
X220500D02*
G03*
X220581Y172897I1753J249D01*
G01*
X220581D02*
G03*
X220717Y172623I1171J409D01*
G01*
D02*
G03*
X220907Y172410I844J561D01*
G01*
D02*
G03*
X221368Y172135I1025J1197D01*
G01*
D02*
G03*
X221880Y172044I506J1351D01*
G01*
D02*
G03*
X222215Y172082I7J1441D01*
G01*
X222215D02*
G03*
X222513Y172195I-281J1191D01*
G01*
D02*
G03*
X222996Y172579I-805J1509D01*
G01*
X203632Y167933D02*
G03*
X203668Y168220I-922J261D01*
G01*
X203587Y167837D02*
G03*
X203632Y167933I-320J207D01*
G01*
X203524Y167773D02*
G03*
X203587Y167837I-134J193D01*
G01*
X203312Y167700D02*
G03*
X203524Y167773I-80J581D01*
G01*
X202987Y167680D02*
G03*
X203312Y167700I51J1781D01*
G01*
X202727Y167710D02*
G03*
X202987Y167680I242J941D01*
G01*
X202552Y167801D02*
G03*
X202727Y167710I277J316D01*
G01*
X202450Y167926D02*
G03*
X202552Y167801I355J187D01*
G01*
X202415Y168071D02*
G03*
X202450Y167926I317J-2D01*
G01*
X202446Y168230D02*
G03*
X202415Y168071I327J-144D01*
G01*
X202543Y168346D02*
G03*
X202446Y168230I169J-241D01*
G01*
X202708Y168419D02*
G03*
X202543Y168346I111J-477D01*
G01*
X202941Y168448D02*
G03*
X202708Y168419I17J-1067D01*
G01*
X202464Y174218D02*
G03*
X202411Y173909I938J-321D01*
G01*
X202605Y174445D02*
G03*
X202464Y174218I440J-429D01*
G01*
X202812Y174584D02*
G03*
X202605Y174445I229J-564D01*
G01*
X203066Y174630D02*
G03*
X202812Y174584I-8J-676D01*
G01*
X203318D02*
G03*
X203066Y174630I-243J-614D01*
G01*
X203523Y174445D02*
G03*
X203318Y174584I-437J-424D01*
G01*
X203664Y174218D02*
G03*
X203523Y174445I-591J-210D01*
G01*
X203721Y173909D02*
G03*
X203664Y174218I-1013J-26D01*
G01*
X204272Y169255D02*
G03*
X204248Y169517I-1545J-11D01*
G01*
D02*
G03*
X204182Y169738I-1024J-183D01*
G01*
D02*
G03*
X203927Y170057I-678J-280D01*
G01*
D02*
G03*
X203528Y170225I-683J-1061D01*
G01*
D02*
G03*
X203018Y170278I-465J-2022D01*
G01*
Y170278D02*
G03*
X202703Y170254I-37J-1610D01*
G01*
Y170254D02*
G03*
X202428Y170170I210J-1189D01*
G01*
Y170170D02*
G03*
X201999Y169826I436J-980D01*
G01*
X202690Y169643D02*
G03*
X202477Y169450I175J-405D01*
G01*
X202851Y169680D02*
G03*
X202690Y169643I109J-857D01*
G01*
X203048Y169692D02*
G03*
X202851Y169680I-8J-1469D01*
G01*
X203320Y169671D02*
G03*
X203048Y169692I-232J-1242D01*
G01*
X203514Y169597D02*
G03*
X203320Y169671I-292J-477D01*
G01*
X203630Y169471D02*
G03*
X203514Y169597I-287J-145D01*
G01*
X203668Y169290D02*
G03*
X203630Y169471I-391J12D01*
G01*
X202827Y168962D02*
G03*
X202402Y168892I-8J-1278D01*
G01*
D02*
G03*
X202096Y168694I260J-738D01*
G01*
D02*
G03*
X201909Y168399I645J-613D01*
G01*
D02*
G03*
X201848Y168041I936J-347D01*
G01*
D02*
G03*
X201919Y167668I940J-12D01*
G01*
D02*
G03*
X202134Y167368I797J344D01*
G01*
D02*
G03*
X202460Y167168I598J610D01*
G01*
D02*
G03*
X202910Y167094I458J1377D01*
G01*
D02*
G03*
X203182Y167114I13J1728D01*
G01*
D02*
G03*
X203395Y167172I-137J927D01*
G01*
D02*
G03*
X203655Y167404I-185J467D01*
G01*
X212132Y173635D02*
G03*
X212151Y173192I4361J-30D01*
G01*
D02*
G03*
X212210Y172881I1572J135D01*
G01*
D02*
G03*
X212467Y172439I1139J366D01*
G01*
D02*
G03*
X212619Y172300I794J717D01*
G01*
D02*
G03*
X212821Y172170I1010J1344D01*
G01*
Y172170D02*
G03*
X213081Y172075I444J821D01*
G01*
Y172075D02*
G03*
X213411Y172044I315J1558D01*
G01*
D02*
G03*
X213737Y172075I14J1559D01*
G01*
D02*
G03*
X213997Y172170I-188J926D01*
G01*
D02*
G03*
X214200Y172300I-816J1495D01*
G01*
D02*
G03*
X214354Y172439I-648J871D01*
G01*
D02*
G03*
X214610Y172881I-875J803D01*
G01*
D02*
G03*
X214668Y173192I-1527J446D01*
G01*
D02*
G03*
X214688Y173635I-4382J414D01*
G01*
X214688D02*
G03*
X214668Y174071I-4267J28D01*
G01*
D02*
G03*
X214610Y174379I-1580J-138D01*
G01*
X214610D02*
G03*
X214354Y174821I-1132J-361D01*
G01*
D02*
G03*
X214200Y174959I-834J-778D01*
G01*
X214200Y174959D02*
G03*
X213997Y175090I-1096J-1470D01*
G01*
X213997Y175090D02*
G03*
X213737Y175187I-450J-816D01*
G01*
Y175187D02*
G03*
X213411Y175219I-312J-1493D01*
G01*
Y175219D02*
G03*
X213081Y175187I-15J-1555D01*
G01*
Y175187D02*
G03*
X212821Y175090I185J-901D01*
G01*
Y175090D02*
G03*
X212619Y174959I886J-1577D01*
G01*
Y174959D02*
G03*
X212467Y174821I674J-900D01*
G01*
D02*
G03*
X212210Y174379I881J-809D01*
G01*
D02*
G03*
X212151Y174071I1508J-446D01*
G01*
D02*
G03*
X212132Y173635I4208J-407D01*
G01*
X195712D02*
G03*
X195731Y173192I4361J-30D01*
G01*
D02*
G03*
X195790Y172881I1572J136D01*
G01*
D02*
G03*
X196047Y172439I1139J366D01*
G01*
D02*
G03*
X196200Y172300I794J717D01*
G01*
X196200D02*
G03*
X196401Y172170I1010J1343D01*
G01*
X196401Y172170D02*
G03*
X196661Y172075I444J821D01*
G01*
Y172075D02*
G03*
X196991Y172044I315J1559D01*
G01*
Y172044D02*
G03*
X197317Y172075I14J1559D01*
G01*
Y172075D02*
G03*
X197577Y172170I-188J926D01*
G01*
D02*
G03*
X197780Y172300I-816J1495D01*
G01*
Y172300D02*
G03*
X197934Y172439I-648J871D01*
G01*
Y172439D02*
G03*
X198190Y172881I-875J803D01*
G01*
Y172881D02*
G03*
X198249Y173192I-1527J446D01*
G01*
D02*
G03*
X198268Y173635I-4382J413D01*
G01*
X198268D02*
G03*
X198249Y174071I-4267J29D01*
G01*
X198249D02*
G03*
X198190Y174379I-1580J-138D01*
G01*
X198190Y174379D02*
G03*
X197934Y174821I-1132J-361D01*
G01*
Y174821D02*
G03*
X197780Y174959I-834J-778D01*
G01*
X197780Y174959D02*
G03*
X197577Y175090I-1096J-1470D01*
G01*
D02*
G03*
X197317Y175187I-450J-816D01*
G01*
Y175187D02*
G03*
X196991Y175219I-312J-1493D01*
G01*
Y175219D02*
G03*
X196661Y175187I-15J-1556D01*
G01*
D02*
G03*
X196401Y175090I185J-901D01*
G01*
D02*
G03*
X196200Y174959I886J-1577D01*
G01*
Y174959D02*
G03*
X196047Y174821I674J-900D01*
G01*
Y174821D02*
G03*
X195790Y174379I881J-809D01*
G01*
D02*
G03*
X195731Y174071I1508J-447D01*
G01*
D02*
G03*
X195712Y173635I4208J-407D01*
G01*
X204343Y173909D02*
G03*
X204247Y174448I-1439J23D01*
G01*
D02*
G03*
X203960Y174864I-1056J-422D01*
G01*
D02*
G03*
X203545Y175130I-914J-970D01*
G01*
D02*
G03*
X203066Y175219I-469J-1199D01*
G01*
Y175219D02*
G03*
X202624Y175132I1J-1181D01*
G01*
X202624D02*
G03*
X202201Y174872I601J-1454D01*
G01*
X202201D02*
G03*
X202020Y174664I581J-688D01*
G01*
X202020D02*
G03*
X201890Y174386I1047J-656D01*
G01*
D02*
G03*
X201813Y174038I1845J-594D01*
G01*
D02*
G03*
X201787Y173619I3112J-402D01*
G01*
X201787D02*
G03*
X201815Y173181I3150J-18D01*
G01*
X201815D02*
G03*
X201899Y172824I1825J241D01*
G01*
Y172824D02*
G03*
X202039Y172548I1050J359D01*
G01*
Y172548D02*
G03*
X202235Y172353I650J458D01*
G01*
D02*
G03*
X202691Y172121I1044J1488D01*
G01*
D02*
G03*
X203161Y172044I471J1399D01*
G01*
D02*
G03*
X203764Y172159I5J1615D01*
G01*
X203764D02*
G03*
X204038Y172312I-451J1127D01*
G01*
D02*
G03*
X204283Y172543I-896J1198D01*
G01*
X203513Y172704D02*
G03*
X203831Y172929I-425J938D01*
G01*
X203150Y172629D02*
G03*
X203513Y172704I5J892D01*
G01*
X202855Y172677D02*
G03*
X203150Y172629I283J813D01*
G01*
X202619Y172821D02*
G03*
X202855Y172677I471J509D01*
G01*
X202463Y173060D02*
G03*
X202619Y172821I561J195D01*
G01*
X202411Y173395D02*
G03*
X202463Y173060I983J-19D01*
G01*
X208566Y169637D02*
G03*
X208370Y169656I-186J-872D01*
G01*
X208718Y169578D02*
G03*
X208566Y169637I-259J-443D01*
G01*
X208893Y169342D02*
G03*
X208718Y169578I-373J-94D01*
G01*
X208981Y168697D02*
G03*
X208893Y169342I-2376J4D01*
G01*
Y168041D02*
G03*
X208981Y168697I-2325J647D01*
G01*
X208718Y167805D02*
G03*
X208893Y168041I-198J329D01*
G01*
X208566Y167746D02*
G03*
X208718Y167805I-106J502D01*
G01*
X208370Y167727D02*
G03*
X208566Y167746I9J891D01*
G01*
X208171Y167746D02*
G03*
X208370Y167727I189J937D01*
G01*
X208016Y167802D02*
G03*
X208171Y167746I260J471D01*
G01*
X207840Y168029D02*
G03*
X208016Y167802I357J96D01*
G01*
X207752Y168697D02*
G03*
X207840Y168029I2376J-26D01*
G01*
X207840Y169354D02*
G03*
X207752Y168697I2249J-636D01*
G01*
X208016Y169581D02*
G03*
X207840Y169354I180J-323D01*
G01*
X208171Y169638D02*
G03*
X208016Y169581I105J-527D01*
G01*
X208370Y169656D02*
G03*
X208171Y169638I-10J-956D01*
G01*
X218322Y169301D02*
G03*
X218275Y169007I787J-276D01*
G01*
X218463Y169502D02*
G03*
X218322Y169301I301J-360D01*
G01*
X218879Y169656D02*
G03*
X218463Y169502I-0J-639D01*
G01*
X219087Y169618D02*
G03*
X218879Y169656I-210J-555D01*
G01*
X219292Y169503D02*
G03*
X219087Y169618I-496J-644D01*
G01*
X219743Y170041D02*
G03*
X219427Y170220I-733J-921D01*
G01*
D02*
G03*
X219094Y170280I-332J-893D01*
G01*
D02*
G03*
X218634Y170188I-20J-1100D01*
G01*
D02*
G03*
X218287Y169913I389J-848D01*
G01*
X211996Y183830D02*
X213964Y179010D01*
X214160Y178929D02*
X215229Y179371D01*
X215370Y179357D02*
X217721Y177767D01*
X217911Y177785D02*
X219920Y179793D01*
X218347Y182334D02*
X219938Y179983D01*
X218333Y182476D02*
X219300Y184810D01*
X219410Y184900D02*
X222197Y185438D01*
X222319Y185585D02*
Y188425D01*
X219410Y189110D02*
X222197Y188573D01*
X218333Y191534D02*
X219300Y189200D01*
X218347Y191676D02*
X219938Y194027D01*
X217911Y196225D02*
X219920Y194217D01*
X215370Y194653D02*
X217721Y196243D01*
X212895Y195605D02*
X215229Y194639D01*
X212267Y198502D02*
X212805Y195716D01*
X209279Y198624D02*
X212120D01*
X208594Y195716D02*
X209132Y198502D01*
X206170Y194639D02*
X208505Y195605D01*
X203678Y196243D02*
X206029Y194653D01*
X201479Y194217D02*
X203488Y196225D01*
X201461Y194027D02*
X203052Y191676D01*
X202099Y189200D02*
X203066Y191534D01*
X199202Y188573D02*
X201989Y189110D01*
X199081Y185585D02*
Y188425D01*
X199202Y185438D02*
X201989Y184900D01*
X202099Y184810D02*
X203066Y182476D01*
X201461Y179983D02*
X203052Y182334D01*
X201479Y179793D02*
X203488Y177785D01*
X203678Y177767D02*
X206029Y179357D01*
X206170Y179371D02*
X207239Y178929D01*
X207435Y179010D02*
X209403Y183830D01*
X198841Y167142D02*
X199465D01*
Y168989D01*
X200694Y167142D02*
Y168989D01*
Y167142D02*
X201319D01*
Y169204D01*
X199465Y169913D02*
X199477D01*
X199465Y172408D02*
X199465Y169913D01*
X199465Y174857D02*
Y175183D01*
X198841D02*
X199465D01*
X198841Y167142D02*
Y175183D01*
X223803Y173909D02*
X225113D01*
X210332Y173963D02*
X210846Y173928D01*
X211284Y174342D02*
X211670Y174797D01*
X210191Y173384D02*
X210741Y173332D01*
X209094Y172596D02*
X209530Y173028D01*
X225735Y173395D02*
Y173909D01*
X225223Y172929D02*
X225675Y172543D01*
X223803Y173395D02*
X225735D01*
X208981Y167142D02*
X209605D01*
Y171497D01*
X208981D02*
X209605D01*
X208981Y169913D02*
Y171497D01*
Y167142D02*
Y167464D01*
X218442Y172080D02*
X219066D01*
Y173945D01*
X220083Y174441D02*
X220533Y174979D01*
X219066Y174851D02*
X219077D01*
X219066D02*
Y175183D01*
X218442D02*
X219066D01*
X218442Y172080D02*
Y175183D01*
X217097Y172408D02*
X217109D01*
Y172080D02*
Y172408D01*
Y172080D02*
X217734D01*
Y175183D01*
X217109D02*
X217734D01*
X217109Y173332D02*
Y175183D01*
X215880Y173332D02*
Y175183D01*
X215256D02*
X215880D01*
X215256Y173120D02*
Y175183D01*
X215586Y168448D02*
X216314D01*
Y168220D02*
Y168448D01*
X220407Y168971D02*
X221716D01*
X204996Y167142D02*
X205620D01*
Y169007D01*
X206637Y169503D02*
X207088Y170041D01*
X205620Y169913D02*
X205632D01*
X205620D02*
Y170245D01*
X204996D02*
X205620D01*
X204996Y167142D02*
Y170245D01*
X222339Y168457D02*
Y168971D01*
X221827Y167991D02*
X222279Y167605D01*
X220407Y168457D02*
X222339D01*
X216314Y167130D02*
X216917D01*
Y169255D01*
X214645Y169826D02*
X215123Y169450D01*
X216314Y168962D02*
Y169290D01*
X215473Y168962D02*
X216314D01*
X216301Y167404D02*
X216314D01*
Y167130D02*
Y167404D01*
X204889Y172080D02*
X205513D01*
Y173928D01*
X206742Y172080D02*
Y173928D01*
Y172080D02*
X207366D01*
Y174143D01*
X205513Y174851D02*
X205524D01*
X205513D02*
Y175183D01*
X204889D02*
X205513D01*
X204889Y172080D02*
Y175183D01*
X222535Y174270D02*
X222996Y174681D01*
X222535Y172992D02*
X222996Y172579D01*
X202941Y168448D02*
X203668D01*
Y168220D02*
Y168448D01*
X202411Y173909D02*
X203721D01*
X203668Y167130D02*
X204272D01*
Y169255D01*
X201999Y169826D02*
X202477Y169450D01*
X203668Y168962D02*
Y169290D01*
X202827Y168962D02*
X203668D01*
X203655Y167404D02*
X203668D01*
Y167130D02*
Y167404D01*
X204343Y173395D02*
Y173909D01*
X203831Y172929D02*
X204283Y172543D01*
X202411Y173395D02*
X204343D01*
X212833Y167142D02*
X213382D01*
X214375Y170245D01*
X213713D02*
X214375D01*
X213120Y168071D02*
X213713Y170245D01*
X213107Y168071D02*
X213120D01*
X212405Y170245D02*
X213107Y168071D01*
X211950Y170245D02*
X212405D01*
X211247Y168071D02*
X211950Y170245D01*
X211236Y168071D02*
X211247D01*
X210641Y170245D02*
X211236Y168071D01*
X209981Y170245D02*
X210641D01*
X209981D02*
X210972Y167142D01*
X211523D01*
X212171Y169312D01*
X212183D01*
X212833Y167142D01*
X217651D02*
X218275D01*
Y169007D01*
X219292Y169503D02*
X219743Y170041D01*
X218275Y169913D02*
X218287D01*
X218275D02*
Y170245D01*
X217651D02*
X218275D01*
X217651Y167142D02*
Y170245D01*
D60*
X178642Y19115D02*
X179430Y19902D01*
X183170D01*
X179233Y19705D02*
X179922Y20394D01*
X182678D02*
X183268Y19804D01*
X183170Y19902D02*
X183958Y19115D01*
Y15572D02*
Y19115D01*
X178642Y15572D02*
Y19115D01*
Y7698D02*
X183958D01*
Y12028D01*
X178642Y7698D02*
Y12028D01*
X179922Y20394D02*
X182678D01*
X189875Y61401D02*
Y73999D01*
X186725Y61401D02*
Y73999D01*
X61074Y53308D02*
Y80867D01*
X59893Y53308D02*
X62255D01*
X44145D02*
X46507D01*
X45326D02*
Y80867D01*
X62255Y53308D02*
Y54095D01*
X61074D02*
X62255D01*
X61074Y53702D02*
X62255D01*
X59893Y53308D02*
Y54095D01*
X61074D01*
X59893Y53702D02*
X61074D01*
X44145Y53308D02*
Y54095D01*
X45326D01*
X44145Y53702D02*
X45326D01*
X46507Y53308D02*
Y54095D01*
X45326D02*
X46507D01*
X45326Y53702D02*
X46507D01*
X44145Y48387D02*
X62255D01*
X44145Y84213D02*
X62255D01*
X44145Y48387D02*
Y84213D01*
X62255Y48387D02*
Y84213D01*
X135939Y54595D02*
Y59320D01*
X129639D02*
X135939D01*
X129639Y54595D02*
Y59320D01*
X158773Y54595D02*
Y59320D01*
X129639Y54595D02*
X158773D01*
X129639Y79005D02*
X158773D01*
Y74280D02*
Y79005D01*
X129639Y74280D02*
Y79005D01*
Y74280D02*
X135939D01*
Y79005D01*
X157801Y15835D02*
Y20165D01*
X166364D01*
X157801Y15835D02*
X166364D01*
Y20165D01*
X91100Y151400D02*
X94900D01*
X91100D02*
Y159600D01*
X94900D01*
Y151400D02*
Y159600D01*
X234300Y127700D02*
Y135900D01*
X238100D01*
X234300Y127700D02*
X238100D01*
Y135900D01*
X241335Y127501D02*
X245665D01*
X241335D02*
Y136064D01*
X245665D01*
Y127501D02*
Y136064D01*
X248600Y127700D02*
Y135900D01*
X252400D01*
X248600Y127700D02*
X252400D01*
Y135900D01*
X30400Y183200D02*
X38600D01*
X30400D02*
Y187000D01*
X38600D01*
Y183200D02*
Y187000D01*
X128901Y16235D02*
Y20565D01*
X137464D01*
X128901Y16235D02*
X137464D01*
Y20565D01*
X146501Y15935D02*
Y20265D01*
X155064D01*
X146501Y15935D02*
X155064D01*
Y20265D01*
X123400Y26800D02*
Y35000D01*
X127200D01*
X123400Y26800D02*
X127200D01*
Y35000D01*
X123400Y16200D02*
X127200D01*
X123400D02*
Y24400D01*
X127200D01*
Y16200D02*
Y24400D01*
X167991Y15605D02*
Y19935D01*
X176553D01*
X167991Y15605D02*
X176553D01*
Y19935D01*
X149298Y125512D02*
X149398D01*
X147998Y126912D02*
Y127112D01*
Y125512D02*
Y127012D01*
Y125512D02*
X148998D01*
X147998Y142512D02*
X160498D01*
X147998Y125512D02*
Y142512D01*
Y125512D02*
X160498D01*
Y142512D01*
X37835Y53736D02*
X42165D01*
X37835D02*
Y62299D01*
X42165D01*
Y53736D02*
Y62299D01*
X37835Y63736D02*
X42165D01*
X37835D02*
Y72299D01*
X42165D01*
Y63736D02*
Y72299D01*
D61*
X178642Y7698D02*
X183958D01*
X176489Y75574D02*
X200111D01*
Y60220D02*
Y75574D01*
X176489Y60220D02*
Y75574D01*
Y60220D02*
X200111D01*
D62*
X162945Y25867D02*
Y47127D01*
X131154D02*
X162945D01*
X131154Y25867D02*
X162945D01*
X131154D02*
Y47127D01*
X101972Y148752D02*
Y155248D01*
Y148752D02*
X111028D01*
X101972Y155248D02*
X111028D01*
Y148752D02*
Y155248D01*
X131972Y148752D02*
Y155248D01*
Y148752D02*
X141028D01*
X131972Y155248D02*
X141028D01*
Y148752D02*
Y155248D01*
X111972Y148752D02*
Y155248D01*
Y148752D02*
X121028D01*
X111972Y155248D02*
X121028D01*
Y148752D02*
Y155248D01*
X121972Y148752D02*
Y155248D01*
Y148752D02*
X131028D01*
X121972Y155248D02*
X131028D01*
Y148752D02*
Y155248D01*
X148972Y148752D02*
Y155248D01*
Y148752D02*
X158028D01*
X148972Y155248D02*
X158028D01*
Y148752D02*
Y155248D01*
D63*
X174200Y25900D02*
Y52400D01*
Y25900D02*
X185200D01*
X174200Y52400D02*
X185200D01*
Y25900D02*
Y52400D01*
X47530Y19758D02*
Y46258D01*
Y19758D02*
X58530D01*
X47530Y46258D02*
X58530D01*
Y19758D02*
Y46258D01*
D64*
X177732Y37550D02*
X181668D01*
X177732D02*
X179700Y39518D01*
X181668Y37550D01*
X178519Y37943D02*
X180881D01*
X177732Y39912D02*
X181668D01*
X179109Y38534D02*
X180291D01*
X94556Y166358D02*
X98099D01*
X94556D02*
Y170294D01*
X87469Y182106D02*
Y192735D01*
X87600D02*
X168694D01*
X95500Y176200D02*
X158458D01*
X158064Y166358D02*
X161607D01*
Y170294D01*
X168694Y182106D02*
Y192735D01*
X51061Y32247D02*
X54998D01*
X52439Y33625D02*
X53620D01*
X51061Y34609D02*
X53030Y32640D01*
X51849Y34215D02*
X54211D01*
X53030Y32640D02*
X54998Y34609D01*
X51061D02*
X54998D01*
D65*
X215109Y151061D02*
Y158739D01*
Y151061D02*
X228691D01*
X215109Y158739D02*
X228691D01*
Y151061D02*
Y158739D01*
X246561Y111009D02*
Y124591D01*
Y111009D02*
X254239D01*
X246561Y124591D02*
X254239D01*
Y111009D02*
Y124591D01*
X215609Y122861D02*
Y130539D01*
Y122861D02*
X229191D01*
X215609Y130539D02*
X229191D01*
Y122861D02*
Y130539D01*
D66*
X189410Y101933D02*
X192066Y107534D01*
X194548D01*
X193394Y103492D02*
X194548Y107534D01*
X192239Y99566D02*
X193394Y103492D01*
X190680Y99566D02*
X192239D01*
X190680D02*
X191604Y102626D01*
X192528Y105686D01*
X191084Y102626D02*
X192528Y105686D01*
X189583Y99566D02*
X191084Y102626D01*
X187851Y99566D02*
X189583D01*
X187851D02*
X188255Y102626D01*
X188602Y105801D01*
X186812Y99566D02*
X188602Y105801D01*
X185253Y99566D02*
X186812D01*
X185253D02*
X186465Y103550D01*
X187678Y107534D01*
X190103D01*
X189756Y104704D02*
X190103Y107534D01*
X189410Y101933D02*
X189756Y104704D01*
X183001Y107591D02*
X183579Y107649D01*
X184156Y107591D01*
X184618Y107476D01*
X185022Y107245D01*
X185311Y106956D01*
X185426Y106783D01*
X185541Y106552D01*
X185599Y106321D01*
X185657Y106032D01*
X185599Y105397D02*
X185657Y106032D01*
X185541Y105051D02*
X185599Y105397D01*
X185484Y104704D02*
X185541Y105051D01*
X185253Y104011D02*
X185484Y104704D01*
X184964Y102972D02*
X185253Y104011D01*
X184618Y101818D02*
X184964Y102972D01*
X184445Y101298D02*
X184618Y101818D01*
X184214Y100836D02*
X184445Y101298D01*
X183983Y100374D02*
X184214Y100836D01*
X183694Y100028D02*
X183983Y100374D01*
X183521Y99912D02*
X183694Y100028D01*
X183290Y99797D02*
X183521Y99912D01*
X182828Y99566D02*
X183290Y99797D01*
X182251Y99450D02*
X182828Y99566D01*
X181615Y99450D02*
X182251D01*
X181038Y99508D02*
X181615Y99450D01*
X180461Y99681D02*
X181038Y99508D01*
X180230Y99797D02*
X180461Y99681D01*
X179999Y99912D02*
X180230Y99797D01*
X179826Y100085D02*
X179999Y99912D01*
X179710Y100316D02*
X179826Y100085D01*
X179595Y100663D02*
X179710Y100316D01*
X179537Y101009D02*
X179595Y100663D01*
X179537Y101009D02*
Y101356D01*
X179595Y101760D01*
X179710Y102510D01*
X179884Y103088D01*
X180288Y104531D01*
X180518Y105339D01*
X180807Y106090D01*
X181038Y106436D01*
X181211Y106725D01*
X181442Y107014D01*
X181731Y107245D01*
X181962Y107360D01*
X182308Y107476D01*
X182655Y107591D01*
X183001D01*
X183001D02*
X183001D01*
X183752Y104820D02*
X183925Y105513D01*
Y105859D01*
Y105974D01*
X183867Y106148D02*
X183925Y105974D01*
X183752Y106263D02*
X183867Y106148D01*
X183521Y106321D02*
X183752Y106263D01*
X183348Y106379D02*
X183521Y106321D01*
X183117Y106379D02*
X183348D01*
X182886Y106321D02*
X183117Y106379D01*
X182712Y106205D02*
X182886Y106321D01*
X182539Y106032D02*
X182712Y106205D01*
X182424Y105801D02*
X182539Y106032D01*
X182251Y105397D02*
X182424Y105801D01*
X182135Y104935D02*
X182251Y105397D01*
X181384Y102279D02*
X182135Y104935D01*
X181269Y101529D02*
X181384Y102279D01*
X181211Y101182D02*
X181269Y101529D01*
X181211Y101182D02*
X181269Y101067D01*
X181327Y100951D01*
X181442Y100778D01*
X181731Y100720D01*
X182020D01*
X182308Y100778D01*
X182482Y100894D01*
X182597Y101067D01*
X182828Y101471D01*
X182943Y101933D01*
X183059Y102395D01*
X183405Y103607D01*
X183752Y104820D01*
X179364Y106898D02*
X179422Y106667D01*
X179479Y106436D01*
X179537Y105859D01*
X179422Y105339D02*
X179537Y105859D01*
X179248Y104820D02*
X179422Y105339D01*
X178440Y104820D02*
X179248D01*
X177689D02*
X178440D01*
X177689D02*
X177805Y105513D01*
Y105859D01*
X177747Y106205D02*
X177805Y105859D01*
X177632Y106321D02*
X177747Y106205D01*
X177458Y106379D02*
X177632Y106321D01*
X177343Y106379D02*
X177458D01*
X177170D02*
X177343D01*
X176881Y106205D02*
X177170Y106379D01*
X176650Y106032D02*
X176881Y106205D01*
X176419Y105570D02*
X176650Y106032D01*
X176246Y105051D02*
X176419Y105570D01*
X175900Y103838D02*
X176246Y105051D01*
X175611Y102626D02*
X175900Y103838D01*
X175380Y102048D02*
X175611Y102626D01*
X175265Y101471D02*
X175380Y102048D01*
X175265Y101471D02*
X175322Y101125D01*
X175380Y100951D01*
X175438Y100836D01*
X175553Y100778D01*
X175669Y100720D01*
X175842D01*
X176015D01*
X176131Y100778D01*
X176246Y100836D01*
X176477Y101067D01*
X176650Y101356D01*
X176766Y101644D01*
X176939Y102279D01*
X177747D01*
X178556D01*
X178498Y101702D02*
X178556Y102279D01*
X178325Y101182D02*
X178498Y101702D01*
X178151Y100720D02*
X178325Y101182D01*
X177863Y100316D02*
X178151Y100720D01*
X177516Y99970D02*
X177863Y100316D01*
X177112Y99739D02*
X177516Y99970D01*
X176650Y99566D02*
X177112Y99739D01*
X176131Y99450D02*
X176650Y99566D01*
X175669Y99450D02*
X176131D01*
X175265D02*
X175669D01*
X174861Y99508D02*
X175265Y99450D01*
X174514Y99624D02*
X174861Y99508D01*
X174225Y99739D02*
X174514Y99624D01*
X173994Y99970D02*
X174225Y99739D01*
X173763Y100201D02*
X173994Y99970D01*
X173648Y100489D02*
X173763Y100201D01*
X173590Y100836D02*
X173648Y100489D01*
X173590Y100836D02*
Y101182D01*
X173648Y101875D01*
X173879Y102568D01*
X174052Y103203D01*
X174341Y104242D01*
X174629Y105282D01*
X174803Y105801D01*
X175034Y106263D01*
X175265Y106667D01*
X175553Y107014D01*
X175842Y107245D01*
X176189Y107418D01*
X176650Y107591D01*
X177112Y107649D01*
X177805D01*
X178151Y107591D01*
X178498Y107534D01*
X178787Y107418D01*
X179017Y107303D01*
X179191Y107129D01*
X179364Y106898D01*
X179364D02*
X179364D01*
X170299Y101298D02*
X172147D01*
X171973Y100316D02*
X172147Y101298D01*
X171800Y99393D02*
X171973Y100316D01*
X169895Y99393D02*
X171800D01*
X169895D02*
X170068Y100374D01*
X170184Y100836D01*
X170299Y101298D01*
X170241Y111402D02*
X172031D01*
X171685Y109554D02*
X172031Y111402D01*
X169837Y109554D02*
X171685D01*
X169837D02*
X170010Y110536D01*
X170241Y111402D01*
X169722Y108861D02*
X171512D01*
X171107Y107014D02*
X171512Y108861D01*
X169318Y107014D02*
X171107D01*
X169318D02*
X169491Y107995D01*
X169722Y108861D01*
X169202Y106321D02*
X170992D01*
X170819Y105397D02*
X170992Y106321D01*
X170646Y104473D02*
X170819Y105397D01*
X168798Y104473D02*
X170646D01*
X168798D02*
X169144Y106263D01*
X169202Y106321D01*
X169202D01*
X168163Y114058D02*
X169953D01*
X169606Y112210D02*
X169953Y114058D01*
X168682Y112210D02*
X169606D01*
X167759D02*
X168682D01*
X167759D02*
X167932Y113134D01*
X168163Y114058D01*
X166027Y116598D02*
X167874D01*
X167643Y115732D02*
X167874Y116598D01*
X167470Y114751D02*
X167643Y115732D01*
X165622Y114751D02*
X167470D01*
X165622D02*
X165969Y116540D01*
X166027Y116598D01*
Y103838D02*
X167816D01*
X167412Y101991D02*
X167816Y103838D01*
X165622Y101991D02*
X167412D01*
X165622D02*
X166027Y103838D01*
X163371Y116598D02*
X165161D01*
X164756Y114751D02*
X165161Y116598D01*
X162967Y114751D02*
X164756D01*
X162967D02*
X163140Y115732D01*
X163371Y116598D01*
X162851Y101240D02*
X164641D01*
X164237Y99450D02*
X164641Y101240D01*
X163371Y99450D02*
X164237D01*
X162447Y99393D02*
X163371Y99450D01*
X162447Y99393D02*
X162620Y100316D01*
X162851Y101240D01*
X160773Y116598D02*
X162563D01*
X162158Y114751D02*
X162563Y116598D01*
X160368Y114751D02*
X162158D01*
X160368D02*
X160542Y115674D01*
X160773Y116598D01*
X160368Y101240D02*
X162158D01*
X161985Y100316D02*
X162158Y101240D01*
X161812Y99393D02*
X161985Y100316D01*
X160888Y99450D02*
X161812Y99393D01*
X159964Y99450D02*
X160888D01*
X159964D02*
X160137Y100316D01*
X160253Y100778D01*
X160368Y101240D01*
X160195Y114058D02*
X162043D01*
X161870Y113134D02*
X162043Y114058D01*
X161696Y112210D02*
X161870Y113134D01*
X159849Y112210D02*
X161696D01*
X159849D02*
X160022Y113134D01*
X160195Y114058D01*
X159676Y111402D02*
X161465D01*
X161292Y110478D02*
X161465Y111402D01*
X161119Y109554D02*
X161292Y110478D01*
X159329Y109554D02*
X161119D01*
X159329D02*
X159676Y111402D01*
X159156Y108861D02*
X161003D01*
X160773Y107938D02*
X161003Y108861D01*
X160599Y107014D02*
X160773Y107938D01*
X158809Y107014D02*
X160599D01*
X158809D02*
X158983Y107938D01*
X159156Y108861D01*
X158694Y106321D02*
X160484D01*
X160137Y104473D02*
X160484Y106321D01*
X158290Y104473D02*
X160137D01*
X158290D02*
X158636Y106263D01*
X158694Y106321D01*
X158117Y103838D02*
X159906D01*
X159560Y101991D02*
X159906Y103838D01*
X157770Y101991D02*
X159560D01*
X157770D02*
X158117Y103780D01*
Y103838D01*
X157655Y101240D02*
X159445D01*
X159098Y99393D02*
X159445Y101240D01*
X158175Y99450D02*
X159098Y99393D01*
X157251Y99450D02*
X158175D01*
X157251D02*
X157482Y100316D01*
X157539Y100778D01*
X157655Y101240D01*
X156327Y114058D02*
X158117D01*
X157770Y112210D02*
X158117Y114058D01*
X156846Y112210D02*
X157770D01*
X155980D02*
X156846D01*
X155980D02*
X156096Y113134D01*
X156327Y114058D01*
X154248Y103838D02*
X156038D01*
X155692Y101991D02*
X156038Y103838D01*
X153844Y101991D02*
X155692D01*
X153844D02*
X154075Y102915D01*
X154133Y103376D01*
X154248Y103838D01*
X154075Y116598D02*
X155865D01*
X155518Y114751D02*
X155865Y116598D01*
X153671Y114751D02*
X155518D01*
X153671D02*
X153844Y115674D01*
X154075Y116598D01*
X151419D02*
X153267D01*
X152863Y114751D02*
X153267Y116598D01*
X151073Y114751D02*
X152863D01*
X151073D02*
X151246Y115732D01*
X151419Y116598D01*
X151073Y101240D02*
X152805D01*
X152459Y99450D02*
X152805Y101240D01*
X150669Y99450D02*
X152459D01*
X150669D02*
X150842Y100316D01*
X150900Y100778D01*
X151073Y101240D01*
X148879Y116598D02*
X150669D01*
X150322Y114751D02*
X150669Y116598D01*
X148475Y114751D02*
X150322D01*
X148475D02*
X148648Y115732D01*
X148879Y116598D01*
X148417Y101240D02*
X150207D01*
X150033Y100374D02*
X150207Y101240D01*
X149860Y99450D02*
X150033Y100374D01*
X148013Y99450D02*
X149860D01*
X148013D02*
X148186Y100374D01*
X148417Y101240D01*
X145877Y114058D02*
X147724D01*
X147378Y112210D02*
X147724Y114058D01*
X145530Y112210D02*
X147378D01*
X145530D02*
X145703Y113134D01*
X145877Y114058D01*
Y101240D02*
X147666D01*
X147320Y99393D02*
X147666Y101240D01*
X146396Y99450D02*
X147320Y99393D01*
X145472Y99450D02*
X146396D01*
X145472D02*
X145646Y100316D01*
X145877Y101240D01*
X145357Y111402D02*
X147204D01*
X146858Y109612D02*
X147204Y111402D01*
X145934Y109554D02*
X146858Y109612D01*
X145010Y109554D02*
X145934D01*
X145010D02*
X145357Y111402D01*
X144953Y108861D02*
X146685D01*
X146338Y107014D02*
X146685Y108861D01*
X144549Y107014D02*
X146338D01*
X144549D02*
X144837Y108803D01*
X144953Y108861D01*
X144375Y106321D02*
X146223D01*
X145819Y104473D02*
X146223Y106321D01*
X144029Y104473D02*
X145819D01*
X144029D02*
X144202Y105455D01*
X144375Y106321D01*
X143856Y103838D02*
X145703D01*
X145299Y101991D02*
X145703Y103838D01*
X143509Y101991D02*
X145299D01*
X143509D02*
X143683Y102915D01*
X143856Y103838D01*
X140738Y101240D02*
X142585D01*
X142412Y100374D02*
X142585Y101240D01*
X142239Y99393D02*
X142412Y100374D01*
X141315Y99450D02*
X142239Y99393D01*
X140449D02*
X141315Y99450D01*
X140449Y99393D02*
X140623Y100316D01*
X140738Y101240D01*
X138197D02*
X139987D01*
X139641Y99393D02*
X139987Y101240D01*
X138717Y99450D02*
X139641Y99393D01*
X137793Y99450D02*
X138717D01*
X137793D02*
X137967Y100374D01*
X138197Y101240D01*
X135484D02*
X137274D01*
X137101Y100316D02*
X137274Y101240D01*
X136927Y99393D02*
X137101Y100316D01*
X136061Y99450D02*
X136927Y99393D01*
X135137Y99450D02*
X136061D01*
X135137D02*
X135311Y100374D01*
X135484Y101240D01*
X133059Y116598D02*
X134849D01*
X134502Y114751D02*
X134849Y116598D01*
X132713Y114751D02*
X134502D01*
X132713D02*
X132886Y115674D01*
X133059Y116598D01*
X132828Y101240D02*
X134560D01*
X134387Y100316D02*
X134560Y101240D01*
X134214Y99450D02*
X134387Y100316D01*
X132424Y99450D02*
X134214D01*
X132424D02*
X132597Y100316D01*
X132655Y100778D01*
X132828Y101240D01*
X132597Y114058D02*
X134387D01*
X134040Y112210D02*
X134387Y114058D01*
X133175Y112210D02*
X134040D01*
X132251D02*
X133175D01*
X132251D02*
X132597Y114058D01*
X132078Y111402D02*
X133867D01*
X133521Y109554D02*
X133867Y111402D01*
X131731Y109554D02*
X133521D01*
X131731D02*
X131904Y110478D01*
X132078Y111402D01*
X131616Y108861D02*
X133405D01*
X133232Y107938D02*
X133405Y108861D01*
X133059Y107014D02*
X133232Y107938D01*
X131211Y107014D02*
X133059D01*
X131211D02*
X131385Y107938D01*
X131616Y108861D01*
X132597Y104473D02*
X132943Y106321D01*
X130749Y104473D02*
X132597D01*
X130749D02*
X130923Y105455D01*
X131038Y105917D01*
X131154Y106321D01*
X132943D01*
X130634Y103838D02*
X132424D01*
X132078Y101991D02*
X132424Y103838D01*
X130230Y101991D02*
X132078D01*
X130230D02*
X130403Y102915D01*
X130634Y103838D01*
X130172Y101240D02*
X131962D01*
X131616Y99393D02*
X131962Y101240D01*
X130749Y99450D02*
X131616Y99393D01*
X129826Y99450D02*
X130749D01*
X129826D02*
X129999Y100316D01*
X130172Y101240D01*
X127632Y112672D02*
X129191D01*
X128209Y106032D02*
X129191Y112672D01*
X127285Y99335D02*
X128209Y106032D01*
X125726Y99335D02*
X127285D01*
X125726D02*
X126650Y105570D01*
X123879D02*
X126650D01*
X121107D02*
X123879D01*
X120645Y102568D02*
X121107Y105570D01*
X120241Y99335D02*
X120645Y102568D01*
X118683Y99335D02*
X120241D01*
X118683D02*
X120588Y112614D01*
X120645Y112672D01*
X122089D01*
X121338Y107245D02*
X122089Y112672D01*
X121338Y107245D02*
X124052Y107187D01*
X126823D01*
X127054Y108573D01*
X127285Y109901D01*
X127632Y112672D01*
X110600D02*
X119202D01*
X119087Y111864D02*
X119202Y112672D01*
X118971Y111113D02*
X119087Y111864D01*
X115449Y111113D02*
X118971D01*
X114641Y105282D02*
X115449Y111113D01*
X113775Y99335D02*
X114641Y105282D01*
X112274Y99335D02*
X113775D01*
X112274D02*
X113890Y111055D01*
X112158Y111113D02*
X113890Y111055D01*
X110369Y111113D02*
X112158D01*
X110369D02*
X110426Y111921D01*
X110600Y112672D01*
X109618Y108515D02*
Y109323D01*
X109387Y107764D02*
X109618Y108515D01*
X109272Y107418D02*
X109387Y107764D01*
X109098Y107129D02*
X109272Y107418D01*
X108925Y106841D02*
X109098Y107129D01*
X108752Y106610D02*
X108925Y106841D01*
X108232Y106148D02*
X108752Y106610D01*
X107655Y105744D02*
X108232Y106148D01*
X106962Y105513D02*
X107655Y105744D01*
X106154Y105339D02*
X106962Y105513D01*
X106154Y105339D02*
X106673Y104762D01*
X107135Y104127D01*
X107539Y103376D01*
X107886Y102626D01*
X108521Y101009D01*
X109098Y99335D01*
X107424D02*
X109098D01*
X106673Y101471D02*
X107424Y99335D01*
X106327Y102510D02*
X106673Y101471D01*
X105865Y103492D02*
X106327Y102510D01*
X105576Y104127D02*
X105865Y103492D01*
X105403Y104416D02*
X105576Y104127D01*
X105172Y104704D02*
X105403Y104416D01*
X104941Y104935D02*
X105172Y104704D01*
X104595Y105108D02*
X104941Y104935D01*
X104248Y105166D02*
X104595Y105108D01*
X103844Y105224D02*
X104248Y105166D01*
X102920Y105224D02*
X103844D01*
X101881D02*
X102920D01*
X101073Y99335D02*
X101881Y105224D01*
X99572Y99335D02*
X101073D01*
X99572D02*
X100438Y106032D01*
X101362Y112614D01*
Y112672D01*
X104768D01*
X106442D01*
X107193Y112614D01*
X107539Y112557D01*
X107886Y112441D01*
X108290Y112268D01*
X108636Y112037D01*
X108925Y111690D01*
X109214Y111344D01*
X109387Y110882D01*
X109502Y110420D01*
X109618Y109901D01*
Y109323D02*
Y109901D01*
X107193Y107245D02*
X107424Y107476D01*
X107712Y107822D01*
X107886Y108168D01*
X108059Y108573D01*
X108117Y109035D01*
X108174Y109439D01*
X108117Y109901D02*
X108174Y109439D01*
X108001Y110305D02*
X108117Y109901D01*
X107770Y110709D02*
X108001Y110305D01*
X107597Y110825D02*
X107770Y110709D01*
X107424Y110998D02*
X107597Y110825D01*
X107193Y111055D02*
X107424Y110998D01*
X106962Y111113D02*
X107193Y111055D01*
X106385Y111171D02*
X106962Y111113D01*
X105172Y111171D02*
X106385D01*
X102690D02*
X105172D01*
X102690Y111113D02*
Y111171D01*
X102343Y108919D02*
X102690Y111113D01*
X102112Y106783D02*
X102343Y108919D01*
X102112Y106783D02*
X103498D01*
X104941D01*
X105576D01*
X106211Y106898D01*
X106731Y107014D01*
X107193Y107245D01*
X97147Y99335D02*
X98648D01*
X96800Y101240D02*
X97147Y99335D01*
X96512Y103146D02*
X96800Y101240D01*
X94375Y103146D02*
X96512D01*
X92181D02*
X94375D01*
X91373Y101240D02*
X92181Y103146D01*
X90622Y99335D02*
X91373Y101240D01*
X88948Y99335D02*
X90622D01*
X88948D02*
X94606Y112672D01*
X96338D01*
X97493Y106032D01*
X98648Y99335D01*
X92817Y104647D02*
X96281D01*
X95761Y107764D02*
X96281Y104647D01*
X95241Y110940D02*
X95761Y107764D01*
X94722Y109323D02*
X95241Y110940D01*
X94087Y107707D02*
X94722Y109323D01*
X93452Y106205D02*
X94087Y107707D01*
X92817Y104647D02*
X93452Y106205D01*
X80172Y115848D02*
X89930D01*
X89699Y113942D02*
X89930Y115848D01*
X81789Y113942D02*
X89699D01*
X81442Y111460D02*
X81789Y113942D01*
X81154Y108919D02*
X81442Y111460D01*
X81154Y108919D02*
X84964D01*
X88833D01*
X88717Y107938D02*
X88833Y108919D01*
X88602Y106956D02*
X88717Y107938D01*
X80865Y106956D02*
X88602D01*
X80172Y101298D02*
X80865Y106956D01*
X80172Y101298D02*
X84387D01*
X88602D01*
X88486Y100316D02*
X88602Y101298D01*
X88371Y99335D02*
X88486Y100316D01*
X83232Y99335D02*
X88371D01*
X78036Y99393D02*
X83232Y99335D01*
X78036Y99393D02*
X79075Y107534D01*
X80114Y115790D01*
X80172Y115848D01*
X93105Y94600D02*
X93683D01*
X94087Y89173D01*
X94144D01*
X96800Y94600D01*
X97551D01*
X97897Y89173D01*
X100611Y94600D01*
X101246D01*
X98128Y88480D02*
X101246Y94600D01*
X97378Y88480D02*
X98128D01*
X97089Y93908D02*
X97378Y88480D01*
X97031Y93908D02*
X97089D01*
X94375Y88480D02*
X97031Y93908D01*
X93625Y88480D02*
X94375D01*
X93105Y94600D02*
X93625Y88480D01*
X101188Y90213D02*
X101246Y90559D01*
X101188Y90213D02*
X101246Y89866D01*
X101304Y89635D01*
X101419Y89404D01*
X101593Y89173D01*
X101766Y89058D01*
X101997Y88942D01*
X102285Y88827D01*
X102574D01*
X102978Y88885D01*
X103267Y88942D01*
X103844Y89115D01*
Y88596D02*
Y89115D01*
X103324Y88423D02*
X103844Y88596D01*
X102978Y88365D02*
X103324Y88423D01*
X102516Y88365D02*
X102978D01*
X102112D02*
X102516D01*
X101766Y88480D02*
X102112Y88365D01*
X101477Y88596D02*
X101766Y88480D01*
X101188Y88827D02*
X101477Y88596D01*
X100957Y89058D02*
X101188Y88827D01*
X100784Y89404D02*
X100957Y89058D01*
X100669Y89751D02*
X100784Y89404D01*
X100669Y89751D02*
Y90213D01*
Y90732D01*
X100784Y91252D01*
X101015Y91771D01*
X101246Y92175D01*
X101593Y92522D01*
X101997Y92811D01*
X102459Y92984D01*
X102978Y93041D01*
X103324D01*
X103671Y92926D01*
X103902Y92811D01*
X104133Y92580D01*
X104306Y92349D01*
X104422Y92060D01*
X104537Y91713D01*
Y91367D02*
Y91713D01*
X104479Y90559D02*
X104537Y91367D01*
X101246Y90559D02*
X104479D01*
X103960Y91021D02*
X104017Y91367D01*
X103960Y91829D02*
X104017Y91367D01*
X103844Y92060D02*
X103960Y91829D01*
X103729Y92233D02*
X103844Y92060D01*
X103613Y92406D02*
X103729Y92233D01*
X103440Y92464D02*
X103613Y92406D01*
X103209Y92522D02*
X103440Y92464D01*
X102978Y92580D02*
X103209Y92522D01*
X102632D02*
X102978Y92580D01*
X102343Y92464D02*
X102632Y92522D01*
X102112Y92291D02*
X102343Y92464D01*
X101881Y92118D02*
X102112Y92291D01*
X101708Y91887D02*
X101881Y92118D01*
X101535Y91598D02*
X101708Y91887D01*
X101419Y91309D02*
X101535Y91598D01*
X101304Y91021D02*
X101419Y91309D01*
X101304Y91021D02*
X103960D01*
X108752Y94600D02*
X109618D01*
X110715Y89173D01*
X114121Y94600D01*
X115045D01*
X113775Y88480D02*
X115045Y94600D01*
X113198Y88480D02*
X113775D01*
X113198D02*
X114352Y93908D01*
X110830Y88480D02*
X114352Y93908D01*
X110369Y88480D02*
X110830D01*
X109214Y93908D02*
X110369Y88480D01*
X109156Y93908D02*
X109214D01*
X108001Y88480D02*
X109156Y93908D01*
X107482Y88480D02*
X108001D01*
X107482D02*
X108752Y94600D01*
X118394Y89000D02*
X118509Y89520D01*
X118336Y88480D02*
X118394Y89000D01*
X117816Y88480D02*
X118336D01*
X117816D02*
X117874Y89115D01*
X117586Y88769D02*
X117874Y89115D01*
X117239Y88538D02*
X117586Y88769D01*
X116835Y88423D02*
X117239Y88538D01*
X116373Y88365D02*
X116835Y88423D01*
X116084Y88365D02*
X116373D01*
X115853Y88423D02*
X116084Y88365D01*
X115622Y88538D02*
X115853Y88423D01*
X115449Y88711D02*
X115622Y88538D01*
X115276Y88885D02*
X115449Y88711D01*
X115161Y89115D02*
X115276Y88885D01*
X115103Y89346D02*
X115161Y89115D01*
X115045Y89635D02*
X115103Y89346D01*
X115045Y89635D02*
X115103Y89866D01*
X115161Y90039D01*
X115334Y90386D01*
X115565Y90674D01*
X115969Y90905D01*
X116315Y91021D01*
X116777Y91136D01*
X117239Y91194D01*
X117643D01*
X118221Y91136D01*
X118278Y91598D01*
Y91829D01*
X118221Y92002D02*
X118278Y91829D01*
X118105Y92175D02*
X118221Y92002D01*
X118047Y92291D02*
X118105Y92175D01*
X117874Y92406D02*
X118047Y92291D01*
X117701Y92522D02*
X117874Y92406D01*
X117528Y92580D02*
X117701Y92522D01*
X117297Y92580D02*
X117528D01*
X116950Y92522D02*
X117297Y92580D01*
X116546Y92406D02*
X116950Y92522D01*
X115969Y92175D02*
X116546Y92406D01*
X115969Y92175D02*
X116027Y92753D01*
X116662Y92926D01*
X117008Y93041D01*
X117412D01*
X117759D01*
X118047Y92926D01*
X118278Y92811D01*
X118509Y92637D01*
X118683Y92464D01*
X118798Y92233D01*
X118856Y91944D01*
Y91598D02*
Y91944D01*
Y91252D02*
Y91598D01*
X118740Y90732D02*
X118856Y91252D01*
X118509Y89520D02*
X118740Y90732D01*
X116546Y88827D02*
X116893Y88885D01*
X117239Y89000D01*
X117470Y89173D01*
X117701Y89404D01*
X117874Y89693D01*
X117990Y90039D01*
X118105Y90328D01*
X118163Y90674D01*
X117643Y90732D02*
X118163Y90674D01*
X117008D02*
X117643Y90732D01*
X116662Y90617D02*
X117008Y90674D01*
X116373Y90559D02*
X116662Y90617D01*
X116084Y90386D02*
X116373Y90559D01*
X115853Y90213D02*
X116084Y90386D01*
X115738Y89924D02*
X115853Y90213D01*
X115680Y89635D02*
X115738Y89924D01*
X115680Y89462D02*
Y89635D01*
Y89462D02*
X115738Y89289D01*
X115853Y89173D01*
X115911Y89058D01*
X116200Y88885D01*
X116546Y88827D01*
X120992Y95062D02*
X121569D01*
X120703Y91136D02*
X121569Y95062D01*
X120703Y91136D02*
X123071Y92926D01*
X123879D01*
X121165Y90963D02*
X123879Y92926D01*
X121165Y90963D02*
X123186Y88480D01*
X122435D02*
X123186D01*
X120645Y90790D02*
X122435Y88480D01*
X120126D02*
X120645Y90790D01*
X119549Y88480D02*
X120126D01*
X119549D02*
X120992Y95062D01*
X124629Y90213D02*
Y90559D01*
Y89866D02*
Y90213D01*
Y89866D02*
X124687Y89635D01*
X124802Y89404D01*
X124976Y89173D01*
X125207Y89058D01*
X125438Y88942D01*
X125669Y88827D01*
X125957D01*
X126362Y88885D01*
X126708Y88942D01*
X127285Y89115D01*
X127228Y88596D02*
X127285Y89115D01*
X126766Y88423D02*
X127228Y88596D01*
X126362Y88365D02*
X126766Y88423D01*
X125900Y88365D02*
X126362D01*
X125495D02*
X125900D01*
X125149Y88480D02*
X125495Y88365D01*
X124860Y88596D02*
X125149Y88480D01*
X124572Y88827D02*
X124860Y88596D01*
X124341Y89058D02*
X124572Y88827D01*
X124168Y89404D02*
X124341Y89058D01*
X124110Y89751D02*
X124168Y89404D01*
X124052Y90213D02*
X124110Y89751D01*
X124052Y90213D02*
X124110Y90732D01*
X124225Y91252D01*
X124399Y91771D01*
X124687Y92175D01*
X125033Y92522D01*
X125380Y92811D01*
X125842Y92984D01*
X126362Y93041D01*
X126766D01*
X127054Y92926D01*
X127343Y92811D01*
X127574Y92580D01*
X127747Y92349D01*
X127863Y92060D01*
X127920Y91713D01*
X127978Y91367D01*
X127863Y90559D02*
X127978Y91367D01*
X124629Y90559D02*
X127863D01*
X127343Y91021D02*
X127401Y91367D01*
X127343Y91829D02*
X127401Y91367D01*
X127285Y92060D02*
X127343Y91829D01*
X127170Y92233D02*
X127285Y92060D01*
X126997Y92406D02*
X127170Y92233D01*
X126823Y92464D02*
X126997Y92406D01*
X126650Y92522D02*
X126823Y92464D01*
X126362Y92580D02*
X126650Y92522D01*
X126073D02*
X126362Y92580D01*
X125784Y92464D02*
X126073Y92522D01*
X125495Y92291D02*
X125784Y92464D01*
X125265Y92118D02*
X125495Y92291D01*
X125091Y91887D02*
X125265Y92118D01*
X124918Y91598D02*
X125091Y91887D01*
X124802Y91309D02*
X124918Y91598D01*
X124745Y91021D02*
X124802Y91309D01*
X124745Y91021D02*
X127343D01*
X132078Y94600D02*
X132713D01*
X131500Y89000D02*
X132713Y94600D01*
X131500Y89000D02*
X134040D01*
X133925Y88480D02*
X134040Y89000D01*
X130807Y88480D02*
X133925D01*
X130807D02*
X132078Y94600D01*
X139814Y94023D02*
X140161Y93850D01*
X139468Y94081D02*
X139814Y94023D01*
X139064Y94139D02*
X139468Y94081D01*
X138717Y94139D02*
X139064D01*
X138024Y94081D02*
X138717Y94139D01*
X137447Y93908D02*
X138024Y94081D01*
X136985Y93619D02*
X137447Y93908D01*
X136523Y93273D02*
X136985Y93619D01*
X136177Y92811D02*
X136523Y93273D01*
X135888Y92291D02*
X136177Y92811D01*
X135773Y91656D02*
X135888Y92291D01*
X135715Y91021D02*
X135773Y91656D01*
X135715Y90617D02*
Y91021D01*
Y90617D02*
X135830Y90213D01*
X136061Y89808D01*
X136350Y89520D01*
X136639Y89231D01*
X137043Y89058D01*
X137447Y88942D01*
X137909Y88885D01*
X138371D01*
X138717Y88942D01*
X139237Y89115D01*
X139179Y88538D02*
X139237Y89115D01*
X138717Y88423D02*
X139179Y88538D01*
X138371Y88365D02*
X138717Y88423D01*
X137967Y88365D02*
X138371D01*
X137389Y88423D02*
X137967Y88365D01*
X136870Y88538D02*
X137389Y88423D01*
X136350Y88769D02*
X136870Y88538D01*
X135946Y89058D02*
X136350Y88769D01*
X135599Y89462D02*
X135946Y89058D01*
X135311Y89924D02*
X135599Y89462D01*
X135137Y90443D02*
X135311Y89924D01*
X135080Y91021D02*
X135137Y90443D01*
X135080Y91021D02*
Y91425D01*
X135137Y91829D01*
X135253Y92175D01*
X135369Y92522D01*
X135484Y92811D01*
X135657Y93157D01*
X135888Y93446D01*
X136119Y93677D01*
X136350Y93908D01*
X136639Y94081D01*
X136927Y94254D01*
X137274Y94427D01*
X137620Y94543D01*
X137967Y94600D01*
X138313Y94658D01*
X138717Y94716D01*
X139179Y94658D01*
X139583Y94600D01*
X139987Y94543D01*
X140392Y94370D01*
X140161Y93850D02*
X140392Y94370D01*
X140161Y93850D02*
X140161D01*
X141431Y94600D02*
X142528D01*
X143105Y94543D01*
X143683Y94485D01*
X144144Y94312D01*
X144606Y94081D01*
X144953Y93734D01*
X145241Y93273D01*
X145415Y92753D01*
X145472Y92118D01*
X145415Y91367D02*
X145472Y92118D01*
X145241Y90617D02*
X145415Y91367D01*
X144953Y90039D02*
X145241Y90617D01*
X144780Y89751D02*
X144953Y90039D01*
X144549Y89462D02*
X144780Y89751D01*
X144318Y89231D02*
X144549Y89462D01*
X144087Y89058D02*
X144318Y89231D01*
X143798Y88885D02*
X144087Y89058D01*
X143452Y88711D02*
X143798Y88885D01*
X143105Y88596D02*
X143452Y88711D01*
X142759Y88538D02*
X143105Y88596D01*
X142355Y88480D02*
X142759Y88538D01*
X141950Y88480D02*
X142355D01*
X140103D02*
X141950D01*
X140103D02*
X141431Y94600D01*
Y94600D01*
X140854Y89000D02*
X141893D01*
X142585Y89058D01*
X143163Y89173D01*
X143683Y89462D01*
X144087Y89808D01*
X144433Y90270D01*
X144664Y90790D01*
X144837Y91425D01*
X144895Y92118D01*
X144837Y92580D02*
X144895Y92118D01*
X144722Y92984D02*
X144837Y92580D01*
X144549Y93330D02*
X144722Y92984D01*
X144260Y93619D02*
X144549Y93330D01*
X143971Y93792D02*
X144260Y93619D01*
X143567Y93965D02*
X143971Y93792D01*
X143163Y94023D02*
X143567Y93965D01*
X142701Y94081D02*
X143163Y94023D01*
X141950Y94081D02*
X142701D01*
X140854Y89000D02*
X141950Y94081D01*
X145703Y89173D02*
X145934Y89000D01*
X146223Y88942D01*
X146454Y88885D01*
X146742Y88827D01*
X147204Y88885D01*
X147609Y89000D01*
X147782Y89115D01*
X147897Y89289D01*
X148013Y89462D01*
Y89751D01*
Y89924D01*
X147955Y90039D02*
X148013Y89924D01*
X147724Y90328D02*
X147955Y90039D01*
X147435Y90501D02*
X147724Y90328D01*
X147147Y90674D02*
X147435Y90501D01*
X146800Y90905D02*
X147147Y90674D01*
X146511Y91136D02*
X146800Y90905D01*
X146338Y91425D02*
X146511Y91136D01*
X146281Y91598D02*
X146338Y91425D01*
X146281Y91598D02*
Y91771D01*
Y92118D01*
X146396Y92349D01*
X146569Y92580D01*
X146800Y92753D01*
X147089Y92868D01*
X147378Y92984D01*
X147666Y93041D01*
X147897D01*
X148475Y92984D01*
X149052Y92811D01*
X148879Y92291D02*
X149052Y92811D01*
X148417Y92522D02*
X148879Y92291D01*
X147897Y92580D02*
X148417Y92522D01*
X147551D02*
X147897Y92580D01*
X147204Y92406D02*
X147551Y92522D01*
X147031Y92349D02*
X147204Y92406D01*
X146916Y92175D02*
X147031Y92349D01*
X146858Y92002D02*
X146916Y92175D01*
X146858Y91829D02*
Y92002D01*
Y91656D02*
Y91829D01*
Y91656D02*
X146916Y91540D01*
X147089Y91309D01*
X147378Y91136D01*
X147724Y90963D01*
X148071Y90732D01*
X148359Y90501D01*
X148532Y90155D01*
X148590Y89982D01*
X148648Y89751D01*
X148590Y89404D02*
X148648Y89751D01*
X148475Y89115D02*
X148590Y89404D01*
X148301Y88885D02*
X148475Y89115D01*
X148071Y88653D02*
X148301Y88885D01*
X147782Y88538D02*
X148071Y88653D01*
X147493Y88423D02*
X147782Y88538D01*
X147147Y88365D02*
X147493Y88423D01*
X146800Y88365D02*
X147147D01*
X146165Y88423D02*
X146800Y88365D01*
X145530Y88596D02*
X146165Y88423D01*
X145530Y88596D02*
X145703Y89173D01*
X145703D02*
X145703D01*
X152401Y94600D02*
X152978D01*
X153440Y89173D01*
X156154Y94600D01*
X156846D01*
X157193Y89173D01*
X157251D01*
X159964Y94600D01*
X160542D01*
X157482Y88480D02*
X160542Y94600D01*
X156731Y88480D02*
X157482D01*
X156385Y93908D02*
X156731Y88480D01*
X153671D02*
X156385Y93908D01*
X152978Y88480D02*
X153671D01*
X152401Y94600D02*
X152978Y88480D01*
X162389Y93041D02*
X162793Y92984D01*
X163140Y92926D01*
X163428Y92753D01*
X163659Y92522D01*
X163890Y92233D01*
X164006Y91887D01*
X164121Y91540D01*
Y91136D02*
Y91540D01*
Y90559D02*
Y91136D01*
X163948Y90039D02*
X164121Y90559D01*
X163775Y89577D02*
X163948Y90039D01*
X163486Y89173D02*
X163775Y89577D01*
X163140Y88827D02*
X163486Y89173D01*
X162678Y88596D02*
X163140Y88827D01*
X162216Y88423D02*
X162678Y88596D01*
X161639Y88365D02*
X162216Y88423D01*
X161292D02*
X161639Y88365D01*
X160888Y88480D02*
X161292Y88423D01*
X160599Y88653D02*
X160888Y88480D01*
X160368Y88942D02*
X160599Y88653D01*
X160137Y89173D02*
X160368Y88942D01*
X160022Y89520D02*
X160137Y89173D01*
X159906Y89924D02*
X160022Y89520D01*
X159849Y90328D02*
X159906Y89924D01*
X159849Y90328D02*
X159906Y90847D01*
X160022Y91367D01*
X160253Y91829D01*
X160542Y92233D01*
X160888Y92580D01*
X161350Y92811D01*
X161812Y92984D01*
X162389Y93041D01*
X161754Y88827D02*
X162158Y88885D01*
X162505Y89058D01*
X162793Y89289D01*
X163082Y89577D01*
X163255Y89924D01*
X163428Y90328D01*
X163486Y90732D01*
X163544Y91136D01*
Y91425D01*
X163486Y91713D02*
X163544Y91425D01*
X163371Y91944D02*
X163486Y91713D01*
X163255Y92175D02*
X163371Y91944D01*
X163082Y92349D02*
X163255Y92175D01*
X162851Y92464D02*
X163082Y92349D01*
X162620Y92522D02*
X162851Y92464D01*
X162274Y92580D02*
X162620Y92522D01*
X161870D02*
X162274Y92580D01*
X161465Y92349D02*
X161870Y92522D01*
X161177Y92118D02*
X161465Y92349D01*
X160946Y91829D02*
X161177Y92118D01*
X160715Y91483D02*
X160946Y91829D01*
X160599Y91079D02*
X160715Y91483D01*
X160484Y90674D02*
X160599Y91079D01*
X160484Y90213D02*
Y90674D01*
Y89924D02*
Y90213D01*
Y89924D02*
X160542Y89693D01*
X160657Y89462D01*
X160830Y89231D01*
X161003Y89058D01*
X161177Y88942D01*
X161465Y88885D01*
X161754Y88827D01*
X165392Y92118D02*
X165507Y92926D01*
X166084D01*
X165969Y92291D02*
X166084Y92926D01*
X165969Y92291D02*
X166027D01*
X166258Y92580D01*
X166489Y92811D01*
X166835Y92984D01*
X167239Y93041D01*
X167528D01*
X167759Y92984D01*
X167586Y92406D02*
X167759Y92984D01*
X167355Y92464D02*
X167586Y92406D01*
X167123Y92464D02*
X167355D01*
X166835Y92406D02*
X167123Y92464D01*
X166546Y92291D02*
X166835Y92406D01*
X166315Y92118D02*
X166546Y92291D01*
X166142Y91887D02*
X166315Y92118D01*
X165969Y91598D02*
X166142Y91887D01*
X165853Y91309D02*
X165969Y91598D01*
X165680Y90674D02*
X165853Y91309D01*
X165218Y88480D02*
X165680Y90674D01*
X164641Y88480D02*
X165218D01*
X164641D02*
X165392Y92118D01*
X169029Y95062D02*
X169548D01*
X168740Y91136D02*
X169548Y95062D01*
X168740Y91136D02*
X171050Y92926D01*
X171858D01*
X169202Y90963D02*
X171858Y92926D01*
X169202Y90963D02*
X171165Y88480D01*
X170472D02*
X171165D01*
X168625Y90790D02*
X170472Y88480D01*
X168163D02*
X168625Y90790D01*
X167586Y88480D02*
X168163D01*
X167586D02*
X169029Y95062D01*
X172551Y94831D02*
X173301D01*
X172551D02*
Y95120D01*
X174341D01*
Y94831D02*
Y95120D01*
X173648Y94831D02*
X174341D01*
X173648Y92811D02*
Y94831D01*
X173301Y92811D02*
X173648D01*
X173301D02*
Y94831D01*
X174860Y95120D02*
X175380D01*
X176073Y93330D01*
X176766Y95120D01*
X177343D01*
Y92811D02*
Y95120D01*
X176997Y92811D02*
X177343D01*
X176997D02*
Y94831D01*
X176188Y92811D02*
X176997Y94831D01*
X175957Y92811D02*
X176188D01*
X175207Y94831D02*
X175957Y92811D01*
X175207D02*
Y94831D01*
X174860Y92811D02*
X175207D01*
X174860D02*
Y95120D01*
D67*
X132789Y56958D02*
D03*
Y76643D02*
D03*
D68*
X149122Y134000D02*
D03*
M02*
