G04 Layer_Color=16711935*
%FSLAX25Y25*%
%MOIN*%
G70*
G01*
G75*
%ADD93C,0.03950*%
%ADD94R,0.03200X0.03200*%
%ADD95C,0.07800*%
%ADD96C,0.07200*%
%ADD97O,0.18300X0.08300*%
%ADD98O,0.16800X0.08300*%
%ADD99R,0.07200X0.07200*%
%ADD100O,0.08300X0.16800*%
%ADD101C,0.06706*%
%ADD102R,0.06706X0.06706*%
%ADD103C,0.25210*%
%ADD104C,0.04800*%
%ADD105R,0.04816X0.06706*%
D93*
X37600Y206500D02*
D03*
X217600D02*
D03*
D94*
X149706Y41506D02*
D03*
X147206D02*
D03*
X149706Y39007D02*
D03*
X147206D02*
D03*
X149706Y36507D02*
D03*
X147206D02*
D03*
X149706Y34007D02*
D03*
X147206D02*
D03*
X149706Y31506D02*
D03*
X147206D02*
D03*
X144706Y41506D02*
D03*
Y36507D02*
D03*
Y39007D02*
D03*
Y31506D02*
D03*
Y34007D02*
D03*
D95*
X28500Y76000D02*
D03*
Y56000D02*
D03*
Y66000D02*
D03*
Y46000D02*
D03*
D96*
X201300Y16085D02*
D03*
D97*
X206300Y53022D02*
D03*
D98*
Y29400D02*
D03*
D99*
X211300Y16085D02*
D03*
D100*
X224804Y41211D02*
D03*
D101*
X244500Y55126D02*
D03*
D102*
Y63000D02*
D03*
D103*
X13327Y206557D02*
D03*
X241673D02*
D03*
Y13643D02*
D03*
X13327D02*
D03*
D104*
X18500Y179500D02*
D03*
Y174000D02*
D03*
D105*
X52600Y195388D02*
D03*
X42600D02*
D03*
X32600D02*
D03*
X62600D02*
D03*
X82600D02*
D03*
X72600D02*
D03*
X92600D02*
D03*
X112600D02*
D03*
X102600D02*
D03*
X42600Y217612D02*
D03*
X32600D02*
D03*
X62600D02*
D03*
X52600D02*
D03*
X92600D02*
D03*
X82600D02*
D03*
X72600D02*
D03*
X112600D02*
D03*
X102600D02*
D03*
X162600Y195388D02*
D03*
X182600D02*
D03*
X172600D02*
D03*
X132600D02*
D03*
X122600D02*
D03*
X152600D02*
D03*
X142600D02*
D03*
X212600D02*
D03*
X192600D02*
D03*
X222600D02*
D03*
X202600D02*
D03*
X122600Y217612D02*
D03*
X142600D02*
D03*
X132600D02*
D03*
X162600D02*
D03*
X152600D02*
D03*
X192600D02*
D03*
X182600D02*
D03*
X202600D02*
D03*
X172600D02*
D03*
X222600D02*
D03*
X212600D02*
D03*
M02*
